<svg xmlns="http://www.w3.org/2000/svg" xmlns:svg="http://www.w3.org/2000/svg" xmlns:xlink="http://www.w3.org/1999/xlink" id="svg10068" width="229.278" height="80.828" version="1.1" style="display:inline"><defs id="defs10070"><linearGradient id="linearGradient5451"><stop id="stop5453" offset="0" style="stop-color:#eb7d7d;stop-opacity:1"/><stop id="stop5455" offset=".5" style="stop-color:#e43e3e;stop-opacity:1"/><stop id="stop5457" offset="1" style="stop-color:#d37a7a;stop-opacity:1"/></linearGradient><linearGradient id="linearGradient5423"><stop id="stop5425" offset="0" style="stop-color:#839472;stop-opacity:1"/><stop id="stop5427" offset=".16" style="stop-color:#6a884d;stop-opacity:1"/><stop id="stop5429" offset=".66" style="stop-color:#3d5a22;stop-opacity:1"/><stop id="stop5431" offset="1" style="stop-color:#8a9183;stop-opacity:1"/></linearGradient><linearGradient id="linearGradient5367"><stop id="stop5369" offset="0" style="stop-color:#8abc59;stop-opacity:1"/><stop id="stop5371" offset=".16" style="stop-color:#58a30e;stop-opacity:1"/><stop id="stop5373" offset=".66" style="stop-color:#366b04;stop-opacity:1"/><stop id="stop5375" offset="1" style="stop-color:#87ea25;stop-opacity:1"/></linearGradient><marker id="Arrow2Sstart" orient="auto" refX="0" refY="0" style="overflow:visible"><path id="path4640" d="M 8.7185878,4.0337352 -2.2072895,0.01601326 8.7185884,-4.0017078 c -1.7454984,2.3720609 -1.7354408,5.6174519 -6e-7,8.035443 z" transform="matrix(0.3,0,0,0.3,-0.69,0)" style="font-size:12px;fill-rule:evenodd;stroke-width:.625;stroke-linejoin:round"/></marker><linearGradient id="linearGradient5318" x1="-29.837" x2="-29.837" y1="285.06" y2="342.606" gradientTransform="matrix(2.2532936,0,0,2.206809,446.89077,-285.33499)" gradientUnits="userSpaceOnUse" xlink:href="#linearGradient8928"/><linearGradient id="linearGradient8928"><stop style="stop-color:#fff;stop-opacity:.89156628" id="stop8930" offset="0"/><stop style="stop-color:#fff;stop-opacity:0" id="stop8932" offset="1"/></linearGradient><linearGradient id="linearGradient7065"><stop id="stop7067" offset="0" style="stop-color:#000;stop-opacity:1"/><stop style="stop-color:#373737;stop-opacity:1" id="stop7071" offset=".5"/><stop id="stop7075" offset="1" style="stop-color:#000;stop-opacity:1"/></linearGradient><linearGradient id="linearGradient3134"><stop style="stop-color:#000;stop-opacity:1" id="stop3136" offset="0"/><stop id="stop3146" offset=".25" style="stop-color:#464646;stop-opacity:1"/><stop id="stop3142" offset=".5" style="stop-color:#373737;stop-opacity:1"/><stop style="stop-color:#626262;stop-opacity:1" id="stop3144" offset=".75"/><stop style="stop-color:#000;stop-opacity:1" id="stop3138" offset="1"/></linearGradient><linearGradient id="linearGradient3195"><stop id="stop3197" offset="0" style="stop-color:#000;stop-opacity:1"/><stop style="stop-color:#464646;stop-opacity:1" id="stop3199" offset=".25"/><stop style="stop-color:#373737;stop-opacity:1" id="stop3201" offset=".5"/><stop id="stop3203" offset=".75" style="stop-color:#626262;stop-opacity:1"/><stop id="stop3205" offset="1" style="stop-color:#000;stop-opacity:1"/></linearGradient><linearGradient id="linearGradient5100"><stop style="stop-color:#5e422c;stop-opacity:1" id="stop5102" offset="0"/><stop style="stop-color:#d5bba6;stop-opacity:1" id="stop5104" offset="1"/></linearGradient><linearGradient id="linearGradient7087"><stop id="stop7089" offset="0" style="stop-color:#b66100;stop-opacity:1"/><stop style="stop-color:#ffa31b;stop-opacity:1" id="stop7091" offset=".25"/><stop style="stop-color:#a25600;stop-opacity:1" id="stop7093" offset=".5"/><stop id="stop7095" offset=".75" style="stop-color:#ffab49;stop-opacity:1"/><stop id="stop7097" offset="1" style="stop-color:#8d4b00;stop-opacity:1"/></linearGradient><linearGradient id="linearGradient8125"><stop style="stop-color:#777;stop-opacity:1" id="stop8127" offset="0"/><stop id="stop8131" offset=".5" style="stop-color:#e6e6e6;stop-opacity:1"/><stop style="stop-color:#777;stop-opacity:1" id="stop8133" offset=".75"/><stop style="stop-color:#fff;stop-opacity:1" id="stop8129" offset="1"/></linearGradient><linearGradient id="linearGradient8108"><stop id="stop8110" offset="0" style="stop-color:#777;stop-opacity:1"/><stop id="stop8112" offset="1" style="stop-color:#fff;stop-opacity:1"/></linearGradient><linearGradient id="linearGradient10109"><stop style="stop-color:#fff;stop-opacity:0" id="stop10111" offset="0"/><stop style="stop-color:#fff;stop-opacity:1" id="stop10113" offset="1"/></linearGradient><linearGradient id="linearGradient3443" x1="133.81" x2="132.275" y1="42.69" y2="32.27" gradientUnits="userSpaceOnUse" xlink:href="#linearGradient10101"/><linearGradient id="linearGradient10101"><stop id="stop10103" offset="0" style="stop-color:#fff;stop-opacity:1"/><stop id="stop10105" offset="1" style="stop-color:#fff;stop-opacity:0"/></linearGradient><linearGradient id="linearGradient5224-4"><stop style="stop-color:#000;stop-opacity:1" id="stop5226-8" offset="0"/><stop style="stop-color:#000;stop-opacity:0" id="stop5228-8" offset="1"/></linearGradient><filter id="filter5296-2" width="1.196" height="1.668" x="-.098" y="-.334" color-interpolation-filters="sRGB"><feGaussianBlur id="feGaussianBlur5298-4" stdDeviation=".818"/></filter><linearGradient id="linearGradient5226-1"><stop style="stop-color:#8abc59;stop-opacity:1" id="stop5229-7" offset="0"/><stop style="stop-color:#58a30e;stop-opacity:1" id="stop5245-1" offset=".16"/><stop style="stop-color:#366b04;stop-opacity:1" id="stop5235-1" offset=".66"/><stop style="stop-color:#87ea25;stop-opacity:1" id="stop5231-5" offset="1"/></linearGradient><linearGradient id="linearGradient5300-7"><stop style="stop-color:#fff;stop-opacity:1" id="stop5302-6" offset="0"/><stop style="stop-color:#fff;stop-opacity:0" id="stop5304-1" offset="1"/></linearGradient><linearGradient id="linearGradient5237-2"><stop style="stop-color:#fff;stop-opacity:1" id="stop5239-3" offset="0"/><stop style="stop-color:#757575;stop-opacity:1" id="stop5247-2" offset=".5"/><stop style="stop-color:#9c9c9c;stop-opacity:1" id="stop5241-2" offset="1"/></linearGradient><radialGradient id="radialGradient4398" cx="14.5" cy="26.688" r="10" fx="14.5" fy="26.688" gradientTransform="matrix(1,0,0,0.29375,0,18.848047)" gradientUnits="userSpaceOnUse" xlink:href="#linearGradient5224-4"/><radialGradient id="radialGradient4400" cx="14.5" cy="26.688" r="10" fx="14.5" fy="26.688" gradientTransform="matrix(1,0,0,0.29375,0,18.848047)" gradientUnits="userSpaceOnUse" xlink:href="#linearGradient5224-4"/><radialGradient id="radialGradient4402" cx="29.393" cy="18.898" r="29.7" fx="29.393" fy="18.898" gradientTransform="matrix(1.5354369,0,0,1.5485894,-15.737913,-10.36738)" gradientUnits="userSpaceOnUse" xlink:href="#linearGradient5226-1"/><radialGradient id="radialGradient4404" cx="29.774" cy="7.092" r="25.38" fx="29.774" fy="7.092" gradientTransform="matrix(2.2469896,0,0,2.2469896,-37.128341,-8.8439229)" gradientUnits="userSpaceOnUse" xlink:href="#linearGradient5300-7"/><radialGradient id="radialGradient4518" cx="29.393" cy="18.898" r="29.7" fx="29.393" fy="18.898" gradientTransform="matrix(1.5354369,0,0,1.5485894,-15.737913,-10.36738)" gradientUnits="userSpaceOnUse" xlink:href="#linearGradient5423"/><radialGradient id="radialGradient4814" cx="14.5" cy="26.688" r="10" fx="14.5" fy="26.688" gradientTransform="matrix(1,0,0,0.29375,0,18.848047)" gradientUnits="userSpaceOnUse" xlink:href="#linearGradient5224-4"/><radialGradient id="radialGradient4816" cx="14.5" cy="26.688" r="10" fx="14.5" fy="26.688" gradientTransform="matrix(1,0,0,0.29375,0,18.848047)" gradientUnits="userSpaceOnUse" xlink:href="#linearGradient5224-4"/><radialGradient id="radialGradient4818" cx="29.393" cy="18.898" r="29.7" fx="29.393" fy="18.898" gradientTransform="matrix(1.5354369,0,0,1.5485894,-15.737913,-10.36738)" gradientUnits="userSpaceOnUse" xlink:href="#linearGradient5237-2"/><radialGradient id="radialGradient4820" cx="29.774" cy="7.092" r="25.38" fx="29.774" fy="7.092" gradientTransform="matrix(2.2469896,0,0,2.2469896,-37.128341,-8.8439229)" gradientUnits="userSpaceOnUse" xlink:href="#linearGradient5300-7"/><linearGradient id="linearGradient2742" x1="24.481" x2="24.481" y1="5.081" y2="45.074" gradientUnits="userSpaceOnUse" xlink:href="#linearGradient3781"/><linearGradient id="linearGradient3781"><stop style="stop-color:white;stop-opacity:1" id="stop3783" offset="0"/><stop style="stop-color:white;stop-opacity:0" id="stop3785" offset="1"/></linearGradient><linearGradient id="linearGradient2745" x1="63.397" x2="63.397" y1="-12.489" y2="5.468" gradientTransform="matrix(2.1153735,0,0,2.1153253,-107.57709,32.426559)" gradientUnits="userSpaceOnUse" xlink:href="#linearGradient4873"/><linearGradient id="linearGradient4873"><stop style="stop-color:white;stop-opacity:1" id="stop4875" offset="0"/><stop style="stop-color:white;stop-opacity:0" id="stop4877" offset="1"/></linearGradient><radialGradient id="radialGradient2748" cx="23.896" cy="3.99" r="20.397" fx="23.896" fy="3.99" gradientTransform="matrix(0,2.2874593,-3.0194057,0,36.047437,-50.630156)" gradientUnits="userSpaceOnUse" xlink:href="#linearGradient3242"/><linearGradient id="linearGradient3242"><stop style="stop-color:#f8b17e;stop-opacity:1" id="stop3244" offset="0"/><stop style="stop-color:#e35d4f;stop-opacity:1" id="stop3246" offset=".262"/><stop style="stop-color:#c6262e;stop-opacity:1" id="stop3248" offset=".661"/><stop style="stop-color:#690b54;stop-opacity:1" id="stop3250" offset="1"/></linearGradient><linearGradient id="linearGradient2750" x1="18.379" x2="18.379" y1="44.98" y2="3.082" gradientTransform="matrix(0.9584364,0,0,0.9584366,0.9975246,1.9975253)" gradientUnits="userSpaceOnUse" xlink:href="#linearGradient2490"/><linearGradient id="linearGradient2490"><stop style="stop-color:#791235;stop-opacity:1" id="stop2492" offset="0"/><stop style="stop-color:#dd3b27;stop-opacity:1" id="stop2494" offset="1"/></linearGradient><radialGradient id="radialGradient2436" cx="62.625" cy="4.625" r="10.625" fx="62.625" fy="4.625" gradientTransform="matrix(2.1647059,0,0,0.7529402,-111.56471,36.517647)" gradientUnits="userSpaceOnUse" xlink:href="#linearGradient8838"/><linearGradient id="linearGradient8838"><stop style="stop-color:black;stop-opacity:1" id="stop8840" offset="0"/><stop style="stop-color:black;stop-opacity:0" id="stop8842" offset="1"/></linearGradient><linearGradient id="linearGradient3406" x1="20.494" x2="20.494" y1="6.01" y2="47.76" gradientUnits="userSpaceOnUse" xlink:href="#linearGradient3400"/><linearGradient id="linearGradient3400"><stop style="stop-color:white;stop-opacity:1" id="stop3402" offset="0"/><stop style="stop-color:white;stop-opacity:0" id="stop3404" offset="1"/></linearGradient><linearGradient id="linearGradient2628" x1="-84.344" x2="-91.513" y1="-5.388" y2="24.558" gradientTransform="matrix(1.017301,-0.243559,0.243559,1.017301,110.52469,-7.9553513)" gradientUnits="userSpaceOnUse" xlink:href="#linearGradient2264"/><linearGradient id="linearGradient2264"><stop style="stop-color:#d7e866;stop-opacity:1" id="stop2266" offset="0"/><stop style="stop-color:#8cab2a;stop-opacity:1" id="stop2268" offset="1"/></linearGradient><radialGradient id="radialGradient1444" cx="24.837" cy="36.421" r="15.645" fx="24.837" fy="36.421" gradientTransform="matrix(1,0,0,0.536723,0,16.87306)" gradientUnits="userSpaceOnUse" xlink:href="#linearGradient8662"/><linearGradient id="linearGradient8662"><stop style="stop-color:black;stop-opacity:1" id="stop8664" offset="0"/><stop style="stop-color:black;stop-opacity:0" id="stop8666" offset="1"/></linearGradient><linearGradient id="linearGradient5128-3"><stop style="stop-color:#e5e5e5;stop-opacity:1" id="stop5130-1" offset="0"/><stop style="stop-color:#ababab;stop-opacity:1" id="stop5132-1" offset="1"/></linearGradient><linearGradient id="linearGradient3260" x1="86.133" x2="84.639" y1="105.105" y2="20.895" gradientTransform="matrix(0.09614231,0,0,0.09614231,1.8468935,1.9430362)" gradientUnits="userSpaceOnUse" xlink:href="#linearGradient5128-3"/><linearGradient id="linearGradient3397-90"><stop style="stop-color:#aaa;stop-opacity:1" id="stop3399-8" offset="0"/><stop style="stop-color:#8c8c8c;stop-opacity:1" id="stop3401-1" offset="1"/></linearGradient><linearGradient id="linearGradient3264" x1="21" x2="21" y1="0" y2="16.005" gradientTransform="translate(-17.058189,0)" gradientUnits="userSpaceOnUse" xlink:href="#linearGradient3397-90"/><linearGradient id="linearGradient3309-6" x1="63.999" x2="63.999" y1="3.1" y2="122.899" gradientUnits="userSpaceOnUse"><stop style="stop-color:#f6f6f6;stop-opacity:1" id="stop3311-2" offset="0"/><stop style="stop-color:#ccc;stop-opacity:1" id="stop3313-9" offset="1"/></linearGradient><linearGradient id="linearGradient3262" x1="25" x2="25" y1="0" y2="16" gradientTransform="translate(-17.058189,0)" gradientUnits="userSpaceOnUse" xlink:href="#linearGradient3309-6"/><linearGradient id="linearGradient5128-6"><stop style="stop-color:#eee;stop-opacity:1" id="stop5130-43" offset="0"/><stop style="stop-color:#a2a2a2;stop-opacity:1" id="stop5132-0" offset="1"/></linearGradient><linearGradient id="linearGradient3241" x1="86.133" x2="84.639" y1="105.105" y2="20.895" gradientTransform="matrix(0.1562313,0,0,0.1562313,2.0012016,2.1574324)" gradientUnits="userSpaceOnUse" xlink:href="#linearGradient5128-6"/><linearGradient id="linearGradient3397-9"><stop style="stop-color:#aaa;stop-opacity:1" id="stop3399-7" offset="0"/><stop style="stop-color:#8c8c8c;stop-opacity:1" id="stop3401-7" offset="1"/></linearGradient><linearGradient id="linearGradient3228" x1="40" x2="40" y1="1" y2="23.02" gradientTransform="translate(-24.5,0)" gradientUnits="userSpaceOnUse" xlink:href="#linearGradient3397-9"/><linearGradient id="linearGradient3309-4" x1="63.999" x2="63.999" y1="3.1" y2="122.899" gradientUnits="userSpaceOnUse"><stop style="stop-color:#f6f6f6;stop-opacity:1" id="stop3311-8" offset="0"/><stop style="stop-color:#d2d2d2;stop-opacity:1" id="stop3313-88" offset="1"/></linearGradient><linearGradient id="linearGradient3218" x1="34" x2="34" y1="1" y2="23" gradientTransform="translate(-24.5,0)" gradientUnits="userSpaceOnUse" xlink:href="#linearGradient3309-4"/><linearGradient id="linearGradient10691-8"><stop style="stop-color:#000;stop-opacity:1" id="stop10693-6" offset="0"/><stop style="stop-color:#000;stop-opacity:0" id="stop10695-0" offset="1"/></linearGradient><radialGradient id="radialGradient2411" cx="6.703" cy="73.616" r="7.228" fx="6.703" fy="73.616" gradientTransform="matrix(1.660115,0,0,0.3458573,0.8727276,-3.9605294)" gradientUnits="userSpaceOnUse" xlink:href="#linearGradient10691-8"/><linearGradient id="linearGradient2868" x1="86.133" x2="84.639" y1="105.105" y2="20.895" gradientTransform="matrix(0.2014014,0,0,0.2014015,3.1103045,3.311705)" gradientUnits="userSpaceOnUse" xlink:href="#linearGradient5128-0"/><linearGradient id="linearGradient5128-0"><stop style="stop-color:#fff;stop-opacity:1" id="stop5130-4" offset="0"/><stop style="stop-color:#959595;stop-opacity:1" id="stop5132-4" offset="1"/></linearGradient><linearGradient id="linearGradient3397-1"><stop style="stop-color:#aaa;stop-opacity:1" id="stop3399-0" offset="0"/><stop style="stop-color:#8c8c8c;stop-opacity:1" id="stop3401-3" offset="1"/></linearGradient><linearGradient id="linearGradient3328" x1="25.923" x2="25.923" y1="19" y2="47.045" gradientTransform="matrix(0.93928017,0.34315123,-0.34315123,0.93928017,-1.7936946,-25.633934)" gradientUnits="userSpaceOnUse" xlink:href="#linearGradient3397-1"/><linearGradient id="linearGradient3309-8" x1="63.999" x2="63.999" y1="3.1" y2="122.899" gradientUnits="userSpaceOnUse"><stop style="stop-color:#f6f6f6;stop-opacity:1" id="stop3311-4" offset="0"/><stop style="stop-color:#d2d2d2;stop-opacity:1" id="stop3313-8" offset="1"/></linearGradient><linearGradient id="linearGradient3326" x1="32.036" x2="32.036" y1="19" y2="47.012" gradientTransform="matrix(0.93928017,0.34315123,-0.34315123,0.93928017,-1.7936946,-25.633934)" gradientUnits="userSpaceOnUse" xlink:href="#linearGradient3309-8"/><linearGradient id="linearGradient10691"><stop style="stop-color:#000;stop-opacity:1" id="stop10693" offset="0"/><stop style="stop-color:#000;stop-opacity:0" id="stop10695" offset="1"/></linearGradient><radialGradient id="radialGradient2538" cx="6.703" cy="73.616" r="7.228" fx="6.703" fy="73.616" gradientTransform="matrix(2.2134617,0,0,0.4842001,1.1638028,-7.1447362)" gradientUnits="userSpaceOnUse" xlink:href="#linearGradient10691"/><linearGradient id="linearGradient2512" x1="86.133" x2="84.639" y1="105.105" y2="20.895" gradientTransform="matrix(0.3244803,0,0,0.3244803,3.2332655,2.5577454)" gradientUnits="userSpaceOnUse" xlink:href="#linearGradient5128"/><linearGradient id="linearGradient5128"><stop style="stop-color:#e5e5e5;stop-opacity:1" id="stop5130" offset="0"/><stop style="stop-color:#ababab;stop-opacity:1" id="stop5132" offset="1"/></linearGradient><linearGradient id="linearGradient2515" x1="20.759" x2="20.759" y1="1" y2="45.017" gradientUnits="userSpaceOnUse" xlink:href="#linearGradient3309"/><linearGradient id="linearGradient3309" x1="63.999" x2="63.999" y1="3.1" y2="122.899" gradientUnits="userSpaceOnUse"><stop style="stop-color:#f6f6f6;stop-opacity:1" id="stop3311" offset="0"/><stop style="stop-color:#d2d2d2;stop-opacity:1" id="stop3313" offset="1"/></linearGradient><linearGradient id="linearGradient2517" x1="37.201" x2="37.201" y1="1" y2="45" gradientUnits="userSpaceOnUse" xlink:href="#linearGradient3397"/><linearGradient id="linearGradient3397"><stop style="stop-color:#aaa;stop-opacity:1" id="stop3399" offset="0"/><stop style="stop-color:#8c8c8c;stop-opacity:1" id="stop3401" offset="1"/></linearGradient><radialGradient id="radialGradient2436-5" cx="62.625" cy="4.625" r="10.625" fx="62.625" fy="4.625" gradientTransform="matrix(2.1647059,0,0,0.7529402,-111.56471,36.517647)" gradientUnits="userSpaceOnUse" xlink:href="#linearGradient8838-9"/><linearGradient id="linearGradient8838-9"><stop style="stop-color:#000;stop-opacity:1" id="stop8840-7" offset="0"/><stop style="stop-color:#000;stop-opacity:0" id="stop8842-8" offset="1"/></linearGradient><linearGradient id="linearGradient3326-4" x1="32.036" x2="32.036" y1="19" y2="47.012" gradientTransform="matrix(0.93928017,0.34315123,-0.34315123,0.93928017,-1.7936946,-25.633934)" gradientUnits="userSpaceOnUse" xlink:href="#linearGradient3309-8-1"/><linearGradient id="linearGradient3309-8-1" x1="63.999" x2="63.999" y1="3.1" y2="122.899" gradientUnits="userSpaceOnUse"><stop style="stop-color:#f6f6f6;stop-opacity:1" id="stop3311-4-5" offset="0"/><stop style="stop-color:#d2d2d2;stop-opacity:1" id="stop3313-8-5" offset="1"/></linearGradient><linearGradient id="linearGradient3328-4" x1="25.923" x2="25.923" y1="19" y2="47.045" gradientTransform="matrix(0.93928017,0.34315123,-0.34315123,0.93928017,-1.7936946,-25.633934)" gradientUnits="userSpaceOnUse" xlink:href="#linearGradient3397-1-9"/><linearGradient id="linearGradient3397-1-9"><stop style="stop-color:#aaa;stop-opacity:1" id="stop3399-0-8" offset="0"/><stop style="stop-color:#8c8c8c;stop-opacity:1" id="stop3401-3-3" offset="1"/></linearGradient><linearGradient id="linearGradient2868-8" x1="86.133" x2="84.639" y1="105.105" y2="20.895" gradientTransform="matrix(0.2014014,0,0,0.2014015,3.1103045,3.311705)" gradientUnits="userSpaceOnUse" xlink:href="#linearGradient5128-0-5"/><linearGradient id="linearGradient5128-0-5"><stop style="stop-color:#fff;stop-opacity:1" id="stop5130-4-2" offset="0"/><stop style="stop-color:#959595;stop-opacity:1" id="stop5132-4-2" offset="1"/></linearGradient><linearGradient id="linearGradient3339" x1="86.133" x2="84.639" y1="105.105" y2="20.895" gradientTransform="matrix(0.2014014,0,0,0.2014015,3.1103045,3.311705)" gradientUnits="userSpaceOnUse" xlink:href="#linearGradient5128-0-5"/></defs><metadata id="metadata10073"/><g style="display:inline" id="g2932" transform="translate(-205.8687,-331.45166)"><g id="background"><rect style="fill:#453e3e;fill-opacity:1;stroke:#000;stroke-width:3.36186838;stroke-miterlimit:10;stroke-opacity:1;stroke-dasharray:none;stroke-dashoffset:0" id="rect2936" width="225.916" height="77.466" x="207.55" y="333.133" ry="5.717"/><rect id="bargraph" width="205.458" height="64.785" x="217.778" y="339.473" ry="4.781" style="fill:#332d2d;fill-opacity:1;stroke:none"/><g style="font-size:40px;font-style:normal;font-weight:400;fill:#fff;fill-opacity:1;stroke:none;font-family:Bitstream Vera Sans" id="text3375" transform="translate(215.8687,364.87409)"><path style="font-size:36px;font-weight:700;fill:#fff;fill-opacity:1;-inkscape-font-specification:Andale Mono Bold" id="path3380" d="m 42.801897,15.332331 -10.582031,0 -1.669922,4.78125 -6.802734,0 9.720703,-26.2441409 8.068359,0 9.720703,26.2441409 -6.802734,0 -1.652344,-4.78125 m -8.894531,-4.869141 7.189453,0 L 37.510881,0.02178383 33.907366,10.46319"/><path style="font-size:36px;font-weight:700;fill:#fff;fill-opacity:1;-inkscape-font-specification:Andale Mono Bold" id="path3382" d="m 64.3351,5.5061588 c 1.417955,1.46e-5 2.431625,-0.263657 3.041016,-0.7910156 C 67.997193,4.1878154 68.30774,3.3206287 68.307756,2.1135807 68.30774,0.9182874 67.997193,0.0628195 67.376116,-0.45282555 66.766725,-0.96842946 65.753055,-1.2262417 64.3351,-1.226263 l -2.847656,0 0,6.7324218 2.847656,0 m -2.847656,4.6757812 0,9.931641 -6.767578,0 0,-26.2441409 10.335937,0 c 3.457014,2.62e-5 5.988262,0.5801038 7.59375,1.7402344 1.617165,1.1601795 2.425758,2.9941621 2.425782,5.5019531 -2.4e-5,1.7343922 -0.421899,3.1582189 -1.265625,4.2714844 -0.832053,1.1132948 -2.091818,1.9336065 -3.779297,2.4609375 0.925761,0.2109495 1.751932,0.6914178 2.478515,1.4414062 0.73826,0.7382913 1.4824,1.8632903 2.232422,3.3750003 l 3.673828,7.453125 -7.207031,0 -3.199219,-6.521485 C 67.364381,12.279604 66.708132,11.383121 66.040178,10.902643 65.383914,10.422184 64.505009,10.18195 63.40346,10.18194 l -1.916016,0"/><path style="font-size:36px;font-weight:700;fill:#fff;fill-opacity:1;-inkscape-font-specification:Andale Mono Bold" id="path3384" d="m 82.422991,-6.1305599 8.613281,0 5.976563,14.0449219 6.011715,-14.0449219 8.59571,0 0,26.2441409 -6.39844,0 0,-19.1953128 -6.046876,14.1503908 -4.289063,0 -6.046875,-14.1503908 0,19.1953128 -6.416015,0 0,-26.2441409"/></g></g></g><g id="layer1"><g id="symbol" transform="matrix(1.6946172,0,0,1.6946172,-104.16402,177.63069)"><path style="opacity:.53012049;color:#000;fill:url(#radialGradient4814);fill-opacity:1;fill-rule:nonzero;stroke:none;stroke-width:1;marker:none;visibility:visible;display:inline;overflow:visible;filter:url(#filter5296-2);enable-background:accumulate" id="path4798" d="m 24.5,26.6875 c 0,1.622336 -4.477153,2.9375 -10,2.9375 -5.5228475,0 -10,-1.315164 -10,-2.9375 0,-1.622336 4.4771525,-2.9375 10,-2.9375 5.522847,0 10,1.315164 10,2.9375 z" transform="matrix(1.3565115,0,0,1.3564842,148.6163,-105.84566)"/><path style="opacity:.80120479;color:#000;fill:url(#radialGradient4816);fill-opacity:1;fill-rule:nonzero;stroke:none;stroke-width:1;marker:none;visibility:visible;display:inline;overflow:visible;filter:url(#filter5296-2);enable-background:accumulate" id="path4800" d="m 24.5,26.6875 c 0,1.622336 -4.477153,2.9375 -10,2.9375 -5.5228475,0 -10,-1.315164 -10,-2.9375 0,-1.622336 4.4771525,-2.9375 10,-2.9375 5.522847,0 10,1.315164 10,2.9375 z" transform="matrix(0.8476709,0,0,0.8476539,155.99448,-91.479567)"/><path style="fill:url(#radialGradient4818);fill-opacity:1;fill-rule:evenodd;stroke:#d4d0d0;stroke-width:2.19046068;stroke-linecap:butt;stroke-linejoin:miter;stroke-miterlimit:4;stroke-opacity:1;stroke-dasharray:none" id="path4802" d="m 58.403591,29.207693 c 0,16.022297 -12.988638,29.010935 -29.010935,29.010935 -16.022297,0 -29.0109345,-12.988638 -29.0109345,-29.010935 0,-16.022297 12.9886375,-29.01093473 29.0109345,-29.01093473 16.022297,0 29.010935,12.98863773 29.010935,29.01093473 z" transform="matrix(0.4552142,0,0,0.4578395,154.92379,-94.080092)"/><path style="fill:none;stroke:url(#radialGradient4820);stroke-width:1.98282218;stroke-linecap:round;stroke-linejoin:round;stroke-miterlimit:4;stroke-opacity:1;stroke-dasharray:none;stroke-dashoffset:0" id="path4804" d="m 53.950159,30.352861 c 0,13.351915 -10.823865,24.17578 -24.175779,24.17578 -13.351915,0 -24.1757796,-10.823865 -24.1757796,-24.17578 0,-13.351914 10.8238646,-24.1757789 24.1757796,-24.1757789 13.351914,0 24.175779,10.8238649 24.175779,24.1757789 z" transform="matrix(0.5041973,0,0,0.5044661,153.2742,-96.019639)"/></g><g id="symbol-Disarmed" transform="translate(173.85714,-69.957837)"><path style="opacity:.3;fill:url(#radialGradient2436);fill-opacity:1;fill-rule:evenodd;stroke:none;stroke-width:.99999988;marker:none;visibility:visible;display:inline;overflow:visible" id="path8836" d="m 46.999997,40 c 0,4.418278 -10.297452,8 -23,8 -12.702548,0 -23.0000002,-3.581722 -23.0000002,-8 0,-4.418278 10.2974522,-8 23.0000002,-8 12.702548,0 23,3.581722 23,8 l 0,0 z"/><path style="fill:url(#radialGradient2748);fill-opacity:1;stroke:url(#linearGradient2750);stroke-width:1.003654;stroke-linecap:round;stroke-linejoin:round;stroke-miterlimit:4;stroke-opacity:1;stroke-dasharray:none;stroke-dashoffset:0" id="path2555" d="M 24.000002,5.5018088 C 13.241573,5.5018088 4.5018088,14.24157 4.5018088,25 c 0,10.75843 8.7397642,19.498195 19.4981932,19.498192 10.758425,0 19.498199,-8.739762 19.498189,-19.498192 0,-10.75843 -8.739764,-19.4981912 -19.498189,-19.4981912 z m 0,6.2597882 c 7.31428,0 13.2384,5.924122 13.2384,13.238403 0,3.069743 -1.063615,5.871916 -2.815408,8.116759 L 17.650361,13.378958 c 1.884452,-1.031095 4.049031,-1.617361 6.349641,-1.617361 z m -10.602705,5.331302 16.712738,19.647948 c -1.827916,0.952312 -3.905343,1.497556 -6.110033,1.497556 C 16.685721,38.238402 10.761597,32.314281 10.761597,25 c 0,-2.971425 0.984267,-5.698523 2.6357,-7.907101 z"/><path style="opacity:.4;fill:none;stroke:url(#linearGradient2745);stroke-width:1;stroke-miterlimit:4;stroke-opacity:1;stroke-dasharray:none" id="path8655" d="M 42.500002,24.999344 C 42.500002,35.216942 34.21666,43.5 24.000235,43.5 13.782875,43.5 5.5000003,35.216848 5.5000003,24.999344 c 0,-10.217125 8.2828747,-18.4993439 18.5002347,-18.4993439 10.216425,0 18.499767,8.2822189 18.499767,18.4993439 l 0,0 z"/><path style="opacity:.4;fill:none;stroke:url(#linearGradient2742);stroke-width:1px;stroke-linecap:round;stroke-linejoin:miter;stroke-opacity:1" id="path3270" d="M 17.049914,14.239243 33.752151,33.92599"/></g><g id="symbol-Armed" transform="translate(92.42857,-72.302217)"><path style="opacity:.20454544;color:#000;fill:url(#radialGradient1444);fill-opacity:1;fill-rule:evenodd;stroke:none;stroke-width:1;marker:none;visibility:visible;display:inline;overflow:visible" id="path8660" d="m 40.481863,36.421127 a 15.644737,8.3968941 0 1 1 -31.2894745,0 15.644737,8.3968941 0 1 1 31.2894745,0 z" transform="matrix(1.214466,0,0,0.595458,-6.163846,20.31274)"/><path style="fill:url(#linearGradient2628);fill-opacity:1;fill-rule:nonzero;stroke:#42770c;stroke-width:1;stroke-linecap:round;stroke-linejoin:round;stroke-miterlimit:4;stroke-opacity:1;stroke-dasharray:none;stroke-dashoffset:0;marker:none;visibility:visible;display:inline;overflow:visible" id="path1542" d="m 33.706448,5.4818293 c -0.559734,-0.056806 -1.116221,0.217337 -1.403811,0.7436469 L 20.049307,28.645074 12.17121,22.380993 c -0.701747,-0.383453 -1.577286,-0.136769 -1.960742,0.564978 l -3.5328714,4.535744 c -0.3834475,0.701741 -0.1254891,1.577017 0.5762529,1.960469 0,0 14.3844195,11.880283 14.4021675,11.889074 0.164469,0.08987 0.336465,0.135093 0.511297,0.157184 0.571121,0.07217 1.155595,-0.196162 1.449176,-0.733433 L 40.141725,10.519399 C 40.525176,9.8176549 40.267222,8.9423801 39.565474,8.558928 L 34.26311,5.6492257 C 34.087671,5.553362 33.893026,5.5007637 33.706448,5.4818293 z"/><path style="opacity:.4;fill:none;stroke:url(#linearGradient3406);stroke-width:1;stroke-linecap:round;stroke-linejoin:round;stroke-miterlimit:4;stroke-opacity:1;stroke-dasharray:none;stroke-dashoffset:0;marker:none;visibility:visible;display:inline;overflow:visible" id="path1544" d="M 32.938536,7.2012775 26.730268,18.60791 21.197213,28.668822 c -0.178482,0.181096 -0.123845,0.754094 -0.902701,0.952966 -0.538869,0.137595 -0.636352,-0.06289 -1.204172,-0.427914 l -6.950556,-5.492153 c -0.7733,-0.621665 -0.749753,-0.589365 -1.297288,-0.03737 L 8.0515824,27.18582 c -0.7518117,0.804672 -0.6353589,1.290849 0.3017539,1.891047 0,0 13.0781537,10.780055 13.0949407,10.788373 0.155564,0.085 0.0892,0.114145 0.757862,0.57814 0.428927,0.297637 0.807539,-0.647982 1.083435,-1.15286 L 39.190779,10.274963 C 39.55113,9.6155282 39.523767,9.624421 38.860008,9.2617466 L 34.11801,6.7472827 C 33.434075,6.3758505 33.430508,6.3800895 32.938536,7.2012775 z"/></g><g style="display:inline" id="symbol-Arming" transform="matrix(1.2857213,0,0,1.2857213,18.29593,-68.120293)"><path style="fill:url(#linearGradient3326-4);fill-opacity:1;fill-rule:nonzero;stroke:url(#linearGradient3328-4);stroke-width:.77777356;stroke-linecap:butt;stroke-linejoin:round;stroke-miterlimit:4;stroke-opacity:1;stroke-dasharray:none;stroke-dashoffset:0;marker:none;visibility:visible;display:block;overflow:visible;enable-background:accumulate" id="rect2576" d="m 18.636572,2.5905216 c -0.703275,-0.2569307 -1.495689,0.08705 -1.752619,0.7903248 l -0.600515,1.6437399 c -0.499176,-0.013219 -0.993955,0.00248 -1.484533,0.056512 L 14.072373,3.5181351 C 13.756758,2.8391668 12.960838,2.5483897 12.28187,2.864003 L 8.3651471,4.6602954 C 7.6861782,4.9759083 7.3954033,5.7718319 7.7110151,6.4507982 l 0.726532,1.5629636 C 8.0724464,8.359396 7.744193,8.7441155 7.4266456,9.141602 L 5.8122578,8.5518108 C 5.1089821,8.2948801 4.3165666,8.6388602 4.0596381,9.3421356 L 2.5797984,13.392781 c -0.2569313,0.703275 0.1271272,1.477063 0.8304007,1.733991 l 1.6143878,0.589791 c -0.013469,0.508577 -0.010523,1.014295 0.045789,1.513885 l -1.5629633,0.726533 c -0.6789688,0.315613 -0.9697472,1.111534 -0.654132,1.790502 l 1.8363684,3.898094 c 0.3156123,0.678968 1.1115366,0.969744 1.7905029,0.654132 l 1.5629636,-0.726532 c 0.3402133,0.357549 0.7083491,0.688501 1.0984877,1.000178 l -0.6005147,1.64374 c -0.2569313,0.703275 0.1271291,1.477064 0.8304008,1.733991 l 4.0212927,1.469116 c 0.703276,0.256931 1.466338,-0.09777 1.723267,-0.801048 l 0.600515,-1.64374 c 0.508577,0.01347 1.014295,0.01052 1.513885,-0.04579 l 0.726532,1.562963 c 0.315614,0.678968 1.111534,0.969745 1.790502,0.654132 l 3.916723,-1.796292 c 0.678969,-0.315613 0.969742,-1.111538 0.654132,-1.790503 l -0.745161,-1.603039 c 0.357549,-0.340214 0.6885,-0.708349 1.000178,-1.098488 l 1.64374,0.600515 c 0.703276,0.25693 1.466338,-0.09778 1.723267,-0.801049 l 1.47984,-4.050645 c 0.256931,-0.703275 -0.09778,-1.466339 -0.801048,-1.723268 l -1.64374,-0.600514 c 0.01322,-0.499176 -0.0025,-0.993955 -0.05651,-1.484533 l 1.60304,-0.745162 C 29.20091,13.73813 29.491686,12.942208 29.176073,12.26324 L 27.339704,8.365146 C 27.024092,7.6861784 26.228168,7.3954 25.549202,7.711014 L 23.986239,8.4375465 C 23.640605,8.0724458 23.255886,7.7441924 22.858399,7.4266449 L 23.458914,5.782905 C 23.715845,5.0796306 23.361136,4.3165668 22.657865,4.0596378 L 18.636572,2.5905216 z M 17.20103,12.71252 c 1.81469,0.662968 2.74942,2.67382 2.086452,4.48851 -0.662969,1.814689 -2.673821,2.749419 -4.48851,2.086451 -1.814691,-0.662969 -2.74942,-2.673821 -2.086452,-4.48851 0.662968,-1.81469 2.673821,-2.74942 4.48851,-2.086451 z"/><path style="opacity:.05;fill:#000;fill-opacity:1;stroke:none" id="path3315" d="m 16.000001,7.9999996 c -4.411273,0 -7.9999985,3.5887274 -7.9999985,8.0000004 0,4.411274 3.5887255,8 7.9999985,8 C 20.411274,24 24,20.411274 24,16 24,11.588727 20.411274,7.9999996 16.000001,7.9999996 z m 0,3.6923094 c 2.377844,0 4.307693,1.929846 4.307693,4.307691 0,2.377847 -1.929849,4.307693 -4.307693,4.307693 -2.377846,0 -4.307691,-1.929846 -4.307691,-4.307693 0,-2.377845 1.929845,-4.307691 4.307691,-4.307691 z"/><path style="fill:none;stroke:url(#linearGradient3339);stroke-width:.77777356;stroke-miterlimit:4;stroke-dasharray:none" id="path28" d="m 16.000001,7.6206906 c -4.620353,0 -8.3793085,3.7589574 -8.3793085,8.3793084 0,4.620352 3.7589555,8.37931 8.3793085,8.37931 4.620353,0 8.379309,-3.758958 8.379309,-8.37931 0,-4.620351 -3.758956,-8.3793084 -8.379309,-8.3793084 z"/></g></g></svg>