<svg xmlns="http://www.w3.org/2000/svg" xmlns:svg="http://www.w3.org/2000/svg" xmlns:xlink="http://www.w3.org/1999/xlink" style="display:inline" id="svg10068" width="229.278" height="80.828" version="1.1"><defs id="defs10070"><linearGradient id="linearGradient5451"><stop style="stop-color:#eb7d7d;stop-opacity:1" id="stop5453" offset="0"/><stop style="stop-color:#e43e3e;stop-opacity:1" id="stop5455" offset=".5"/><stop style="stop-color:#d37a7a;stop-opacity:1" id="stop5457" offset="1"/></linearGradient><linearGradient id="linearGradient5423"><stop style="stop-color:#839472;stop-opacity:1" id="stop5425" offset="0"/><stop style="stop-color:#6a884d;stop-opacity:1" id="stop5427" offset=".16"/><stop style="stop-color:#3d5a22;stop-opacity:1" id="stop5429" offset=".66"/><stop style="stop-color:#8a9183;stop-opacity:1" id="stop5431" offset="1"/></linearGradient><linearGradient id="linearGradient5367"><stop style="stop-color:#8abc59;stop-opacity:1" id="stop5369" offset="0"/><stop style="stop-color:#58a30e;stop-opacity:1" id="stop5371" offset=".16"/><stop style="stop-color:#366b04;stop-opacity:1" id="stop5373" offset=".66"/><stop style="stop-color:#87ea25;stop-opacity:1" id="stop5375" offset="1"/></linearGradient><marker style="overflow:visible" id="Arrow2Sstart" orient="auto" refX="0" refY="0"><path style="font-size:12px;fill-rule:evenodd;stroke-width:.625;stroke-linejoin:round" id="path4640" d="M 8.7185878,4.0337352 -2.2072895,0.01601326 8.7185884,-4.0017078 c -1.7454984,2.3720609 -1.7354408,5.6174519 -6e-7,8.035443 z" transform="matrix(0.3,0,0,0.3,-0.69,0)"/></marker><linearGradient id="linearGradient5318" x1="-29.837" x2="-29.837" y1="285.06" y2="342.606" gradientTransform="matrix(2.2532936,0,0,2.206809,446.89077,-285.33499)" gradientUnits="userSpaceOnUse" xlink:href="#linearGradient8928"/><linearGradient id="linearGradient8928"><stop id="stop8930" offset="0" style="stop-color:#fff;stop-opacity:.89156628"/><stop id="stop8932" offset="1" style="stop-color:#fff;stop-opacity:0"/></linearGradient><linearGradient id="linearGradient7065"><stop style="stop-color:#000;stop-opacity:1" id="stop7067" offset="0"/><stop id="stop7071" offset=".5" style="stop-color:#373737;stop-opacity:1"/><stop style="stop-color:#000;stop-opacity:1" id="stop7075" offset="1"/></linearGradient><linearGradient id="linearGradient3134"><stop id="stop3136" offset="0" style="stop-color:#000;stop-opacity:1"/><stop style="stop-color:#464646;stop-opacity:1" id="stop3146" offset=".25"/><stop style="stop-color:#373737;stop-opacity:1" id="stop3142" offset=".5"/><stop id="stop3144" offset=".75" style="stop-color:#626262;stop-opacity:1"/><stop id="stop3138" offset="1" style="stop-color:#000;stop-opacity:1"/></linearGradient><linearGradient id="linearGradient3195"><stop style="stop-color:#000;stop-opacity:1" id="stop3197" offset="0"/><stop id="stop3199" offset=".25" style="stop-color:#464646;stop-opacity:1"/><stop id="stop3201" offset=".5" style="stop-color:#373737;stop-opacity:1"/><stop style="stop-color:#626262;stop-opacity:1" id="stop3203" offset=".75"/><stop style="stop-color:#000;stop-opacity:1" id="stop3205" offset="1"/></linearGradient><linearGradient id="linearGradient5100"><stop id="stop5102" offset="0" style="stop-color:#5e422c;stop-opacity:1"/><stop id="stop5104" offset="1" style="stop-color:#d5bba6;stop-opacity:1"/></linearGradient><linearGradient id="linearGradient7087"><stop style="stop-color:#b66100;stop-opacity:1" id="stop7089" offset="0"/><stop id="stop7091" offset=".25" style="stop-color:#ffa31b;stop-opacity:1"/><stop id="stop7093" offset=".5" style="stop-color:#a25600;stop-opacity:1"/><stop style="stop-color:#ffab49;stop-opacity:1" id="stop7095" offset=".75"/><stop style="stop-color:#8d4b00;stop-opacity:1" id="stop7097" offset="1"/></linearGradient><linearGradient id="linearGradient8125"><stop id="stop8127" offset="0" style="stop-color:#777;stop-opacity:1"/><stop style="stop-color:#e6e6e6;stop-opacity:1" id="stop8131" offset=".5"/><stop id="stop8133" offset=".75" style="stop-color:#777;stop-opacity:1"/><stop id="stop8129" offset="1" style="stop-color:#fff;stop-opacity:1"/></linearGradient><linearGradient id="linearGradient8108"><stop style="stop-color:#777;stop-opacity:1" id="stop8110" offset="0"/><stop style="stop-color:#fff;stop-opacity:1" id="stop8112" offset="1"/></linearGradient><linearGradient id="linearGradient10109"><stop id="stop10111" offset="0" style="stop-color:#fff;stop-opacity:0"/><stop id="stop10113" offset="1" style="stop-color:#fff;stop-opacity:1"/></linearGradient><linearGradient id="linearGradient3443" x1="133.81" x2="132.275" y1="42.69" y2="32.27" gradientUnits="userSpaceOnUse" xlink:href="#linearGradient10101"/><linearGradient id="linearGradient10101"><stop style="stop-color:#fff;stop-opacity:1" id="stop10103" offset="0"/><stop style="stop-color:#fff;stop-opacity:0" id="stop10105" offset="1"/></linearGradient><linearGradient id="linearGradient5224-4"><stop id="stop5226-8" offset="0" style="stop-color:#000;stop-opacity:1"/><stop id="stop5228-8" offset="1" style="stop-color:#000;stop-opacity:0"/></linearGradient><filter id="filter5296-2" width="1.196" height="1.668" x="-.098" y="-.334" color-interpolation-filters="sRGB"><feGaussianBlur id="feGaussianBlur5298-4" stdDeviation=".818"/></filter><linearGradient id="linearGradient5226-1"><stop id="stop5229-7" offset="0" style="stop-color:#8abc59;stop-opacity:1"/><stop id="stop5245-1" offset=".16" style="stop-color:#58a30e;stop-opacity:1"/><stop id="stop5235-1" offset=".66" style="stop-color:#366b04;stop-opacity:1"/><stop id="stop5231-5" offset="1" style="stop-color:#87ea25;stop-opacity:1"/></linearGradient><linearGradient id="linearGradient5300-7"><stop id="stop5302-6" offset="0" style="stop-color:#fff;stop-opacity:1"/><stop id="stop5304-1" offset="1" style="stop-color:#fff;stop-opacity:0"/></linearGradient><linearGradient id="linearGradient5237-2"><stop id="stop5239-3" offset="0" style="stop-color:#fff;stop-opacity:1"/><stop id="stop5247-2" offset=".5" style="stop-color:#757575;stop-opacity:1"/><stop id="stop5241-2" offset="1" style="stop-color:#9c9c9c;stop-opacity:1"/></linearGradient><radialGradient id="radialGradient4398" cx="14.5" cy="26.688" r="10" fx="14.5" fy="26.688" gradientTransform="matrix(1,0,0,0.29375,0,18.848047)" gradientUnits="userSpaceOnUse" xlink:href="#linearGradient5224-4"/><radialGradient id="radialGradient4400" cx="14.5" cy="26.688" r="10" fx="14.5" fy="26.688" gradientTransform="matrix(1,0,0,0.29375,0,18.848047)" gradientUnits="userSpaceOnUse" xlink:href="#linearGradient5224-4"/><radialGradient id="radialGradient4402" cx="29.393" cy="18.898" r="29.7" fx="29.393" fy="18.898" gradientTransform="matrix(1.5354369,0,0,1.5485894,-15.737913,-10.36738)" gradientUnits="userSpaceOnUse" xlink:href="#linearGradient5226-1"/><radialGradient id="radialGradient4404" cx="29.774" cy="7.092" r="25.38" fx="29.774" fy="7.092" gradientTransform="matrix(2.2469896,0,0,2.2469896,-37.128341,-8.8439229)" gradientUnits="userSpaceOnUse" xlink:href="#linearGradient5300-7"/><radialGradient id="radialGradient4514" cx="14.5" cy="26.688" r="10" fx="14.5" fy="26.688" gradientTransform="matrix(1,0,0,0.29375,0,18.848047)" gradientUnits="userSpaceOnUse" xlink:href="#linearGradient5224-4"/><radialGradient id="radialGradient4516" cx="14.5" cy="26.688" r="10" fx="14.5" fy="26.688" gradientTransform="matrix(1,0,0,0.29375,0,18.848047)" gradientUnits="userSpaceOnUse" xlink:href="#linearGradient5224-4"/><radialGradient id="radialGradient4518" cx="29.393" cy="18.898" r="29.7" fx="29.393" fy="18.898" gradientTransform="matrix(1.5354369,0,0,1.5485894,-15.737913,-10.36738)" gradientUnits="userSpaceOnUse" xlink:href="#linearGradient5423"/><radialGradient id="radialGradient4520" cx="29.774" cy="7.092" r="25.38" fx="29.774" fy="7.092" gradientTransform="matrix(2.2469896,0,0,2.2469896,-37.128341,-8.8439229)" gradientUnits="userSpaceOnUse" xlink:href="#linearGradient5300-7"/><radialGradient id="radialGradient4814" cx="14.5" cy="26.688" r="10" fx="14.5" fy="26.688" gradientTransform="matrix(1,0,0,0.29375,0,18.848047)" gradientUnits="userSpaceOnUse" xlink:href="#linearGradient5224-4"/><radialGradient id="radialGradient4816" cx="14.5" cy="26.688" r="10" fx="14.5" fy="26.688" gradientTransform="matrix(1,0,0,0.29375,0,18.848047)" gradientUnits="userSpaceOnUse" xlink:href="#linearGradient5224-4"/><radialGradient id="radialGradient4818" cx="29.393" cy="18.898" r="29.7" fx="29.393" fy="18.898" gradientTransform="matrix(1.5354369,0,0,1.5485894,-15.737913,-10.36738)" gradientUnits="userSpaceOnUse" xlink:href="#linearGradient5237-2"/><radialGradient id="radialGradient4820" cx="29.774" cy="7.092" r="25.38" fx="29.774" fy="7.092" gradientTransform="matrix(2.2469896,0,0,2.2469896,-37.128341,-8.8439229)" gradientUnits="userSpaceOnUse" xlink:href="#linearGradient5300-7"/><radialGradient id="radialGradient5406" cx="14.5" cy="26.688" r="10" fx="14.5" fy="26.688" gradientTransform="matrix(1,0,0,0.29375,0,18.848047)" gradientUnits="userSpaceOnUse" xlink:href="#linearGradient5224-4"/><radialGradient id="radialGradient5408" cx="14.5" cy="26.688" r="10" fx="14.5" fy="26.688" gradientTransform="matrix(1,0,0,0.29375,0,18.848047)" gradientUnits="userSpaceOnUse" xlink:href="#linearGradient5224-4"/><radialGradient id="radialGradient5410" cx="29.393" cy="18.898" r="29.7" fx="29.393" fy="18.898" gradientTransform="matrix(1.5354369,0,0,1.5485894,-15.737913,-10.36738)" gradientUnits="userSpaceOnUse" xlink:href="#linearGradient5226-1"/><radialGradient id="radialGradient5412" cx="29.774" cy="7.092" r="25.38" fx="29.774" fy="7.092" gradientTransform="matrix(2.2469896,0,0,2.2469896,-37.128341,-8.8439229)" gradientUnits="userSpaceOnUse" xlink:href="#linearGradient5300-7"/><radialGradient id="radialGradient5443" cx="14.5" cy="26.688" r="10" fx="14.5" fy="26.688" gradientTransform="matrix(1,0,0,0.29375,0,18.848047)" gradientUnits="userSpaceOnUse" xlink:href="#linearGradient5224-4"/><radialGradient id="radialGradient5445" cx="14.5" cy="26.688" r="10" fx="14.5" fy="26.688" gradientTransform="matrix(1,0,0,0.29375,0,18.848047)" gradientUnits="userSpaceOnUse" xlink:href="#linearGradient5224-4"/><radialGradient id="radialGradient5447" cx="29.393" cy="18.898" r="29.7" fx="29.393" fy="18.898" gradientTransform="matrix(1.5354369,0,0,1.5485894,-15.737913,-10.36738)" gradientUnits="userSpaceOnUse" xlink:href="#linearGradient5451"/><radialGradient id="radialGradient5449" cx="29.774" cy="7.092" r="25.38" fx="29.774" fy="7.092" gradientTransform="matrix(2.2469896,0,0,2.2469896,-37.128341,-8.8439229)" gradientUnits="userSpaceOnUse" xlink:href="#linearGradient5300-7"/><radialGradient id="radialGradient3814" cx="14.5" cy="26.688" r="10" fx="14.5" fy="26.688" gradientTransform="matrix(1,0,0,0.29375,0,18.848047)" gradientUnits="userSpaceOnUse" xlink:href="#linearGradient5224-4"/><radialGradient id="radialGradient3816" cx="14.5" cy="26.688" r="10" fx="14.5" fy="26.688" gradientTransform="matrix(1,0,0,0.29375,0,18.848047)" gradientUnits="userSpaceOnUse" xlink:href="#linearGradient5224-4"/><radialGradient id="radialGradient3818" cx="29.393" cy="18.898" r="29.7" fx="29.393" fy="18.898" gradientTransform="matrix(1.5354369,0,0,1.5485894,-15.737913,-10.36738)" gradientUnits="userSpaceOnUse" xlink:href="#linearGradient5237-2"/><radialGradient id="radialGradient3820" cx="29.774" cy="7.092" r="25.38" fx="29.774" fy="7.092" gradientTransform="matrix(2.2469896,0,0,2.2469896,-37.128341,-8.8439229)" gradientUnits="userSpaceOnUse" xlink:href="#linearGradient5300-7"/><radialGradient id="radialGradient3856" cx="14.5" cy="26.688" r="10" fx="14.5" fy="26.688" gradientTransform="matrix(1,0,0,0.29375,0,18.848047)" gradientUnits="userSpaceOnUse" xlink:href="#linearGradient5224-4"/><radialGradient id="radialGradient3858" cx="14.5" cy="26.688" r="10" fx="14.5" fy="26.688" gradientTransform="matrix(1,0,0,0.29375,0,18.848047)" gradientUnits="userSpaceOnUse" xlink:href="#linearGradient5224-4"/><radialGradient id="radialGradient3860" cx="29.393" cy="18.898" r="29.7" fx="29.393" fy="18.898" gradientTransform="matrix(1.5354369,0,0,1.5485894,-15.737913,-10.36738)" gradientUnits="userSpaceOnUse" xlink:href="#linearGradient5237-2"/><radialGradient id="radialGradient3862" cx="29.774" cy="7.092" r="25.38" fx="29.774" fy="7.092" gradientTransform="matrix(2.2469896,0,0,2.2469896,-37.128341,-8.8439229)" gradientUnits="userSpaceOnUse" xlink:href="#linearGradient5300-7"/><radialGradient id="radialGradient3915" cx="14.5" cy="26.688" r="10" fx="14.5" fy="26.688" gradientTransform="matrix(1,0,0,0.29375,0,18.848047)" gradientUnits="userSpaceOnUse" xlink:href="#linearGradient5224-4"/><radialGradient id="radialGradient3917" cx="14.5" cy="26.688" r="10" fx="14.5" fy="26.688" gradientTransform="matrix(1,0,0,0.29375,0,18.848047)" gradientUnits="userSpaceOnUse" xlink:href="#linearGradient5224-4"/><radialGradient id="radialGradient3919" cx="29.393" cy="18.898" r="29.7" fx="29.393" fy="18.898" gradientTransform="matrix(1.5354369,0,0,1.5485894,-15.737913,-10.36738)" gradientUnits="userSpaceOnUse" xlink:href="#linearGradient5237-2"/><radialGradient id="radialGradient3921" cx="29.774" cy="7.092" r="25.38" fx="29.774" fy="7.092" gradientTransform="matrix(2.2469896,0,0,2.2469896,-37.128341,-8.8439229)" gradientUnits="userSpaceOnUse" xlink:href="#linearGradient5300-7"/><radialGradient id="radialGradient4237" cx="14.5" cy="26.688" r="10" fx="14.5" fy="26.688" gradientTransform="matrix(1,0,0,0.29375,0,18.848047)" gradientUnits="userSpaceOnUse" xlink:href="#linearGradient5224-4"/><radialGradient id="radialGradient4239" cx="14.5" cy="26.688" r="10" fx="14.5" fy="26.688" gradientTransform="matrix(1,0,0,0.29375,0,18.848047)" gradientUnits="userSpaceOnUse" xlink:href="#linearGradient5224-4"/><radialGradient id="radialGradient4241" cx="29.393" cy="18.898" r="29.7" fx="29.393" fy="18.898" gradientTransform="matrix(1.5354369,0,0,1.5485894,-15.737913,-10.36738)" gradientUnits="userSpaceOnUse" xlink:href="#linearGradient5237-2"/><radialGradient id="radialGradient4243" cx="29.774" cy="7.092" r="25.38" fx="29.774" fy="7.092" gradientTransform="matrix(2.2469896,0,0,2.2469896,-37.128341,-8.8439229)" gradientUnits="userSpaceOnUse" xlink:href="#linearGradient5300-7"/><radialGradient id="radialGradient3197" cx="14.5" cy="26.688" r="10" fx="14.5" fy="26.688" gradientTransform="matrix(1,0,0,0.29375,0,18.848047)" gradientUnits="userSpaceOnUse" xlink:href="#linearGradient5224-4"/><radialGradient id="radialGradient3199" cx="14.5" cy="26.688" r="10" fx="14.5" fy="26.688" gradientTransform="matrix(1,0,0,0.29375,0,18.848047)" gradientUnits="userSpaceOnUse" xlink:href="#linearGradient5224-4"/><radialGradient id="radialGradient3201" cx="29.393" cy="18.898" r="29.7" fx="29.393" fy="18.898" gradientTransform="matrix(1.5354369,0,0,1.5485894,-15.737913,-10.36738)" gradientUnits="userSpaceOnUse" xlink:href="#linearGradient5237-2"/><radialGradient id="radialGradient3203" cx="29.774" cy="7.092" r="25.38" fx="29.774" fy="7.092" gradientTransform="matrix(2.2469896,0,0,2.2469896,-37.128341,-8.8439229)" gradientUnits="userSpaceOnUse" xlink:href="#linearGradient5300-7"/><radialGradient id="radialGradient3231" cx="14.5" cy="26.688" r="10" fx="14.5" fy="26.688" gradientTransform="matrix(1,0,0,0.29375,0,18.848047)" gradientUnits="userSpaceOnUse" xlink:href="#linearGradient5224-4"/><radialGradient id="radialGradient3233" cx="14.5" cy="26.688" r="10" fx="14.5" fy="26.688" gradientTransform="matrix(1,0,0,0.29375,0,18.848047)" gradientUnits="userSpaceOnUse" xlink:href="#linearGradient5224-4"/><radialGradient id="radialGradient3235" cx="29.393" cy="18.898" r="29.7" fx="29.393" fy="18.898" gradientTransform="matrix(1.5354369,0,0,1.5485894,-15.737913,-10.36738)" gradientUnits="userSpaceOnUse" xlink:href="#linearGradient5237-2"/><radialGradient id="radialGradient3237" cx="29.774" cy="7.092" r="25.38" fx="29.774" fy="7.092" gradientTransform="matrix(2.2469896,0,0,2.2469896,-37.128341,-8.8439229)" gradientUnits="userSpaceOnUse" xlink:href="#linearGradient5300-7"/></defs><metadata id="metadata10073"/><g id="g2932" transform="translate(-205.8687,-331.45166)" style="display:inline"><g id="background"><rect id="rect2936" width="225.916" height="77.466" x="207.55" y="333.133" ry="5.717" style="fill:#453e3e;fill-opacity:1;stroke:#000;stroke-width:3.36186838;stroke-miterlimit:10;stroke-opacity:1;stroke-dasharray:none;stroke-dashoffset:0"/><rect style="fill:#332d2d;fill-opacity:1;stroke:none" id="bargraph" width="205.458" height="64.785" x="217.778" y="339.473" ry="4.781"/></g></g><g style="display:inline" id="layer1"><g id="symbol" transform="matrix(2.0683135,0,0,2.0683135,-162.1788,206.61155)"><path id="path4798" d="m 24.5,26.6875 c 0,1.622336 -4.477153,2.9375 -10,2.9375 -5.5228475,0 -10,-1.315164 -10,-2.9375 0,-1.622336 4.4771525,-2.9375 10,-2.9375 5.522847,0 10,1.315164 10,2.9375 z" transform="matrix(1.3565115,0,0,1.3564842,148.6163,-105.84566)" style="opacity:.53012049;color:#000;fill:url(#radialGradient4814);fill-opacity:1;fill-rule:nonzero;stroke:none;stroke-width:1;marker:none;visibility:visible;display:inline;overflow:visible;filter:url(#filter5296-2);enable-background:accumulate"/><path id="path4800" d="m 24.5,26.6875 c 0,1.622336 -4.477153,2.9375 -10,2.9375 -5.5228475,0 -10,-1.315164 -10,-2.9375 0,-1.622336 4.4771525,-2.9375 10,-2.9375 5.522847,0 10,1.315164 10,2.9375 z" transform="matrix(0.8476709,0,0,0.8476539,155.99448,-91.479567)" style="opacity:.80120479;color:#000;fill:url(#radialGradient4816);fill-opacity:1;fill-rule:nonzero;stroke:none;stroke-width:1;marker:none;visibility:visible;display:inline;overflow:visible;filter:url(#filter5296-2);enable-background:accumulate"/><path id="path4802" d="m 58.403591,29.207693 c 0,16.022297 -12.988638,29.010935 -29.010935,29.010935 -16.022297,0 -29.0109345,-12.988638 -29.0109345,-29.010935 0,-16.022297 12.9886375,-29.01093473 29.0109345,-29.01093473 16.022297,0 29.010935,12.98863773 29.010935,29.01093473 z" transform="matrix(0.4552142,0,0,0.4578395,154.92379,-94.080092)" style="fill:url(#radialGradient4818);fill-opacity:1;fill-rule:evenodd;stroke:#d4d0d0;stroke-width:2.19046068;stroke-linecap:butt;stroke-linejoin:miter;stroke-miterlimit:4;stroke-opacity:1;stroke-dasharray:none"/><path id="path4804" d="m 53.950159,30.352861 c 0,13.351915 -10.823865,24.17578 -24.175779,24.17578 -13.351915,0 -24.1757796,-10.823865 -24.1757796,-24.17578 0,-13.351914 10.8238646,-24.1757789 24.1757796,-24.1757789 13.351914,0 24.175779,10.8238649 24.175779,24.1757789 z" transform="matrix(0.5041973,0,0,0.5044661,153.2742,-96.019639)" style="fill:none;stroke:url(#radialGradient4820);stroke-width:1.98282218;stroke-linecap:round;stroke-linejoin:round;stroke-miterlimit:4;stroke-opacity:1;stroke-dasharray:none;stroke-dashoffset:0"/></g><rect id="value" width="132.669" height="13.324" x="15.426" y="33.752" ry="3.447" style="opacity:.98000004;fill:#fff;fill-opacity:1;stroke:#e31717;stroke-width:3.18836617;stroke-linecap:butt;stroke-linejoin:miter;stroke-miterlimit:10;stroke-opacity:1;stroke-dasharray:none;stroke-dashoffset:0"/><g id="symbol-Stabilized1" transform="matrix(1.2181818,0,0,1.2181818,-416.7342,39.213763)"><g style="display:inline" id="g3804" transform="matrix(1.6946172,0,0,1.6946172,90.69312,69.91641)"><path id="path3806" d="m 24.5,26.6875 c 0,1.622336 -4.477153,2.9375 -10,2.9375 -5.5228475,0 -10,-1.315164 -10,-2.9375 0,-1.622336 4.4771525,-2.9375 10,-2.9375 5.522847,0 10,1.315164 10,2.9375 z" transform="matrix(1.3565115,0,0,1.3564842,148.6163,-105.84566)" style="opacity:.53012049;color:#000;fill:url(#radialGradient3814);fill-opacity:1;fill-rule:nonzero;stroke:none;stroke-width:1;marker:none;visibility:visible;display:inline;overflow:visible;filter:url(#filter5296-2);enable-background:accumulate"/><path id="path3808" d="m 24.5,26.6875 c 0,1.622336 -4.477153,2.9375 -10,2.9375 -5.5228475,0 -10,-1.315164 -10,-2.9375 0,-1.622336 4.4771525,-2.9375 10,-2.9375 5.522847,0 10,1.315164 10,2.9375 z" transform="matrix(0.8476709,0,0,0.8476539,155.99448,-91.479567)" style="opacity:.80120479;color:#000;fill:url(#radialGradient3816);fill-opacity:1;fill-rule:nonzero;stroke:none;stroke-width:1;marker:none;visibility:visible;display:inline;overflow:visible;filter:url(#filter5296-2);enable-background:accumulate"/><path id="path3810" d="m 58.403591,29.207693 c 0,16.022297 -12.988638,29.010935 -29.010935,29.010935 -16.022297,0 -29.0109345,-12.988638 -29.0109345,-29.010935 0,-16.022297 12.9886375,-29.01093473 29.0109345,-29.01093473 16.022297,0 29.010935,12.98863773 29.010935,29.01093473 z" transform="matrix(0.4552142,0,0,0.4578395,154.92379,-94.080092)" style="fill:url(#radialGradient3818);fill-opacity:1;fill-rule:evenodd;stroke:#d4d0d0;stroke-width:2.19046068;stroke-linecap:butt;stroke-linejoin:miter;stroke-miterlimit:4;stroke-opacity:1;stroke-dasharray:none"/><path id="path3812" d="m 53.950159,30.352861 c 0,13.351915 -10.823865,24.17578 -24.175779,24.17578 -13.351915,0 -24.1757796,-10.823865 -24.1757796,-24.17578 0,-13.351914 10.8238646,-24.1757789 24.1757796,-24.1757789 13.351914,0 24.175779,10.8238649 24.175779,24.1757789 z" transform="matrix(0.5041973,0,0,0.5044661,153.2742,-96.019639)" style="fill:none;stroke:url(#radialGradient3820);stroke-width:1.98282218;stroke-linecap:round;stroke-linejoin:round;stroke-miterlimit:4;stroke-opacity:1;stroke-dasharray:none;stroke-dashoffset:0"/></g><g style="stroke-width:5.32037735;stroke-miterlimit:4;stroke-dasharray:none" id="g3796" transform="matrix(0.33832187,0,0,0.33832187,410.06766,-39.187259)"><path style="opacity:.98000004;fill:none;stroke:#ff4e34;stroke-width:5.56557703;stroke-linecap:butt;stroke-linejoin:miter;stroke-miterlimit:4;stroke-opacity:1;stroke-dasharray:none;stroke-dashoffset:0;display:inline" id="path3782" d="m -124.28571,-85.600701 c 0,-3.155913 9.5939,-5.714285 21.42857,-5.714285 11.834674,0 21.428572,2.558373 21.428572,5.714286" transform="matrix(0.9559435,0,0,0.9559435,-2.74581,-3.77127)"/><path id="path2993" d="m -51.42857,-85.243561 c 0,6.50907 -22.225864,11.785714 -49.64286,11.785714 -27.41699,0 -49.64285,-5.276644 -49.64285,-11.785714 0,-6.50907 22.22586,-11.785714 49.64285,-11.785714 27.416996,0 49.64286,5.276644 49.64286,11.785714 z" transform="translate(0,-0.35714)" style="opacity:.98000004;fill:none;stroke:#ff4e34;stroke-width:5.32037735;stroke-linecap:butt;stroke-linejoin:miter;stroke-miterlimit:4;stroke-opacity:1;stroke-dasharray:none;stroke-dashoffset:0;display:inline"/><path id="path2991" d="m -101.07143,-37.895278 0,-96.382562" style="fill:none;stroke:#ff4e34;stroke-width:5.32037735;stroke-linecap:butt;stroke-linejoin:miter;stroke-miterlimit:4;stroke-opacity:1;stroke-dasharray:none"/><path id="path2995" d="m -81.428568,-85.6007 c 0,3.155913 -9.593898,5.714285 -21.428572,5.714285 -11.83467,0 -21.42857,-2.558372 -21.42857,-5.714285 0,0 0,-10e-7 0,-10e-7" transform="matrix(0.9559435,0,0,0.9559435,-2.7458124,-3.7712673)" style="opacity:.98000004;fill:none;stroke:#ff4e34;stroke-width:5.56557703;stroke-linecap:butt;stroke-linejoin:miter;stroke-miterlimit:4;stroke-opacity:1;stroke-dasharray:none;stroke-dashoffset:0"/><path id="path2997" d="m -81.42857,-85.6007 c 0,21.6969 -9.114203,39.285713 -20.35714,39.285713 -11.24294,0 -20.35715,-17.588813 -20.35715,-39.285713 0,-21.6969 9.11421,-39.28571 20.35715,-39.28571 11.242937,0 20.35714,17.58881 20.35714,39.28571 z" transform="matrix(1.0062564,0,0,1,1.3510971,0)" style="opacity:.98000004;fill:none;stroke:#ff4e34;stroke-width:5.30381203;stroke-linecap:butt;stroke-linejoin:miter;stroke-miterlimit:4;stroke-opacity:1;stroke-dasharray:none;stroke-dashoffset:0"/><path style="opacity:.98000004;fill:none;stroke:#ff4e34;stroke-width:5.32037735;stroke-linecap:butt;stroke-linejoin:miter;stroke-miterlimit:4;stroke-opacity:1;stroke-dasharray:none;stroke-dashoffset:0" id="path3791" d="m -51.42857,-85.243561 c 0,6.50907 -22.225864,11.785714 -49.64286,11.785714 -27.41699,0 -49.64285,-5.276644 -49.64285,-11.785714 0,0 0,0 0,0" transform="translate(0,-0.35713959)"/></g></g><g id="symbol-Manual" transform="matrix(1.2181818,0,0,1.2181818,-114.36834,91.421566)"><g id="g3846" transform="matrix(1.6946172,0,0,1.6946172,-96.936102,27.05926)"><path id="path3848" d="m 24.5,26.6875 c 0,1.622336 -4.477153,2.9375 -10,2.9375 -5.5228475,0 -10,-1.315164 -10,-2.9375 0,-1.622336 4.4771525,-2.9375 10,-2.9375 5.522847,0 10,1.315164 10,2.9375 z" transform="matrix(1.3565115,0,0,1.3564842,148.6163,-105.84566)" style="opacity:.53012049;color:#000;fill:url(#radialGradient3856);fill-opacity:1;fill-rule:nonzero;stroke:none;stroke-width:1;marker:none;visibility:visible;display:inline;overflow:visible;filter:url(#filter5296-2);enable-background:accumulate"/><path id="path3850" d="m 24.5,26.6875 c 0,1.622336 -4.477153,2.9375 -10,2.9375 -5.5228475,0 -10,-1.315164 -10,-2.9375 0,-1.622336 4.4771525,-2.9375 10,-2.9375 5.522847,0 10,1.315164 10,2.9375 z" transform="matrix(0.8476709,0,0,0.8476539,155.99448,-91.479567)" style="opacity:.80120479;color:#000;fill:url(#radialGradient3858);fill-opacity:1;fill-rule:nonzero;stroke:none;stroke-width:1;marker:none;visibility:visible;display:inline;overflow:visible;filter:url(#filter5296-2);enable-background:accumulate"/><path id="path3852" d="m 58.403591,29.207693 c 0,16.022297 -12.988638,29.010935 -29.010935,29.010935 -16.022297,0 -29.0109345,-12.988638 -29.0109345,-29.010935 0,-16.022297 12.9886375,-29.01093473 29.0109345,-29.01093473 16.022297,0 29.010935,12.98863773 29.010935,29.01093473 z" transform="matrix(0.4552142,0,0,0.4578395,154.92379,-94.080092)" style="fill:url(#radialGradient3860);fill-opacity:1;fill-rule:evenodd;stroke:#d4d0d0;stroke-width:2.19046068;stroke-linecap:butt;stroke-linejoin:miter;stroke-miterlimit:4;stroke-opacity:1;stroke-dasharray:none"/><path id="path3854" d="m 53.950159,30.352861 c 0,13.351915 -10.823865,24.17578 -24.175779,24.17578 -13.351915,0 -24.1757796,-10.823865 -24.1757796,-24.17578 0,-13.351914 10.8238646,-24.1757789 24.1757796,-24.1757789 13.351914,0 24.175779,10.8238649 24.175779,24.1757789 z" transform="matrix(0.5041973,0,0,0.5044661,153.2742,-96.019639)" style="fill:none;stroke:url(#radialGradient3862);stroke-width:1.98282218;stroke-linecap:round;stroke-linejoin:round;stroke-miterlimit:4;stroke-opacity:1;stroke-dasharray:none;stroke-dashoffset:0"/></g><g style="stroke-width:2.7462945;stroke-miterlimit:4;stroke-dasharray:none" id="g3882" transform="matrix(0.72825401,0,0,0.72825401,0.26819761,-37.594811)"><path style="opacity:.98000004;fill:none;stroke:#ff4e34;stroke-width:2.7462945;stroke-linecap:butt;stroke-linejoin:miter;stroke-miterlimit:4;stroke-opacity:1;stroke-dasharray:none;stroke-dashoffset:0" id="path3864" d="m 263.57143,-113.1007 c 0,3.35316 -2.55837,6.07143 -5.71428,6.07143 -3.15592,0 -5.71429,-2.71827 -5.71429,-6.07143 0,-3.35316 2.55837,-6.07143 5.71429,-6.07143 3.15591,0 5.71428,2.71827 5.71428,6.07143 z"/><path id="path3872" d="m 257.85715,-106.32128 0,16.203659" style="fill:none;stroke:#ff4e34;stroke-width:2.7462945;stroke-linecap:butt;stroke-linejoin:miter;stroke-miterlimit:4;stroke-opacity:1;stroke-dasharray:none"/><path id="path3874" d="m 249.76021,-82.544001 7.95495,-7.954951" style="fill:none;stroke:#ff4e34;stroke-width:2.7462945;stroke-linecap:butt;stroke-linejoin:miter;stroke-miterlimit:4;stroke-opacity:1;stroke-dasharray:none"/><path style="fill:none;stroke:#ff4e34;stroke-width:2.7462945;stroke-linecap:butt;stroke-linejoin:miter;stroke-miterlimit:4;stroke-opacity:1;stroke-dasharray:none" id="path3876" d="m 265.71516,-82.544001 -7.95495,-7.954951"/><path id="path3878" d="m 257.85715,-98.624972 8.92824,-2.711038" style="fill:none;stroke:#ff4e34;stroke-width:2.7462945;stroke-linecap:butt;stroke-linejoin:miter;stroke-miterlimit:4;stroke-opacity:1;stroke-dasharray:none"/><path style="fill:none;stroke:#ff4e34;stroke-width:2.7462945;stroke-linecap:butt;stroke-linejoin:miter;stroke-miterlimit:4;stroke-opacity:1;stroke-dasharray:none" id="path3880" d="m 257.89812,-98.637413 -8.62061,-2.698597"/></g></g><g id="symbol-VelocityControl" transform="matrix(1.2181818,0,0,1.2181818,-132.92733,94.550987)"><g id="g3905" transform="matrix(1.6946172,0,0,1.6946172,-11.87408,24.490332)"><path id="path3907" d="m 24.5,26.6875 c 0,1.622336 -4.477153,2.9375 -10,2.9375 -5.5228475,0 -10,-1.315164 -10,-2.9375 0,-1.622336 4.4771525,-2.9375 10,-2.9375 5.522847,0 10,1.315164 10,2.9375 z" transform="matrix(1.3565115,0,0,1.3564842,148.6163,-105.84566)" style="opacity:.53012049;color:#000;fill:url(#radialGradient4237);fill-opacity:1;fill-rule:nonzero;stroke:none;stroke-width:1;marker:none;visibility:visible;display:inline;overflow:visible;filter:url(#filter5296-2);enable-background:accumulate"/><path id="path3909" d="m 24.5,26.6875 c 0,1.622336 -4.477153,2.9375 -10,2.9375 -5.5228475,0 -10,-1.315164 -10,-2.9375 0,-1.622336 4.4771525,-2.9375 10,-2.9375 5.522847,0 10,1.315164 10,2.9375 z" transform="matrix(0.8476709,0,0,0.8476539,155.99448,-91.479567)" style="opacity:.80120479;color:#000;fill:url(#radialGradient4239);fill-opacity:1;fill-rule:nonzero;stroke:none;stroke-width:1;marker:none;visibility:visible;display:inline;overflow:visible;filter:url(#filter5296-2);enable-background:accumulate"/><path id="path3911" d="m 58.403591,29.207693 c 0,16.022297 -12.988638,29.010935 -29.010935,29.010935 -16.022297,0 -29.0109345,-12.988638 -29.0109345,-29.010935 0,-16.022297 12.9886375,-29.01093473 29.0109345,-29.01093473 16.022297,0 29.010935,12.98863773 29.010935,29.01093473 z" transform="matrix(0.4552142,0,0,0.4578395,154.92379,-94.080092)" style="fill:url(#radialGradient4241);fill-opacity:1;fill-rule:evenodd;stroke:#d4d0d0;stroke-width:2.19046068;stroke-linecap:butt;stroke-linejoin:miter;stroke-miterlimit:4;stroke-opacity:1;stroke-dasharray:none"/><path id="path3913" d="m 53.950159,30.352861 c 0,13.351915 -10.823865,24.17578 -24.175779,24.17578 -13.351915,0 -24.1757796,-10.823865 -24.1757796,-24.17578 0,-13.351914 10.8238646,-24.1757789 24.1757796,-24.1757789 13.351914,0 24.175779,10.8238649 24.175779,24.1757789 z" transform="matrix(0.5041973,0,0,0.5044661,153.2742,-96.019639)" style="fill:none;stroke:url(#radialGradient4243);stroke-width:1.98282218;stroke-linecap:round;stroke-linejoin:round;stroke-miterlimit:4;stroke-opacity:1;stroke-dasharray:none;stroke-dashoffset:0"/></g><path style="fill:none;stroke:#ff4e34;stroke-width:2;stroke-linecap:butt;stroke-linejoin:miter;stroke-miterlimit:4;stroke-opacity:1;stroke-dasharray:none;display:inline" id="path34138-1-7" d="m 273.30882,-128.36777 c 1.48829,2.45185 1.90489,5.20754 1.97538,8.2047 l 9.09496,8.66832 0.2675,3.29229 -9.52708,-5.12363 -0.32923,8.21016 3.60095,3.49806 -0.0617,2.798457 -4.03306,-2.304607 -0.90629,1.196568 -0.16982,1.66e-4 -0.90539,-1.193454 -4.03306,2.304606 -0.0617,-2.798456 3.60095,-3.49806 -0.32923,-8.21016 -9.52708,5.12363 0.2675,-3.29229 9.09497,-8.66832 c 0.0705,-2.99716 0.48708,-5.75285 1.97537,-8.2047"/></g><g id="symbol-Stabilized2" transform="matrix(1.2181818,0,0,1.2181818,-488.7342,39.213763)"><g id="g3173" transform="matrix(1.6946172,0,0,1.6946172,90.69312,69.91641)" style="display:inline"><path style="opacity:.53012049;color:#000;fill:url(#radialGradient3197);fill-opacity:1;fill-rule:nonzero;stroke:none;stroke-width:1;marker:none;visibility:visible;display:inline;overflow:visible;filter:url(#filter5296-2);enable-background:accumulate" id="path3175" d="m 24.5,26.6875 c 0,1.622336 -4.477153,2.9375 -10,2.9375 -5.5228475,0 -10,-1.315164 -10,-2.9375 0,-1.622336 4.4771525,-2.9375 10,-2.9375 5.522847,0 10,1.315164 10,2.9375 z" transform="matrix(1.3565115,0,0,1.3564842,148.6163,-105.84566)"/><path style="opacity:.80120479;color:#000;fill:url(#radialGradient3199);fill-opacity:1;fill-rule:nonzero;stroke:none;stroke-width:1;marker:none;visibility:visible;display:inline;overflow:visible;filter:url(#filter5296-2);enable-background:accumulate" id="path3177" d="m 24.5,26.6875 c 0,1.622336 -4.477153,2.9375 -10,2.9375 -5.5228475,0 -10,-1.315164 -10,-2.9375 0,-1.622336 4.4771525,-2.9375 10,-2.9375 5.522847,0 10,1.315164 10,2.9375 z" transform="matrix(0.8476709,0,0,0.8476539,155.99448,-91.479567)"/><path style="fill:url(#radialGradient3201);fill-opacity:1;fill-rule:evenodd;stroke:#d4d0d0;stroke-width:2.19046068;stroke-linecap:butt;stroke-linejoin:miter;stroke-miterlimit:4;stroke-opacity:1;stroke-dasharray:none" id="path3179" d="m 58.403591,29.207693 c 0,16.022297 -12.988638,29.010935 -29.010935,29.010935 -16.022297,0 -29.0109345,-12.988638 -29.0109345,-29.010935 0,-16.022297 12.9886375,-29.01093473 29.0109345,-29.01093473 16.022297,0 29.010935,12.98863773 29.010935,29.01093473 z" transform="matrix(0.4552142,0,0,0.4578395,154.92379,-94.080092)"/><path style="fill:none;stroke:url(#radialGradient3203);stroke-width:1.98282218;stroke-linecap:round;stroke-linejoin:round;stroke-miterlimit:4;stroke-opacity:1;stroke-dasharray:none;stroke-dashoffset:0" id="path3181" d="m 53.950159,30.352861 c 0,13.351915 -10.823865,24.17578 -24.175779,24.17578 -13.351915,0 -24.1757796,-10.823865 -24.1757796,-24.17578 0,-13.351914 10.8238646,-24.1757789 24.1757796,-24.1757789 13.351914,0 24.175779,10.8238649 24.175779,24.1757789 z" transform="matrix(0.5041973,0,0,0.5044661,153.2742,-96.019639)"/></g><g id="g3183" transform="matrix(0.33832187,0,0,0.33832187,410.06766,-39.187259)" style="stroke-width:5.32037735;stroke-miterlimit:4;stroke-dasharray:none"><path id="path3185" d="m -124.28571,-85.600701 c 0,-3.155913 9.5939,-5.714285 21.42857,-5.714285 11.834674,0 21.428572,2.558373 21.428572,5.714286" transform="matrix(0.9559435,0,0,0.9559435,-2.74581,-3.77127)" style="opacity:.98000004;fill:none;stroke:#ff4e34;stroke-width:5.56557703;stroke-linecap:butt;stroke-linejoin:miter;stroke-miterlimit:4;stroke-opacity:1;stroke-dasharray:none;stroke-dashoffset:0;display:inline"/><path style="opacity:.98000004;fill:none;stroke:#ff4e34;stroke-width:5.32037735;stroke-linecap:butt;stroke-linejoin:miter;stroke-miterlimit:4;stroke-opacity:1;stroke-dasharray:none;stroke-dashoffset:0;display:inline" id="path3187" d="m -51.42857,-85.243561 c 0,6.50907 -22.225864,11.785714 -49.64286,11.785714 -27.41699,0 -49.64285,-5.276644 -49.64285,-11.785714 0,-6.50907 22.22586,-11.785714 49.64285,-11.785714 27.416996,0 49.64286,5.276644 49.64286,11.785714 z" transform="translate(0,-0.35714)"/><path style="fill:none;stroke:#ff4e34;stroke-width:5.32037735;stroke-linecap:butt;stroke-linejoin:miter;stroke-miterlimit:4;stroke-opacity:1;stroke-dasharray:none" id="path3189" d="m -101.07143,-37.895278 0,-96.382562"/><path style="opacity:.98000004;fill:none;stroke:#ff4e34;stroke-width:5.56557703;stroke-linecap:butt;stroke-linejoin:miter;stroke-miterlimit:4;stroke-opacity:1;stroke-dasharray:none;stroke-dashoffset:0" id="path3191" d="m -81.428568,-85.6007 c 0,3.155913 -9.593898,5.714285 -21.428572,5.714285 -11.83467,0 -21.42857,-2.558372 -21.42857,-5.714285 0,0 0,-10e-7 0,-10e-7" transform="matrix(0.9559435,0,0,0.9559435,-2.7458124,-3.7712673)"/><path style="opacity:.98000004;fill:none;stroke:#ff4e34;stroke-width:5.30381203;stroke-linecap:butt;stroke-linejoin:miter;stroke-miterlimit:4;stroke-opacity:1;stroke-dasharray:none;stroke-dashoffset:0" id="path3193" d="m -81.42857,-85.6007 c 0,21.6969 -9.114203,39.285713 -20.35714,39.285713 -11.24294,0 -20.35715,-17.588813 -20.35715,-39.285713 0,-21.6969 9.11421,-39.28571 20.35715,-39.28571 11.242937,0 20.35714,17.58881 20.35714,39.28571 z" transform="matrix(1.0062564,0,0,1,1.3510971,0)"/><path id="path3195" d="m -51.42857,-85.243561 c 0,6.50907 -22.225864,11.785714 -49.64286,11.785714 -27.41699,0 -49.64285,-5.276644 -49.64285,-11.785714 0,0 0,0 0,0" transform="translate(0,-0.35713959)" style="opacity:.98000004;fill:none;stroke:#ff4e34;stroke-width:5.32037735;stroke-linecap:butt;stroke-linejoin:miter;stroke-miterlimit:4;stroke-opacity:1;stroke-dasharray:none;stroke-dashoffset:0"/></g></g><g id="symbol-Stabilized3" transform="matrix(1.2181818,0,0,1.2181818,-488.7342,-34.786237)"><g style="display:inline" id="g3207" transform="matrix(1.6946172,0,0,1.6946172,90.69312,69.91641)"><path id="path3209" d="m 24.5,26.6875 c 0,1.622336 -4.477153,2.9375 -10,2.9375 -5.5228475,0 -10,-1.315164 -10,-2.9375 0,-1.622336 4.4771525,-2.9375 10,-2.9375 5.522847,0 10,1.315164 10,2.9375 z" transform="matrix(1.3565115,0,0,1.3564842,148.6163,-105.84566)" style="opacity:.53012049;color:#000;fill:url(#radialGradient3231);fill-opacity:1;fill-rule:nonzero;stroke:none;stroke-width:1;marker:none;visibility:visible;display:inline;overflow:visible;filter:url(#filter5296-2);enable-background:accumulate"/><path id="path3211" d="m 24.5,26.6875 c 0,1.622336 -4.477153,2.9375 -10,2.9375 -5.5228475,0 -10,-1.315164 -10,-2.9375 0,-1.622336 4.4771525,-2.9375 10,-2.9375 5.522847,0 10,1.315164 10,2.9375 z" transform="matrix(0.8476709,0,0,0.8476539,155.99448,-91.479567)" style="opacity:.80120479;color:#000;fill:url(#radialGradient3233);fill-opacity:1;fill-rule:nonzero;stroke:none;stroke-width:1;marker:none;visibility:visible;display:inline;overflow:visible;filter:url(#filter5296-2);enable-background:accumulate"/><path id="path3213" d="m 58.403591,29.207693 c 0,16.022297 -12.988638,29.010935 -29.010935,29.010935 -16.022297,0 -29.0109345,-12.988638 -29.0109345,-29.010935 0,-16.022297 12.9886375,-29.01093473 29.0109345,-29.01093473 16.022297,0 29.010935,12.98863773 29.010935,29.01093473 z" transform="matrix(0.4552142,0,0,0.4578395,154.92379,-94.080092)" style="fill:url(#radialGradient3235);fill-opacity:1;fill-rule:evenodd;stroke:#d4d0d0;stroke-width:2.19046068;stroke-linecap:butt;stroke-linejoin:miter;stroke-miterlimit:4;stroke-opacity:1;stroke-dasharray:none"/><path id="path3215" d="m 53.950159,30.352861 c 0,13.351915 -10.823865,24.17578 -24.175779,24.17578 -13.351915,0 -24.1757796,-10.823865 -24.1757796,-24.17578 0,-13.351914 10.8238646,-24.1757789 24.1757796,-24.1757789 13.351914,0 24.175779,10.8238649 24.175779,24.1757789 z" transform="matrix(0.5041973,0,0,0.5044661,153.2742,-96.019639)" style="fill:none;stroke:url(#radialGradient3237);stroke-width:1.98282218;stroke-linecap:round;stroke-linejoin:round;stroke-miterlimit:4;stroke-opacity:1;stroke-dasharray:none;stroke-dashoffset:0"/></g><g style="stroke-width:5.32037735;stroke-miterlimit:4;stroke-dasharray:none" id="g3217" transform="matrix(0.33832187,0,0,0.33832187,410.06766,-39.187259)"><path style="opacity:.98000004;fill:none;stroke:#ff4e34;stroke-width:5.56557703;stroke-linecap:butt;stroke-linejoin:miter;stroke-miterlimit:4;stroke-opacity:1;stroke-dasharray:none;stroke-dashoffset:0;display:inline" id="path3219" d="m -124.28571,-85.600701 c 0,-3.155913 9.5939,-5.714285 21.42857,-5.714285 11.834674,0 21.428572,2.558373 21.428572,5.714286" transform="matrix(0.9559435,0,0,0.9559435,-2.74581,-3.77127)"/><path id="path3221" d="m -51.42857,-85.243561 c 0,6.50907 -22.225864,11.785714 -49.64286,11.785714 -27.41699,0 -49.64285,-5.276644 -49.64285,-11.785714 0,-6.50907 22.22586,-11.785714 49.64285,-11.785714 27.416996,0 49.64286,5.276644 49.64286,11.785714 z" transform="translate(0,-0.35714)" style="opacity:.98000004;fill:none;stroke:#ff4e34;stroke-width:5.32037735;stroke-linecap:butt;stroke-linejoin:miter;stroke-miterlimit:4;stroke-opacity:1;stroke-dasharray:none;stroke-dashoffset:0;display:inline"/><path id="path3223" d="m -101.07143,-37.895278 0,-96.382562" style="fill:none;stroke:#ff4e34;stroke-width:5.32037735;stroke-linecap:butt;stroke-linejoin:miter;stroke-miterlimit:4;stroke-opacity:1;stroke-dasharray:none"/><path id="path3225" d="m -81.428568,-85.6007 c 0,3.155913 -9.593898,5.714285 -21.428572,5.714285 -11.83467,0 -21.42857,-2.558372 -21.42857,-5.714285 0,0 0,-10e-7 0,-10e-7" transform="matrix(0.9559435,0,0,0.9559435,-2.7458124,-3.7712673)" style="opacity:.98000004;fill:none;stroke:#ff4e34;stroke-width:5.56557703;stroke-linecap:butt;stroke-linejoin:miter;stroke-miterlimit:4;stroke-opacity:1;stroke-dasharray:none;stroke-dashoffset:0"/><path id="path3227" d="m -81.42857,-85.6007 c 0,21.6969 -9.114203,39.285713 -20.35714,39.285713 -11.24294,0 -20.35715,-17.588813 -20.35715,-39.285713 0,-21.6969 9.11421,-39.28571 20.35715,-39.28571 11.242937,0 20.35714,17.58881 20.35714,39.28571 z" transform="matrix(1.0062564,0,0,1,1.3510971,0)" style="opacity:.98000004;fill:none;stroke:#ff4e34;stroke-width:5.30381203;stroke-linecap:butt;stroke-linejoin:miter;stroke-miterlimit:4;stroke-opacity:1;stroke-dasharray:none;stroke-dashoffset:0"/><path style="opacity:.98000004;fill:none;stroke:#ff4e34;stroke-width:5.32037735;stroke-linecap:butt;stroke-linejoin:miter;stroke-miterlimit:4;stroke-opacity:1;stroke-dasharray:none;stroke-dashoffset:0" id="path3229" d="m -51.42857,-85.243561 c 0,6.50907 -22.225864,11.785714 -49.64286,11.785714 -27.41699,0 -49.64285,-5.276644 -49.64285,-11.785714 0,0 0,0 0,0" transform="translate(0,-0.35713959)"/></g></g></g></svg>