<svg xmlns="http://www.w3.org/2000/svg" xmlns:svg="http://www.w3.org/2000/svg" xmlns:xlink="http://www.w3.org/1999/xlink" id="svg10068" width="47.012" height="322.583" version="1.1" style="display:inline"><defs id="defs10070"><marker id="Arrow2Sstart" orient="auto" refX="0" refY="0" style="overflow:visible"><path id="path4640" d="M 8.7185878,4.0337352 -2.2072895,0.01601326 8.7185884,-4.0017078 c -1.7454984,2.3720609 -1.7354408,5.6174519 -6e-7,8.035443 z" transform="matrix(0.3,0,0,0.3,-0.69,0)" style="font-size:12px;fill-rule:evenodd;stroke-width:.625;stroke-linejoin:round"/></marker><linearGradient id="linearGradient5318" x1="-29.837" x2="-29.837" y1="285.06" y2="342.606" gradientTransform="matrix(2.2532936,0,0,2.206809,446.89077,-285.33499)" gradientUnits="userSpaceOnUse" xlink:href="#linearGradient8928"/><linearGradient id="linearGradient8928"><stop style="stop-color:#fff;stop-opacity:.89156628" id="stop8930" offset="0"/><stop style="stop-color:#fff;stop-opacity:0" id="stop8932" offset="1"/></linearGradient></defs><metadata id="metadata10073"/><g style="display:inline" id="g2932" transform="translate(-357.06525,-236.21351)"><g id="background" transform="matrix(0,-1,1,0,-8.719326,769.86218)"><rect style="fill:#453e3e;fill-opacity:1;stroke:#000;stroke-width:4;stroke-miterlimit:10;stroke-opacity:1;stroke-dasharray:none;stroke-dashoffset:0" id="rect2936" width="318.583" height="43.012" x="213.066" y="367.785" ry="3.174"/><rect id="bargraph-outer" width="260.539" height="9.254" x="250.302" y="395.165" ry=".683" style="fill:#332d2d;fill-opacity:1;stroke:#000;stroke-width:2;stroke-miterlimit:10;stroke-opacity:1;stroke-dasharray:none;stroke-dashoffset:0"/><rect style="fill:#332d2d;fill-opacity:1;stroke:none" id="bargraph" width="260.539" height="9.254" x="250.302" y="395.165" ry=".683"/></g></g><g id="layer5" transform="translate(-129.62194,129.52019)" style="display:inline"><rect style="fill:#04b629;fill-opacity:1;stroke:none;display:inline" id="green" width="260.539" height="9.254" x="-153.974" y="158.982" ry=".683" transform="matrix(0,-1,1,0,0,0)"/></g><g id="layer4" transform="translate(-129.62194,129.52019)" style="display:inline"><rect id="yellow" width="260.539" height="9.254" x="-153.974" y="158.982" ry=".683" transform="matrix(0,-1,1,0,0,0)" style="fill:#f1b907;fill-opacity:1;stroke:none;display:inline"/></g><g id="layer3" transform="translate(-129.62194,129.52019)" style="display:inline"><rect style="fill:#cf0e0e;fill-opacity:1;stroke:none;display:inline" id="red" width="260.539" height="9.254" x="-154.076" y="158.963" ry=".683" transform="matrix(0,-1,1,0,0,0)"/></g><g id="layer6" transform="translate(-129.62194,129.52019)" style="display:inline"><path style="fill:#fff;fill-opacity:1;stroke:#c2bfbf;stroke-width:1px;stroke-linecap:butt;stroke-linejoin:miter;stroke-opacity:1" id="needle" d="m 149.75986,-113.1656 0,14.26841 12,-7.13421 -12,-7.1342 z"/></g><g id="layer1" transform="translate(-129.62194,129.52019)" style="display:inline"><rect style="fill:#fff;fill-opacity:1;stroke:none;stroke-width:4;stroke-linejoin:round;stroke-miterlimit:4;stroke-opacity:1;stroke-dasharray:none" id="field" width="36.997" height="12.627" x="4.924" y="285.586" transform="translate(129.62194,-129.52019)"/><rect id="value" width="36.997" height="12.627" x="134.546" y="170.066" style="fill:#fff;fill-opacity:1;stroke:none"/></g></svg>