<svg xmlns="http://www.w3.org/2000/svg" xmlns:svg="http://www.w3.org/2000/svg" id="svg2" width="463.893" height="438.877" version="1.0"><metadata id="metadata7"/><g id="layer1" transform="translate(-42.339286,-276.34171)"><path style="opacity:1;fill:#000;fill-opacity:1;stroke:none;stroke-width:.40000001;stroke-miterlimit:4;stroke-dasharray:none;stroke-opacity:1" id="rect2391" d="M 437.14509,499.4375 L 437.14509,499.4375 z M 437.14509,499.4375 L 274.33259,355.25 L 111.42634,499.5 L 111.42634,705.625 C 111.42634,710.94838 115.72796,715.21875 121.05134,715.21875 L 222.86384,715.21875 L 222.86384,624.84375 C 222.86384,619.52035 227.13421,615.21875 232.45759,615.21875 L 316.11384,615.21875 C 321.43719,615.21875 325.70759,619.52037 325.70759,624.84375 L 325.70759,715.21875 L 427.55134,715.21875 C 432.87471,715.21875 437.14511,710.9484 437.14509,705.625 L 437.14509,499.4375 z M 111.42634,499.5 L 111.42634,499.5 z"/><path style="opacity:1;fill:#000;fill-opacity:1;stroke:none;stroke-width:.40000001;stroke-miterlimit:4;stroke-dasharray:none;stroke-opacity:1" id="path2399" d="M 273.3878,276.34171 L 42.339286,480.92527 L 66.677596,508.38266 L 274.33298,324.49848 L 481.9411,508.38266 L 506.23215,480.92527 L 275.2309,276.34171 L 274.33298,277.3814 L 273.3878,276.34171 z"/><path style="fill:#000;fill-opacity:1;stroke:none;stroke-width:.40000001;stroke-miterlimit:4;stroke-opacity:1" id="rect2404" d="M 111.42634,305.79074 L 169.99777,305.79074 L 169.48739,340.48183 L 111.42634,392.9336 L 111.42634,305.79074 z"/></g></svg>