<svg xmlns="http://www.w3.org/2000/svg" xmlns:svg="http://www.w3.org/2000/svg" id="svg2" width="1111.338" height="1168.572" version="1.0"><metadata id="metadata7"/><g id="layer1" transform="translate(2201.53,2081.9236)"><g id="g2386" transform="matrix(0.2535648,0,0,0.2535648,-1643.2995,-1554.0211)"><path id="path3187" d="M -582.85712,3.7907546 A 465.71429,465.71429 0 1 1 -1514.2857,3.7907546 A 465.71429,465.71429 0 1 1 -582.85712,3.7907546 z" transform="matrix(4.3333332,0,0,4.3333332,4533.7078,193.07844)" style="opacity:1;fill:#fff;fill-opacity:1;stroke:#000;stroke-width:80;stroke-linecap:round;stroke-linejoin:round;stroke-miterlimit:4;stroke-dasharray:none;stroke-opacity:1"/><path id="path3185" d="M -582.85712,3.7907546 A 465.71429,465.71429 0 1 1 -1514.2857,3.7907546 A 465.71429,465.71429 0 1 1 -582.85712,3.7907546 z" transform="matrix(2.9548022,0,0,2.9548022,3088.2196,198.30411)" style="opacity:1;fill:#fff;fill-opacity:1;stroke:#000;stroke-width:80;stroke-linecap:round;stroke-linejoin:round;stroke-miterlimit:4;stroke-dasharray:none;stroke-opacity:1"/><path id="path3183" d="M -582.85712,3.7907546 A 465.71429,465.71429 0 1 1 -1514.2857,3.7907546 A 465.71429,465.71429 0 1 1 -582.85712,3.7907546 z" transform="matrix(1.8248587,0,0,1.8248587,1903.3932,202.58745)" style="opacity:1;fill:#fff;fill-opacity:1;stroke:#000;stroke-width:80;stroke-linecap:round;stroke-linejoin:round;stroke-miterlimit:4;stroke-dasharray:none;stroke-opacity:1"/><path id="path3181" d="M -582.85712,3.7907546 A 465.71429,465.71429 0 1 1 -1514.2857,3.7907546 A 465.71429,465.71429 0 1 1 -582.85712,3.7907546 z" transform="translate(1038.4699,205.71429)" style="opacity:1;fill:#fff;fill-opacity:1;stroke:#000;stroke-width:80;stroke-linecap:round;stroke-linejoin:round;stroke-miterlimit:4;stroke-dasharray:none;stroke-opacity:1"/><path id="path3192" d="M -7.2443685,220.93362 L 1504.1842,-2081.9236 L -1524.3873,-2081.9236 L -7.2443685,220.93362 z" style="fill:#fff;fill-opacity:1;stroke:none;stroke-width:80;stroke-linecap:round;stroke-linejoin:round;stroke-miterlimit:4;stroke-opacity:1"/><path id="rect3189" d="M -7.2442174,223.79075 L 1504.1842,2526.6479 L -1524.3873,2526.6479 L -7.2442174,223.79075 z" style="fill:#fff;fill-opacity:1;stroke:none;stroke-width:80;stroke-linecap:round;stroke-linejoin:round;stroke-miterlimit:4;stroke-opacity:1"/><path id="path2385" d="M 131.32707,222.36219 C 129.85733,280.3008 96.457805,328.45177 44.931875,352.67094 C 36.472685,356.25085 126.39529,2164.396 129.8183,2222.3445 C -5.6975961,2222.8383 -8.9361161,2222.5375 -151.03146,2223.1095 C -148.6186,2165.161 -56.675715,356.25085 -65.13491,352.67094 C -118.03418,328.65681 -149.22461,279.34006 -151.53008,222.36219 C -151.53008,144.29362 -88.17009,80.933613 -10.101515,80.933613 C 67.967055,80.933613 131.32707,144.29362 131.32707,222.36219 z" style="fill:#000;fill-opacity:1;stroke:none;stroke-width:3;stroke-linecap:round;stroke-linejoin:round;stroke-miterlimit:4;stroke-opacity:1"/></g></g></svg>