<svg xmlns="http://www.w3.org/2000/svg" xmlns:svg="http://www.w3.org/2000/svg" id="svg2" width="1063.415" height="1063.415" version="1.0"><metadata id="metadata7"/><g id="layer1" transform="translate(2200.7315,1976.8204)"><g id="g3810" transform="matrix(0.70710678,-0.70710678,0.70710678,0.70710678,532.71884,-1603.6253)"><path id="path2993" d="m 1062.9921,654.79199 a 513.77954,513.77954 0 1 1 -1027.559056,0 513.77954,513.77954 0 1 1 1027.559056,0 z" transform="matrix(1.0033755,0,0,1.0033755,-2220.019,-2101.7843)" style="fill:none;stroke:#f0f;stroke-width:32.27850723;stroke-linecap:butt;stroke-linejoin:miter;stroke-miterlimit:4;stroke-opacity:1;stroke-dasharray:none;stroke-dashoffset:0"/><path id="path3763" d="m -2166.0969,-1515.7143 425.1968,70.8661 -425.1968,70.8662 -35.4331,-70.8662 z" style="fill:#f0f;stroke:none"/><path id="path3763-3" d="m -1173.8338,-1515.6795 -425.1968,70.8661 425.1968,70.8662 35.4331,-70.8662 z" style="fill:#f0f;stroke:none"/><path id="path3763-6" d="m -1740.8619,-948.95165 70.8661,-425.19675 70.8662,425.19675 -70.8662,35.4331 z" style="fill:#f0f;stroke:none"/><path id="path3763-3-7" d="m -1740.8271,-1941.2147 70.8661,425.1968 70.8662,-425.1968 -70.8662,-35.4331 z" style="fill:#f0f;stroke:none"/></g></g></svg>