<svg xmlns="http://www.w3.org/2000/svg" xmlns:svg="http://www.w3.org/2000/svg" xmlns:xlink="http://www.w3.org/1999/xlink" id="svg2" width="64" height="64" version="1.1"><defs id="defs4"><linearGradient id="linearGradient3820" x1="337.633" x2="729.83" y1="371.997" y2="676.585" gradientUnits="userSpaceOnUse" xlink:href="#linearGradient3899"/><linearGradient id="linearGradient3899"><stop id="stop3901" offset="0" style="stop-color:#9699a3;stop-opacity:1"/><stop style="stop-color:#1f1616;stop-opacity:1" id="stop3903" offset=".494"/><stop id="stop3905" offset="1" style="stop-color:#9498a5;stop-opacity:0"/></linearGradient><linearGradient id="linearGradient4790" x1="14.993" x2="105.252" y1="1038.323" y2="941.669" gradientUnits="userSpaceOnUse" xlink:href="#linearGradient3899"/><linearGradient id="linearGradient3865" x1="14.993" x2="105.252" y1="1038.323" y2="941.669" gradientUnits="userSpaceOnUse" xlink:href="#linearGradient3899"/></defs><metadata id="metadata7"/><g id="background" style="stroke-width:.3;stroke-miterlimit:4;stroke-dasharray:none"><g id="Baba" transform="matrix(1.1638314,0,0,-1.1066141,-5.6432489,1159.5817)" style="fill-opacity:1;fill:url(#linearGradient4790);stroke-width:.26434927;stroke-miterlimit:4;stroke-dasharray:none"><rect style="fill:url(#linearGradient3865);fill-opacity:1;stroke:#202020;stroke-width:0;stroke-miterlimit:4;stroke-opacity:1;stroke-dasharray:none" id="rect2985" width="54.726" height="57.438" x="5.076" y="990.194" rx=".094" ry="28.719"/></g></g><a id="desiredPositionObj" transform="translate(-5.3432485,-16.199292)"><path id="desiredPosition" d="m 26.027397,28.684931 c 0,0.55985 -0.453848,1.013698 -1.013698,1.013698 C 24.453848,29.698629 24,29.244781 24,28.684931 c 0,-0.55985 0.453848,-1.013699 1.013699,-1.013699 0.55985,0 1.013698,0.453849 1.013698,1.013699 z" transform="matrix(0.88823427,0,0,0.88823427,0.65875236,4.0999609)" style="fill:#ff201d;fill-opacity:1;stroke:#ef7d7d;stroke-width:.39996386;stroke-miterlimit:4;stroke-opacity:.59336093;stroke-dasharray:none"/></a><path style="fill:#fff;fill-opacity:1;stroke:#998ad7;stroke-width:0;stroke-miterlimit:4;stroke-opacity:.59336093;stroke-dasharray:none" id="actualPosition" d="m 15.343248,23.162163 a 0.85240269,0.85240269 0 1 1 -1.704805,0 0.85240269,0.85240269 0 1 1 1.704805,0 z"/></svg>