<svg xmlns="http://www.w3.org/2000/svg" xmlns:svg="http://www.w3.org/2000/svg" xmlns:xlink="http://www.w3.org/1999/xlink" id="svg10068" width="686.439" height="258.027" version="1.1" style="display:inline"><defs id="defs10070"><marker id="Arrow1Lend" orient="auto" refX="0" refY="0" style="overflow:visible"><path id="path5999" d="M 0,0 5,-5 -12.5,0 5,5 0,0 z" transform="matrix(-0.8,0,0,-0.8,-10,0)" style="fill-rule:evenodd;stroke:#000;stroke-width:1pt;marker-start:none"/></marker><marker id="Arrow1Lstart" orient="auto" refX="0" refY="0" style="overflow:visible"><path id="path5996" d="M 0,0 5,-5 -12.5,0 5,5 0,0 z" transform="matrix(0.8,0,0,0.8,10,0)" style="fill-rule:evenodd;stroke:#000;stroke-width:1pt;marker-start:none"/></marker><marker id="Arrow2Sstart" orient="auto" refX="0" refY="0" style="overflow:visible"><path id="path4640" d="M 8.7185878,4.0337352 -2.2072895,0.01601326 8.7185884,-4.0017078 c -1.7454984,2.3720609 -1.7354408,5.6174519 -6e-7,8.035443 z" transform="matrix(0.3,0,0,0.3,-0.69,0)" style="font-size:12px;fill-rule:evenodd;stroke-width:.625;stroke-linejoin:round"/></marker><linearGradient id="linearGradient5318" x1="-29.837" x2="-29.837" y1="285.06" y2="342.606" gradientTransform="matrix(2.2532936,0,0,2.206809,446.89077,-285.33499)" gradientUnits="userSpaceOnUse" xlink:href="#linearGradient8928"/><linearGradient id="linearGradient8928"><stop style="stop-color:#fff;stop-opacity:.89156628" id="stop8930" offset="0"/><stop style="stop-color:#fff;stop-opacity:0" id="stop8932" offset="1"/></linearGradient></defs><metadata id="metadata10073"/><g style="display:inline" id="g2932" transform="translate(-177.25824,-301.32129)"><g id="background" transform="matrix(0,-0.72391486,1,0,-8.719326,711.5901)"><rect style="fill:#453e3e;fill-opacity:1;stroke:#000;stroke-width:4.70128155;stroke-miterlimit:10;stroke-opacity:1;stroke-dasharray:none;stroke-dashoffset:0" id="rect2936" width="350.908" height="682.439" x="213.066" y="187.978" rx="3.174" ry="4.385"/><path style="fill:none;stroke:#000;stroke-width:1.17532039000000021px;stroke-linecap:butt;stroke-linejoin:miter;stroke-opacity:1;marker-start:none;marker-end:none" id="path5991" d="m 537.38036,217.29216 -294.4803,0 0,614.17274"/><path style="fill:none;stroke:#000;stroke-width:1.17532039;stroke-linecap:butt;stroke-linejoin:miter;stroke-miterlimit:4;stroke-opacity:1;stroke-dasharray:1.17532035,3.52596104;stroke-dashoffset:0" id="path6633" d="m 285.2717,219.31246 0,602.05092"/><path id="path6635" d="m 327.3848,219.31246 0,602.05092" style="fill:none;stroke:#000;stroke-width:1.17532039;stroke-linecap:butt;stroke-linejoin:miter;stroke-miterlimit:4;stroke-opacity:1;stroke-dasharray:1.17532035,3.52596104;stroke-dashoffset:0"/><path style="fill:none;stroke:#000;stroke-width:1.17532039;stroke-linecap:butt;stroke-linejoin:miter;stroke-miterlimit:4;stroke-opacity:1;stroke-dasharray:1.17532035,3.52596104;stroke-dashoffset:0" id="path6637" d="m 369.49791,219.31246 0,602.05092"/><path id="path6639" d="m 411.61102,219.31246 0,602.05092" style="fill:none;stroke:#000;stroke-width:1.17532039;stroke-linecap:butt;stroke-linejoin:miter;stroke-miterlimit:4;stroke-opacity:1;stroke-dasharray:1.17532035,3.52596104;stroke-dashoffset:0"/><path style="fill:none;stroke:#000;stroke-width:1.17532039;stroke-linecap:butt;stroke-linejoin:miter;stroke-miterlimit:4;stroke-opacity:1;stroke-dasharray:1.17532035,3.52596104;stroke-dashoffset:0" id="path6641" d="m 453.72413,219.31246 0,602.05092"/><path id="path6643" d="m 495.83722,219.31246 0,602.05092" style="fill:none;stroke:#000;stroke-width:1.17532039;stroke-linecap:butt;stroke-linejoin:miter;stroke-miterlimit:4;stroke-opacity:1;stroke-dasharray:1.17532035,3.52596104;stroke-dashoffset:0"/><text style="font-size:21.98640251px;font-style:normal;font-weight:400;fill:#fff;fill-opacity:1;stroke:none;font-family:Bitstream Vera Sans" id="text6659" x="808.373" y="-500.03" transform="matrix(0,1,-1,0,0,0)" xml:space="preserve"><tspan id="tspan6663" x="808.373" y="-500.03">1E-1</tspan></text><text id="text6667" x="808.373" y="-458.03" transform="matrix(0,1,-1,0,0,0)" xml:space="preserve" style="font-size:21.98640251px;font-style:normal;font-weight:400;fill:#fff;fill-opacity:1;stroke:none;font-family:Bitstream Vera Sans"><tspan id="tspan6669" x="808.373" y="-458.03">1E-2</tspan></text><text style="font-size:21.98640251px;font-style:normal;font-weight:400;fill:#fff;fill-opacity:1;stroke:none;font-family:Bitstream Vera Sans" id="text6671" x="808.373" y="-418.03" transform="matrix(0,1,-1,0,0,0)" xml:space="preserve"><tspan id="tspan6673" x="808.373" y="-418.03">1E-3</tspan></text><text id="text6675" x="808.373" y="-374.03" transform="matrix(0,1,-1,0,0,0)" xml:space="preserve" style="font-size:21.98640251px;font-style:normal;font-weight:400;fill:#fff;fill-opacity:1;stroke:none;font-family:Bitstream Vera Sans"><tspan id="tspan6677" x="808.373" y="-374.03">1E-4</tspan></text><text style="font-size:21.98640251px;font-style:normal;font-weight:400;fill:#fff;fill-opacity:1;stroke:none;font-family:Bitstream Vera Sans" id="text6679" x="808.373" y="-330.03" transform="matrix(0,1,-1,0,0,0)" xml:space="preserve"><tspan id="tspan6681" x="808.373" y="-330.03">1E-5</tspan></text><text id="text6683" x="808.373" y="-288.03" transform="matrix(0,1,-1,0,0,0)" xml:space="preserve" style="font-size:21.98640251px;font-style:normal;font-weight:400;fill:#fff;fill-opacity:1;stroke:none;font-family:Bitstream Vera Sans"><tspan id="tspan6685" x="808.373" y="-288.03">1E-6</tspan></text><path style="fill:none;stroke:#000;stroke-width:1.17532039px;stroke-linecap:butt;stroke-linejoin:miter;stroke-opacity:1;display:inline" id="path6703" d="m 521.51078,253.79748 0,148.49242"/><path id="path6705" d="m 521.51078,437.79748 0,148.49242" style="fill:none;stroke:#000;stroke-width:1.17532039px;stroke-linecap:butt;stroke-linejoin:miter;stroke-opacity:1;display:inline"/><path style="fill:none;stroke:#000;stroke-width:1.17532039px;stroke-linecap:butt;stroke-linejoin:miter;stroke-opacity:1;display:inline" id="path6707" d="m 521.51078,625.79748 0,148.49242"/><text style="font-size:47.01281356999999161px;font-style:normal;font-weight:400;fill:#fff;fill-opacity:1;stroke:none;display:inline;font-family:Bitstream Vera Sans" id="text6755" x="355.295" y="-449.456" transform="matrix(0,0.85083189,-1.1753203,0,0,0)" xml:space="preserve"><tspan id="tspan6757" x="355.295" y="-449.456" style="font-size:23.50640677999999895px;fill:#fff;fill-opacity:1">Accel</tspan></text><text style="font-size:47.01281356999999161px;font-style:normal;font-weight:400;fill:#fff;fill-opacity:1;stroke:none;display:inline;font-family:Bitstream Vera Sans" id="text6759" x="573.947" y="-451.941" transform="matrix(0,0.85083189,-1.1753203,0,0,0)" xml:space="preserve"><tspan id="tspan6761" x="573.947" y="-451.941" style="font-size:23.50640677999999895px;fill:#fff;fill-opacity:1">Gyro</tspan></text><text style="font-size:47.01281357px;font-style:normal;font-weight:400;fill:#fff;fill-opacity:1;stroke:none;display:inline;font-family:Bitstream Vera Sans" id="text6763" x="769.667" y="-452.096" transform="matrix(0,0.85083189,-1.1753203,0,0,0)" xml:space="preserve"><tspan id="tspan6765" x="769.667" y="-452.096" style="font-size:23.50640678px;fill:#fff;fill-opacity:1">Mag*1E-3</tspan></text></g></g><g id="layer5" transform="translate(50.185062,64.412404)" style="display:inline"><rect style="fill:#04b629;fill-opacity:1;stroke:none;display:inline" id="accel_x" width="179.11" height="9.254" x="-166.831" y="22.982" rx=".683" ry=".683" transform="matrix(0,-1,1,0,0,0)"/><rect id="accel_y" width="179.11" height="9.254" x="-166.831" y="84.982" rx=".683" ry=".683" transform="matrix(0,-1,1,0,0,0)" style="fill:#04b629;fill-opacity:1;stroke:none;display:inline"/><rect style="fill:#04b629;fill-opacity:1;stroke:none;display:inline" id="accel_z" width="179.11" height="9.254" x="-166.831" y="146.982" rx=".683" ry=".683" transform="matrix(0,-1,1,0,0,0)"/><rect id="gyro_x" width="179.11" height="9.254" x="-166.831" y="208.982" rx=".683" ry=".683" transform="matrix(0,-1,1,0,0,0)" style="fill:#04b629;fill-opacity:1;stroke:none;display:inline"/><rect style="fill:#04b629;fill-opacity:1;stroke:none;display:inline" id="gyro_y" width="179.11" height="9.254" x="-166.831" y="270.982" rx=".683" ry=".683" transform="matrix(0,-1,1,0,0,0)"/><rect id="gyro_z" width="179.11" height="9.254" x="-166.831" y="332.981" rx=".683" ry=".683" transform="matrix(0,-1,1,0,0,0)" style="fill:#04b629;fill-opacity:1;stroke:none;display:inline"/><rect style="fill:#04b629;fill-opacity:1;stroke:none;display:inline" id="mag_x" width="179.11" height="9.254" x="-166.831" y="394.981" rx=".683" ry=".683" transform="matrix(0,-1,1,0,0,0)"/><rect id="mag_y" width="179.11" height="9.254" x="-166.831" y="456.981" rx=".683" ry=".683" transform="matrix(0,-1,1,0,0,0)" style="fill:#04b629;fill-opacity:1;stroke:none;display:inline"/><rect style="fill:#04b629;fill-opacity:1;stroke:none;display:inline" id="mag_z" width="179.11" height="9.254" x="-166.831" y="518.982" rx=".683" ry=".683" transform="matrix(0,-1,1,0,0,0)"/></g></svg>