<svg xmlns="http://www.w3.org/2000/svg" xmlns:svg="http://www.w3.org/2000/svg" id="svg2816" width="400" height="400" version="1.1"><defs id="defs2818"><filter id="filter4111"><feGaussianBlur id="feGaussianBlur4113" stdDeviation="2.448"/></filter><filter id="filter4149-5" color-interpolation-filters="sRGB"><feGaussianBlur id="feGaussianBlur4151-9" stdDeviation="1.99"/></filter></defs><metadata id="metadata2822"/><g id="layer2" style="display:inline"><g id="Swashplate"><g id="g4008"><path id="path4127" d="M 199.0099,400 C 199.0099,509.91014 109.91014,599.0099 4e-6,599.0099 C -109.91013,599.0099 -199.0099,509.91014 -199.0099,400 C -199.0099,290.08987 -109.91013,200.9901 4e-6,200.9901 C 109.91014,200.9901 199.0099,290.08987 199.0099,400 z" transform="matrix(1.0083769,0,0,1.0083769,2.0000001e-6,-3.35076)" style="fill:#515455;fill-opacity:1;stroke:#515455;stroke-width:3.98019790999999978;stroke-linecap:butt;stroke-linejoin:miter;stroke-miterlimit:4;stroke-opacity:.58823532;display:inline;filter:url(#filter4149-5)"/><path style="fill:#feb103;fill-opacity:1;stroke:#48adc6;stroke-width:3.96039605;stroke-linecap:butt;stroke-linejoin:miter;stroke-miterlimit:4;stroke-opacity:.40392157;display:inline" id="Ring" d="M 198.01981,400 C 198.01981,509.36332 109.36332,598.0198 0,598.0198 C -109.36332,598.0198 -198.0198,509.36332 -198.0198,400 C -198.0198,290.63669 -109.36332,201.9802 0,201.9802 C 109.36332,201.9802 198.01981,290.63669 198.01981,400 z"/><path id="path4089" d="M 40.80068,400 C 40.80068,422.53358 22.533588,440.80068 3.7923656e-6,440.80068 C -22.533599,440.80068 -40.800676,422.53358 -40.800676,400 C -40.800676,377.4664 -22.533599,359.19932 3.7923656e-6,359.19932 C 22.533588,359.19932 40.80068,377.4664 40.80068,400 z" transform="matrix(1.0128731,0,0,1.0128731,-2.5746203e-8,-5.149238)" style="color:#000;fill:#515455;fill-opacity:1;fill-rule:nonzero;stroke:#515455;stroke-width:5.37709665;stroke-linecap:round;stroke-linejoin:round;stroke-miterlimit:4;stroke-opacity:1;stroke-dasharray:none;stroke-dashoffset:0;marker:none;visibility:visible;display:inline;overflow:visible;filter:url(#filter4111);enable-background:accumulate"/><path style="color:#000;fill:#9796ab;fill-opacity:.80784314;fill-rule:nonzero;stroke:#b5b5bb;stroke-width:5.37709665;stroke-linecap:round;stroke-linejoin:round;stroke-miterlimit:4;stroke-opacity:1;stroke-dasharray:none;stroke-dashoffset:0;marker:none;visibility:visible;display:inline;overflow:visible;enable-background:accumulate" id="Rotor" d="M 40.800678,400 C 40.800678,422.53358 22.53359,440.80068 6e-6,440.80068 C -22.533597,440.80068 -40.800674,422.53358 -40.800674,400 C -40.800674,377.4664 -22.533597,359.19932 6e-6,359.19932 C 22.53359,359.19932 40.800678,377.4664 40.800678,400 z"/></g></g></g><g id="layer3" style="display:inline"><path style="color:#000;fill:#ff6000;fill-opacity:1;fill-rule:evenodd;stroke:#47adc5;stroke-width:1.0002594;stroke-linecap:butt;stroke-linejoin:miter;stroke-miterlimit:3;stroke-opacity:1;stroke-dasharray:none;stroke-dashoffset:0;marker:none;visibility:visible;display:inline;overflow:visible;enable-background:accumulate" id="ServoW" d="m 10,397.5 a 10,7.5 0 1 1 -20,0 10,7.5 0 1 1 20,0 z" transform="matrix(0.94540297,0,0,1.2605373,140.4225,-455.65278)"/><text style="font-size:16px;font-style:normal;font-weight:400;fill:#1f5f00;fill-opacity:1;stroke:#0f0;stroke-width:.5;stroke-miterlimit:.1;stroke-opacity:1;stroke-dasharray:none;font-family:Bitstream Vera Sans" id="ServoWtext" x="158" y="41" xml:space="preserve"><tspan id="tspan3639" x="158" y="41">ServoW</tspan></text></g><g style="display:inline" id="g3925"><path id="ServoX" d="m 10,397.5 a 10,7.5 0 1 1 -20,0 10,7.5 0 1 1 20,0 z" transform="matrix(0.94540297,0,0,1.2605373,142.4225,-424.81942)" style="color:#000;fill:#ff6000;fill-opacity:1;fill-rule:evenodd;stroke:#47adc5;stroke-width:1.0002594;stroke-linecap:butt;stroke-linejoin:miter;stroke-miterlimit:3;stroke-opacity:1;stroke-dasharray:none;stroke-dashoffset:0;marker:none;visibility:visible;display:inline;overflow:visible;enable-background:accumulate"/><text id="ServoXtext" x="158" y="75.667" xml:space="preserve" style="font-size:16px;font-style:normal;font-weight:400;fill:#1f5f00;fill-opacity:1;stroke:#0f0;stroke-width:.5;stroke-miterlimit:.1;stroke-opacity:1;stroke-dasharray:none;font-family:Bitstream Vera Sans"><tspan id="tspan3931" x="158" y="75.667">ServoX</tspan></text></g><g id="g3943" style="display:inline"><path style="color:#000;fill:#ff6000;fill-opacity:1;fill-rule:evenodd;stroke:#47adc5;stroke-width:1.0002594;stroke-linecap:butt;stroke-linejoin:miter;stroke-miterlimit:3;stroke-opacity:1;stroke-dasharray:none;stroke-dashoffset:0;marker:none;visibility:visible;display:inline;overflow:visible;enable-background:accumulate" id="ServoY" d="m 10,397.5 a 10,7.5 0 1 1 -20,0 10,7.5 0 1 1 20,0 z" transform="matrix(0.94540298,0,0,1.2605373,142.4225,-390.15277)"/><text style="font-size:16px;font-style:normal;font-weight:400;fill:#1f5f00;fill-opacity:1;stroke:#0f0;stroke-width:.5;stroke-miterlimit:.1;stroke-opacity:1;stroke-dasharray:none;font-family:Bitstream Vera Sans" id="ServoYtext" x="158" y="110.333" xml:space="preserve"><tspan id="tspan3951" x="158" y="110.333">ServoY</tspan></text></g><g style="display:inline" id="g3953"><path id="ServoZ" d="m 10,397.5 a 10,7.5 0 1 1 -20,0 10,7.5 0 1 1 20,0 z" transform="matrix(0.94540298,0,0,1.2605373,142.4225,-355.4861)" style="color:#000;fill:#ff6000;fill-opacity:1;fill-rule:evenodd;stroke:#47adc5;stroke-width:1.0002594;stroke-linecap:butt;stroke-linejoin:miter;stroke-miterlimit:3;stroke-opacity:1;stroke-dasharray:none;stroke-dashoffset:0;marker:none;visibility:visible;display:inline;overflow:visible;enable-background:accumulate"/><text id="ServoZtext" x="158" y="145" xml:space="preserve" style="font-size:16px;font-style:normal;font-weight:400;fill:#1f5f00;fill-opacity:1;stroke:#0f0;stroke-width:.5;stroke-miterlimit:.1;stroke-opacity:1;stroke-dasharray:none;font-family:Bitstream Vera Sans"><tspan id="tspan3963" x="158" y="145">ServoZ</tspan></text><path style="fill:#ff6e00;fill-opacity:1;stroke:#ff6e00;stroke-width:1px;stroke-linecap:butt;stroke-linejoin:miter;stroke-opacity:1" id="RadialZ" d="M 185.60761,186.1126 L 150.1962,151.94369"/></g></svg>