<svg xmlns="http://www.w3.org/2000/svg" xmlns:xlink="http://www.w3.org/1999/xlink" id="svg3247" width="48" height="48" version="1.0"><defs id="defs3249"><linearGradient id="linearGradient2411" x1="63.397" x2="63.397" y1="-12.489" y2="5.468" gradientTransform="matrix(2.1154 0 0 2.1153 -107.58 32.427)" gradientUnits="userSpaceOnUse"><stop id="stop4875" offset="0" style="stop-color:#fff"/><stop id="stop4877" offset="1" style="stop-color:#fff;stop-opacity:0"/></linearGradient><linearGradient id="linearGradient2416" x1="18.379" x2="18.379" y1="44.98" y2="3.082" gradientTransform="matrix(.95844 0 0 .95844 .99752 1.9975)" gradientUnits="userSpaceOnUse"><stop id="stop2492" offset="0" style="stop-color:#791235"/><stop id="stop2494" offset="1" style="stop-color:#dd3b27"/></linearGradient><radialGradient id="radialGradient2414" cx="23.896" cy="3.99" r="20.397" gradientTransform="matrix(0 2.2875 -3.0194 0 36.047 -50.63)" gradientUnits="userSpaceOnUse"><stop id="stop3244" offset="0" style="stop-color:#f8b17e"/><stop id="stop3246" offset=".262" style="stop-color:#e35d4f"/><stop id="stop3248" offset=".661" style="stop-color:#c6262e"/><stop id="stop3250" offset="1" style="stop-color:#690b54"/></radialGradient><radialGradient id="radialGradient2419" cx="62.625" cy="4.625" r="10.625" gradientTransform="matrix(2.1647 0 0 .75294 -111.56 36.518)" gradientUnits="userSpaceOnUse"><stop id="stop8840" offset="0"/><stop id="stop8842" offset="1" style="stop-opacity:0"/></radialGradient></defs><g id="layer1"><g id="g3275"><path id="path8836" d="m47 40c0 4.418-10.297 8-23 8s-23-3.582-23-8 10.297-8 23-8 23 3.582 23 8z" style="opacity:.3;fill-rule:evenodd;fill:url(#radialGradient2419)"/><path id="path2555" d="m24 5.5018c-10.758 0-19.498 8.7402-19.498 19.498-0.0002 10.758 8.74 19.498 19.498 19.498s19.498-8.74 19.498-19.498-8.74-19.498-19.498-19.498z" style="stroke-linejoin:round;stroke:url(#linearGradient2416);stroke-linecap:round;stroke-width:1.0037;fill:url(#radialGradient2414)"/><path id="path8655" d="m42.5 24.999c0 10.218-8.283 18.501-18.5 18.501s-18.5-8.283-18.5-18.501c0-10.217 8.283-18.499 18.5-18.499s18.5 8.282 18.5 18.499z" style="opacity:.4;stroke:url(#linearGradient2411);fill:none"/></g><g id="g3243" transform="translate(51.075 .56862)"><path id="path3295" d="m-29.451 12.554c0.563 5.5 1.208 10.961 1.687 16.482h1.53c0.397-5.302 1.038-10.571 1.501-15.867 0.236-1.254-0.408-2.742-1.732-3.047-1.308-0.3824-2.77 0.565-2.944 1.918-0.029 0.17-0.042 0.342-0.042 0.514zm-0.167 22.359c-0.059 1.637 1.742 2.92 3.28 2.401 1.489-0.38 2.274-2.252 1.51-3.583-0.683-1.375-2.687-1.829-3.84-0.776-0.582 0.479-0.968 1.194-0.95 1.958z" style="opacity:.2"/><path id="text2315" d="m-29.451 13.555c0.563 5.499 1.208 10.96 1.687 16.481h1.53c0.397-5.301 1.038-10.571 1.501-15.866 0.236-1.254-0.408-2.743-1.732-3.048-1.308-0.382-2.77 0.565-2.944 1.918-0.029 0.17-0.042 0.342-0.042 0.515zm-0.167 22.358c-0.059 1.637 1.742 2.921 3.28 2.402 1.489-0.381 2.274-2.253 1.51-3.584-0.683-1.375-2.687-1.828-3.84-0.776-0.582 0.479-0.968 1.194-0.95 1.958z" style="fill:#fff"/></g></g></svg>