<svg xmlns="http://www.w3.org/2000/svg" xmlns:svg="http://www.w3.org/2000/svg" xmlns:xlink="http://www.w3.org/1999/xlink" id="svg3258" width="48" height="48" version="1.0"><defs id="defs3260"><linearGradient id="linearGradient8838"><stop id="stop8840" offset="0" style="stop-color:black;stop-opacity:1"/><stop id="stop8842" offset="1" style="stop-color:black;stop-opacity:0"/></linearGradient><radialGradient id="radialGradient3254" cx="62.625" cy="4.625" r="10.625" fx="62.625" fy="4.625" gradientTransform="matrix(2.1647059,0,0,0.7529402,-111.56471,36.517647)" gradientUnits="userSpaceOnUse" xlink:href="#linearGradient8838"/><linearGradient id="linearGradient2490"><stop id="stop2492" offset="0" style="stop-color:#791235;stop-opacity:1"/><stop id="stop2494" offset="1" style="stop-color:#dd3b27;stop-opacity:1"/></linearGradient><linearGradient id="linearGradient3251" x1="18.379" x2="18.379" y1="44.98" y2="3.082" gradientTransform="matrix(0.9584364,0,0,0.9584366,0.9975246,1.9975253)" gradientUnits="userSpaceOnUse" xlink:href="#linearGradient2490"/><linearGradient id="linearGradient3242"><stop id="stop3244" offset="0" style="stop-color:#f8b17e;stop-opacity:1"/><stop id="stop3246" offset=".262" style="stop-color:#e35d4f;stop-opacity:1"/><stop id="stop3248" offset=".661" style="stop-color:#c6262e;stop-opacity:1"/><stop id="stop3250" offset="1" style="stop-color:#690b54;stop-opacity:1"/></linearGradient><radialGradient id="radialGradient3249" cx="23.896" cy="3.99" r="20.397" fx="23.896" fy="3.99" gradientTransform="matrix(0,2.2874593,-3.0194057,0,36.047437,-50.630156)" gradientUnits="userSpaceOnUse" xlink:href="#linearGradient3242"/><linearGradient id="linearGradient4873"><stop id="stop4875" offset="0" style="stop-color:white;stop-opacity:1"/><stop id="stop4877" offset="1" style="stop-color:white;stop-opacity:0"/></linearGradient><linearGradient id="linearGradient3246" x1="63.397" x2="63.397" y1="-12.489" y2="5.468" gradientTransform="matrix(2.1153735,0,0,2.1153253,-107.57709,32.426559)" gradientUnits="userSpaceOnUse" xlink:href="#linearGradient4873"/></defs><g id="layer1"><path id="path8836" d="m 46.999997,40 c 0,4.418278 -10.297452,8 -23,8 -12.702548,0 -23.0000002,-3.581722 -23.0000002,-8 0,-4.418278 10.2974522,-8 23.0000002,-8 12.702548,0 23,3.581722 23,8 l 0,0 z" style="opacity:.3;fill:url(#radialGradient3254);fill-opacity:1;fill-rule:evenodd;stroke:none;stroke-width:.99999988;marker:none;visibility:visible;display:inline;overflow:visible"/><path id="path2555" d="M 24.000002,5.5018088 C 13.241573,5.5018088 4.5018088,14.24157 4.5018088,25 c 0,10.75843 8.7397642,19.498195 19.4981932,19.498192 10.758425,0 19.498199,-8.739762 19.498189,-19.498192 0,-10.75843 -8.739764,-19.4981912 -19.498189,-19.4981912 z" style="fill:url(#radialGradient3249);fill-opacity:1;stroke:url(#linearGradient3251);stroke-width:1.003654;stroke-linecap:round;stroke-linejoin:round;stroke-miterlimit:4;stroke-opacity:1;stroke-dasharray:none;stroke-dashoffset:0"/><path id="path8655" d="M 42.500002,24.999344 C 42.500002,35.216942 34.21666,43.5 24.000235,43.5 13.782875,43.5 5.5000003,35.216848 5.5000003,24.999344 c 0,-10.217125 8.2828747,-18.4993439 18.5002347,-18.4993439 10.216425,0 18.499767,8.2822189 18.499767,18.4993439 l 0,0 z" style="opacity:.4;fill:none;stroke:url(#linearGradient3246);stroke-width:1;stroke-miterlimit:4;stroke-opacity:1;stroke-dasharray:none"/><path id="path3243" d="m -33.28125,16.3125 -2.96875,2.96875 6.125,6.09375 c 0.188168,0.19054 0.188168,0.49696 0,0.6875 l -6.125,6.09375 2.96875,2.96875 6.09375,-6.09375 c 0.19054,-0.188168 0.49696,-0.188168 0.6875,0 l 6.09375,6.09375 2.96875,-2.96875 -6.09375,-6.09375 c -0.188168,-0.19054 -0.188168,-0.49696 0,-0.6875 L -17.4375,19.28125 -20.40625,16.3125 -26.5,22.40625 c -0.19054,0.188168 -0.49696,0.188168 -0.6875,0 l -6.09375,-6.09375 z" transform="translate(50.84375,-2.1249996)" style="opacity:.2;fill:#000;fill-opacity:1;fill-rule:evenodd;stroke:none"/><path id="path3256" d="m -33.28125,16.3125 -2.96875,2.96875 6.125,6.09375 c 0.188168,0.19054 0.188168,0.49696 0,0.6875 l -6.125,6.09375 2.96875,2.96875 6.09375,-6.09375 c 0.19054,-0.188168 0.49696,-0.188168 0.6875,0 l 6.09375,6.09375 2.96875,-2.96875 -6.09375,-6.09375 c -0.188168,-0.19054 -0.188168,-0.49696 0,-0.6875 L -17.4375,19.28125 -20.40625,16.3125 -26.5,22.40625 c -0.19054,0.188168 -0.49696,0.188168 -0.6875,0 l -6.09375,-6.09375 z" transform="translate(50.84375,-1.1249996)" style="fill:#fff;fill-opacity:1;fill-rule:evenodd;stroke:none"/></g></svg>