<svg xmlns="http://www.w3.org/2000/svg" xmlns:svg="http://www.w3.org/2000/svg" xmlns:xlink="http://www.w3.org/1999/xlink" id="svg10068" width="304.015" height="289.873" version="1.1" style="display:inline"><defs id="defs10070"><marker id="Arrow2Sstart" orient="auto" refX="0" refY="0" style="overflow:visible"><path id="path4640" d="M 8.7185878,4.0337352 -2.2072895,0.01601326 8.7185884,-4.0017078 c -1.7454984,2.3720609 -1.7354408,5.6174519 -6e-7,8.035443 z" transform="matrix(0.3,0,0,0.3,-0.69,0)" style="font-size:12px;fill-rule:evenodd;stroke-width:.625;stroke-linejoin:round"/></marker><linearGradient id="linearGradient5318" x1="-29.837" x2="-29.837" y1="285.06" y2="342.606" gradientTransform="matrix(2.2532936,0,0,2.206809,446.89077,-285.33499)" gradientUnits="userSpaceOnUse" xlink:href="#linearGradient8928"/><linearGradient id="linearGradient8928"><stop style="stop-color:#fff;stop-opacity:.89156628" id="stop8930" offset="0"/><stop style="stop-color:#fff;stop-opacity:0" id="stop8932" offset="1"/></linearGradient><linearGradient id="linearGradient4337" x1="-29.837" x2="-29.837" y1="285.06" y2="342.606" gradientTransform="matrix(2.2300513,0,0,2.206809,217.88644,-653.85766)" gradientUnits="userSpaceOnUse" xlink:href="#linearGradient8928"/></defs><metadata id="metadata10073"/><g style="display:inline" id="background" transform="translate(-228.56377,-366.85416)"><g id="g4687"><rect style="fill:#000;fill-opacity:1;stroke:#000;stroke-width:4.1988477700000004;stroke-miterlimit:10;stroke-opacity:1;stroke-dasharray:none;stroke-dashoffset:0" id="rect2936" width="299.816" height="285.674" x="230.663" y="368.954" ry="21.082"/><path style="fill:#000;fill-opacity:1;stroke:#fff;stroke-width:4;stroke-miterlimit:10;stroke-opacity:1;stroke-dasharray:none;stroke-dashoffset:0" id="path2938" d="m 371.73615,850.33167 c 0,75.87329 -61.50746,137.38075 -137.38076,137.38075 -75.87329,0 -137.38075,-61.50746 -137.38075,-137.38075 0,-75.8733 61.50746,-137.38076 137.38075,-137.38076 75.8733,0 137.38076,61.50746 137.38076,137.38076 z" transform="translate(146.21603,-338.54092)"/></g></g><g id="needle" transform="translate(-228.56377,-366.85416)" style="display:inline"><g id="g3984"><g id="g11093" transform="matrix(1.0475953,0,0,1.0601734,-17.769643,-30.796186)"><g style="display:inline" id="g9905" transform="translate(130.60915,-346.07144)"><g id="g9763"><path style="fill:none;stroke:#fff;stroke-width:3;stroke-linecap:butt;stroke-linejoin:miter;stroke-miterlimit:4;stroke-opacity:1;stroke-dasharray:none" id="path9559" d="m 249.96225,756.92024 0,-25"/><path style="fill:none;stroke:#fff;stroke-width:4;stroke-linecap:round;stroke-linejoin:miter;stroke-miterlimit:4;stroke-opacity:1;stroke-dasharray:none" id="path9561" d="m 236.39201,755.83184 0,-0.35355"/></g><g id="g9767" transform="matrix(0.96592583,-0.25881905,0.25881905,0.96592583,-213.51381,93.925936)"><path id="path9769" d="m 249.96225,756.92024 0,-25" style="fill:none;stroke:#fff;stroke-width:3;stroke-linecap:butt;stroke-linejoin:miter;stroke-miterlimit:4;stroke-opacity:1;stroke-dasharray:none"/><path id="path9771" d="m 236.39201,755.83184 0,-0.35355" style="fill:none;stroke:#fff;stroke-width:4;stroke-linecap:round;stroke-linejoin:miter;stroke-miterlimit:4;stroke-opacity:1;stroke-dasharray:none"/></g><g id="g9773" transform="matrix(0.86602541,-0.50000001,0.50000001,0.86602541,-395.4425,239.91286)"><path style="fill:none;stroke:#fff;stroke-width:3;stroke-linecap:butt;stroke-linejoin:miter;stroke-miterlimit:4;stroke-opacity:1;stroke-dasharray:none" id="path9775" d="m 249.96225,756.92024 0,-25"/><path style="fill:none;stroke:#fff;stroke-width:4;stroke-linecap:round;stroke-linejoin:miter;stroke-miterlimit:4;stroke-opacity:1;stroke-dasharray:none" id="path9777" d="m 236.39201,755.83184 0,-0.35355"/></g><g id="g9779" transform="matrix(0.70710678,-0.70710679,0.70710679,0.70710678,-533.38792,428.01201)"><path id="path9781" d="m 249.96225,756.92024 0,-25" style="fill:none;stroke:#fff;stroke-width:3;stroke-linecap:butt;stroke-linejoin:miter;stroke-miterlimit:4;stroke-opacity:1;stroke-dasharray:none"/><path id="path9783" d="m 236.39201,755.83184 0,-0.35355" style="fill:none;stroke:#fff;stroke-width:4;stroke-linecap:round;stroke-linejoin:miter;stroke-miterlimit:4;stroke-opacity:1;stroke-dasharray:none"/></g><g id="g9785" transform="matrix(0.5,-0.86602541,0.86602541,0.5,-617.94932,645.40474)"><path style="fill:none;stroke:#fff;stroke-width:3;stroke-linecap:butt;stroke-linejoin:miter;stroke-miterlimit:4;stroke-opacity:1;stroke-dasharray:none" id="path9787" d="m 249.96225,756.92024 0,-25"/><path style="fill:none;stroke:#fff;stroke-width:4;stroke-linecap:round;stroke-linejoin:miter;stroke-miterlimit:4;stroke-opacity:1;stroke-dasharray:none" id="path9789" d="m 236.39201,755.83184 0,-0.35355"/></g><g id="g9791" transform="matrix(0.25881904,-0.96592583,0.96592583,0.25881904,-643.36398,877.2761)"><path id="path9793" d="m 249.96225,756.92024 0,-25" style="fill:none;stroke:#fff;stroke-width:3;stroke-linecap:butt;stroke-linejoin:miter;stroke-miterlimit:4;stroke-opacity:1;stroke-dasharray:none"/><path id="path9795" d="m 236.39201,755.83184 0,-0.35355" style="fill:none;stroke:#fff;stroke-width:4;stroke-linecap:round;stroke-linejoin:miter;stroke-miterlimit:4;stroke-opacity:1;stroke-dasharray:none"/></g><g id="g9797" transform="matrix(0,-1,1,0,-607.89994,1107.8244)"><path style="fill:none;stroke:#fff;stroke-width:3;stroke-linecap:butt;stroke-linejoin:miter;stroke-miterlimit:4;stroke-opacity:1;stroke-dasharray:none" id="path9799" d="m 249.96225,756.92024 0,-25"/><path style="fill:none;stroke:#fff;stroke-width:4;stroke-linecap:round;stroke-linejoin:miter;stroke-miterlimit:4;stroke-opacity:1;stroke-dasharray:none" id="path9801" d="m 236.39201,755.83184 0,-0.35355"/></g><g id="g9803" transform="matrix(-0.25881905,-0.96592583,0.96592583,-0.25881905,-513.97401,1321.3382)"><path id="path9805" d="m 249.96225,756.92024 0,-25" style="fill:none;stroke:#fff;stroke-width:3;stroke-linecap:butt;stroke-linejoin:miter;stroke-miterlimit:4;stroke-opacity:1;stroke-dasharray:none"/><path id="path9807" d="m 236.39201,755.83184 0,-0.35355" style="fill:none;stroke:#fff;stroke-width:4;stroke-linecap:round;stroke-linejoin:miter;stroke-miterlimit:4;stroke-opacity:1;stroke-dasharray:none"/></g><g id="g9809" transform="matrix(-0.50000001,-0.86602541,0.86602541,-0.50000001,-367.98709,1503.2669)"><path style="fill:none;stroke:#fff;stroke-width:3;stroke-linecap:butt;stroke-linejoin:miter;stroke-miterlimit:4;stroke-opacity:1;stroke-dasharray:none" id="path9811" d="m 249.96225,756.92024 0,-25"/><path style="fill:none;stroke:#fff;stroke-width:4;stroke-linecap:round;stroke-linejoin:miter;stroke-miterlimit:4;stroke-opacity:1;stroke-dasharray:none" id="path9813" d="m 236.39201,755.83184 0,-0.35355"/></g><g id="g9815" transform="matrix(-0.70710679,-0.70710678,0.70710678,-0.70710679,-179.88794,1641.2123)"><path id="path9817" d="m 249.96225,756.92024 0,-25" style="fill:none;stroke:#fff;stroke-width:3;stroke-linecap:butt;stroke-linejoin:miter;stroke-miterlimit:4;stroke-opacity:1;stroke-dasharray:none"/><path id="path9819" d="m 236.39201,755.83184 0,-0.35355" style="fill:none;stroke:#fff;stroke-width:4;stroke-linecap:round;stroke-linejoin:miter;stroke-miterlimit:4;stroke-opacity:1;stroke-dasharray:none"/></g><g id="g9821" transform="matrix(-0.86602541,-0.5,0.5,-0.86602541,37.504779,1725.7737)"><path style="fill:none;stroke:#fff;stroke-width:3;stroke-linecap:butt;stroke-linejoin:miter;stroke-miterlimit:4;stroke-opacity:1;stroke-dasharray:none" id="path9823" d="m 249.96225,756.92024 0,-25"/><path style="fill:none;stroke:#fff;stroke-width:4;stroke-linecap:round;stroke-linejoin:miter;stroke-miterlimit:4;stroke-opacity:1;stroke-dasharray:none" id="path9825" d="m 236.39201,755.83184 0,-0.35355"/></g><g id="g9827" transform="matrix(-0.96592583,-0.25881904,0.25881904,-0.96592583,269.37612,1751.1884)"><path id="path9829" d="m 249.96225,756.92024 0,-25" style="fill:none;stroke:#fff;stroke-width:3;stroke-linecap:butt;stroke-linejoin:miter;stroke-miterlimit:4;stroke-opacity:1;stroke-dasharray:none"/><path id="path9831" d="m 236.39201,755.83184 0,-0.35355" style="fill:none;stroke:#fff;stroke-width:4;stroke-linecap:round;stroke-linejoin:miter;stroke-miterlimit:4;stroke-opacity:1;stroke-dasharray:none"/></g><g id="g9833" transform="matrix(-1,0,0,-1,499.92445,1715.7244)"><path style="fill:none;stroke:#fff;stroke-width:3;stroke-linecap:butt;stroke-linejoin:miter;stroke-miterlimit:4;stroke-opacity:1;stroke-dasharray:none" id="path9835" d="m 249.96225,756.92024 0,-25"/><path style="fill:none;stroke:#fff;stroke-width:4;stroke-linecap:round;stroke-linejoin:miter;stroke-miterlimit:4;stroke-opacity:1;stroke-dasharray:none" id="path9837" d="m 236.39201,755.83184 0,-0.35355"/></g><g id="g9839" transform="matrix(-0.96592583,0.25881905,-0.25881905,-0.96592583,713.43828,1621.7985)"><path id="path9841" d="m 249.96225,756.92024 0,-25" style="fill:none;stroke:#fff;stroke-width:3;stroke-linecap:butt;stroke-linejoin:miter;stroke-miterlimit:4;stroke-opacity:1;stroke-dasharray:none"/><path id="path9843" d="m 236.39201,755.83184 0,-0.35355" style="fill:none;stroke:#fff;stroke-width:4;stroke-linecap:round;stroke-linejoin:miter;stroke-miterlimit:4;stroke-opacity:1;stroke-dasharray:none"/></g><g id="g9845" transform="matrix(-0.86602541,0.50000001,-0.50000001,-0.86602541,895.36699,1475.8116)"><path style="fill:none;stroke:#fff;stroke-width:3;stroke-linecap:butt;stroke-linejoin:miter;stroke-miterlimit:4;stroke-opacity:1;stroke-dasharray:none" id="path9847" d="m 249.96225,756.92024 0,-25"/><path style="fill:none;stroke:#fff;stroke-width:4;stroke-linecap:round;stroke-linejoin:miter;stroke-miterlimit:4;stroke-opacity:1;stroke-dasharray:none" id="path9849" d="m 236.39201,755.83184 0,-0.35355"/></g><g id="g9851" transform="matrix(-0.70710678,0.70710679,-0.70710679,-0.70710678,1033.3124,1287.7124)"><path id="path9853" d="m 249.96225,756.92024 0,-25" style="fill:none;stroke:#fff;stroke-width:3;stroke-linecap:butt;stroke-linejoin:miter;stroke-miterlimit:4;stroke-opacity:1;stroke-dasharray:none"/><path id="path9855" d="m 236.39201,755.83184 0,-0.35355" style="fill:none;stroke:#fff;stroke-width:4;stroke-linecap:round;stroke-linejoin:miter;stroke-miterlimit:4;stroke-opacity:1;stroke-dasharray:none"/></g><g id="g9857" transform="matrix(-0.5,0.86602541,-0.86602541,-0.5,1117.8738,1070.3197)"><path style="fill:none;stroke:#fff;stroke-width:3;stroke-linecap:butt;stroke-linejoin:miter;stroke-miterlimit:4;stroke-opacity:1;stroke-dasharray:none" id="path9859" d="m 249.96225,756.92024 0,-25"/><path style="fill:none;stroke:#fff;stroke-width:4;stroke-linecap:round;stroke-linejoin:miter;stroke-miterlimit:4;stroke-opacity:1;stroke-dasharray:none" id="path9861" d="m 236.39201,755.83184 0,-0.35355"/></g><g id="g9863" transform="matrix(-0.25881904,0.96592583,-0.96592583,-0.25881904,1143.2885,838.44835)"><path id="path9865" d="m 249.96225,756.92024 0,-25" style="fill:none;stroke:#fff;stroke-width:3;stroke-linecap:butt;stroke-linejoin:miter;stroke-miterlimit:4;stroke-opacity:1;stroke-dasharray:none"/><path id="path9867" d="m 236.39201,755.83184 0,-0.35355" style="fill:none;stroke:#fff;stroke-width:4;stroke-linecap:round;stroke-linejoin:miter;stroke-miterlimit:4;stroke-opacity:1;stroke-dasharray:none"/></g><g id="g9869" transform="matrix(0,1,-1,0,1107.8245,607.90001)"><path style="fill:none;stroke:#fff;stroke-width:3;stroke-linecap:butt;stroke-linejoin:miter;stroke-miterlimit:4;stroke-opacity:1;stroke-dasharray:none" id="path9871" d="m 249.96225,756.92024 0,-25"/><path style="fill:none;stroke:#fff;stroke-width:4;stroke-linecap:round;stroke-linejoin:miter;stroke-miterlimit:4;stroke-opacity:1;stroke-dasharray:none" id="path9873" d="m 236.39201,755.83184 0,-0.35355"/></g><g id="g9875" transform="matrix(0.25881905,0.96592583,-0.96592583,0.25881905,1013.8986,394.38618)"><path id="path9877" d="m 249.96225,756.92024 0,-25" style="fill:none;stroke:#fff;stroke-width:3;stroke-linecap:butt;stroke-linejoin:miter;stroke-miterlimit:4;stroke-opacity:1;stroke-dasharray:none"/><path id="path9879" d="m 236.39201,755.83184 0,-0.35355" style="fill:none;stroke:#fff;stroke-width:4;stroke-linecap:round;stroke-linejoin:miter;stroke-miterlimit:4;stroke-opacity:1;stroke-dasharray:none"/></g><g id="g9881" transform="matrix(0.50000001,0.86602541,-0.86602541,0.50000001,867.91168,212.45747)"><path style="fill:none;stroke:#fff;stroke-width:3;stroke-linecap:butt;stroke-linejoin:miter;stroke-miterlimit:4;stroke-opacity:1;stroke-dasharray:none" id="path9883" d="m 249.96225,756.92024 0,-25"/><path style="fill:none;stroke:#fff;stroke-width:4;stroke-linecap:round;stroke-linejoin:miter;stroke-miterlimit:4;stroke-opacity:1;stroke-dasharray:none" id="path9885" d="m 236.39201,755.83184 0,-0.35355"/></g><g id="g9887" transform="matrix(0.70710679,0.70710678,-0.70710678,0.70710679,679.81253,74.512022)"><path id="path9889" d="m 249.96225,756.92024 0,-25" style="fill:none;stroke:#fff;stroke-width:3;stroke-linecap:butt;stroke-linejoin:miter;stroke-miterlimit:4;stroke-opacity:1;stroke-dasharray:none"/><path id="path9891" d="m 236.39201,755.83184 0,-0.35355" style="fill:none;stroke:#fff;stroke-width:4;stroke-linecap:round;stroke-linejoin:miter;stroke-miterlimit:4;stroke-opacity:1;stroke-dasharray:none"/></g><g id="g9893" transform="matrix(0.86602541,0.5,-0.5,0.86602541,462.4198,-10.049407)"><path style="fill:none;stroke:#fff;stroke-width:3;stroke-linecap:butt;stroke-linejoin:miter;stroke-miterlimit:4;stroke-opacity:1;stroke-dasharray:none" id="path9895" d="m 249.96225,756.92024 0,-25"/><path style="fill:none;stroke:#fff;stroke-width:4;stroke-linecap:round;stroke-linejoin:miter;stroke-miterlimit:4;stroke-opacity:1;stroke-dasharray:none" id="path9897" d="m 236.39201,755.83184 0,-0.35355"/></g><g id="g9899" transform="matrix(0.96592583,0.25881904,-0.25881904,0.96592583,230.54844,-35.464096)"><path id="path9901" d="m 249.96225,756.92024 0,-25" style="fill:none;stroke:#fff;stroke-width:3;stroke-linecap:butt;stroke-linejoin:miter;stroke-miterlimit:4;stroke-opacity:1;stroke-dasharray:none"/><path id="path9903" d="m 236.39201,755.83184 0,-0.35355" style="fill:none;stroke:#fff;stroke-width:4;stroke-linecap:round;stroke-linejoin:miter;stroke-miterlimit:4;stroke-opacity:1;stroke-dasharray:none"/></g></g><text style="font-size:40px;font-style:normal;font-weight:400;fill:#ff8c00;fill-opacity:1;stroke:none;font-family:Bitstream Vera Sans" id="text10531" x="369.834" y="436.648" xml:space="preserve"><tspan id="tspan10533" x="369.834" y="436.648" style="font-size:30px;font-style:normal;font-variant:normal;font-weight:400;font-stretch:normal;fill:#ff8c00;fill-opacity:1;font-family:Berlin Sans FB;-inkscape-font-specification:Berlin Sans FB">N</tspan></text><text id="text11049" x="63.023" y="558.386" transform="matrix(0.8660254,-0.5,0.5,0.8660254,0,0)" xml:space="preserve" style="font-size:40px;font-style:normal;font-weight:400;fill:#000;fill-opacity:1;stroke:none;font-family:Bitstream Vera Sans"><tspan style="font-size:23.72219086px;font-style:normal;font-variant:normal;font-weight:400;font-stretch:normal;fill:#fff;fill-opacity:1;font-family:Berlin Sans FB;-inkscape-font-specification:Berlin Sans FB" id="tspan11051" x="63.023" y="558.386">33</tspan></text><text style="font-size:40px;font-style:normal;font-weight:400;fill:#000;fill-opacity:1;stroke:none;font-family:Bitstream Vera Sans" id="text11053" x="-263.552" y="510.408" transform="matrix(0.5,-0.8660254,0.8660254,0.5,0,0)" xml:space="preserve"><tspan id="tspan11055" x="-263.552" y="510.408" style="font-size:23.72219086px;font-style:normal;font-variant:normal;font-weight:400;font-stretch:normal;fill:#fff;fill-opacity:1;font-family:Berlin Sans FB;-inkscape-font-specification:Berlin Sans FB">30</tspan></text><text id="text11057" x="-522.385" y="305.571" transform="matrix(0,-1,1,0,0,0)" xml:space="preserve" style="font-size:40px;font-style:normal;font-weight:400;fill:#fff;fill-opacity:1;stroke:none;font-family:Bitstream Vera Sans"><tspan style="font-size:30px;font-style:normal;font-variant:normal;font-weight:400;font-stretch:normal;fill:#ff8c00;fill-opacity:1;font-family:Berlin Sans FB;-inkscape-font-specification:Berlin Sans FB" id="tspan11059" x="-522.385" y="305.571">W</tspan></text><text style="font-size:40px;font-style:normal;font-weight:400;fill:#000;fill-opacity:1;stroke:none;font-family:Bitstream Vera Sans" id="text11061" x="-644.123" y="-1.239" transform="matrix(-0.5,-0.8660254,0.8660254,-0.5,0,0)" xml:space="preserve"><tspan id="tspan11063" x="-644.123" y="-1.239" style="font-size:23.72219086px;font-style:normal;font-variant:normal;font-weight:400;font-stretch:normal;fill:#fff;fill-opacity:1;font-family:Berlin Sans FB;-inkscape-font-specification:Berlin Sans FB">24</tspan></text><text id="text11065" x="-596.146" y="-327.814" transform="matrix(-0.8660254,-0.5,0.5,-0.8660254,0,0)" xml:space="preserve" style="font-size:40px;font-style:normal;font-weight:400;fill:#000;fill-opacity:1;stroke:none;font-family:Bitstream Vera Sans"><tspan style="font-size:23.72219086px;font-style:normal;font-variant:normal;font-weight:400;font-stretch:normal;fill:#fff;fill-opacity:1;font-family:Berlin Sans FB;-inkscape-font-specification:Berlin Sans FB" id="tspan11067" x="-596.146" y="-327.814">21</tspan></text><text style="font-size:40px;font-style:normal;font-weight:400;fill:#ff8c00;fill-opacity:1;stroke:none;font-family:Bitstream Vera Sans" id="text11069" x="-391.309" y="-586.648" transform="scale(-1,-1)" xml:space="preserve"><tspan id="tspan11071" x="-391.309" y="-586.648" style="font-size:30px;font-style:normal;font-variant:normal;font-weight:400;font-stretch:normal;fill:#ff8c00;fill-opacity:1;font-family:Berlin Sans FB;-inkscape-font-specification:Berlin Sans FB">S</tspan></text><text id="text11073" x="-84.498" y="-708.386" transform="matrix(-0.8660254,0.5,-0.5,-0.8660254,0,0)" xml:space="preserve" style="font-size:40px;font-style:normal;font-weight:400;fill:#000;fill-opacity:1;stroke:none;font-family:Bitstream Vera Sans"><tspan style="font-size:23.72219086px;font-style:normal;font-variant:normal;font-weight:400;font-stretch:normal;fill:#fff;fill-opacity:1;font-family:Berlin Sans FB;-inkscape-font-specification:Berlin Sans FB" id="tspan11075" x="-84.498" y="-708.386">15</tspan></text><text style="font-size:40px;font-style:normal;font-weight:400;fill:#000;fill-opacity:1;stroke:none;font-family:Bitstream Vera Sans" id="text11077" x="242.077" y="-660.408" transform="matrix(-0.5,0.8660254,-0.8660254,-0.5,0,0)" xml:space="preserve"><tspan id="tspan11079" x="242.077" y="-660.408" style="font-size:23.72219086px;font-style:normal;font-variant:normal;font-weight:400;font-stretch:normal;fill:#fff;fill-opacity:1;font-family:Berlin Sans FB;-inkscape-font-specification:Berlin Sans FB">12</tspan></text><text id="text11081" x="500.911" y="-455.571" transform="matrix(0,1,-1,0,0,0)" xml:space="preserve" style="font-size:40px;font-style:normal;font-weight:400;fill:#ff8c00;fill-opacity:1;stroke:none;font-family:Bitstream Vera Sans"><tspan style="font-size:30px;font-style:normal;font-variant:normal;font-weight:400;font-stretch:normal;fill:#ff8c00;fill-opacity:1;font-family:Berlin Sans FB;-inkscape-font-specification:Berlin Sans FB" id="tspan11083" x="500.911" y="-455.571">E</tspan></text><text style="font-size:40px;font-style:normal;font-weight:400;fill:#000;fill-opacity:1;stroke:none;font-family:Bitstream Vera Sans" id="text11085" x="622.648" y="-148.761" transform="matrix(0.5,0.8660254,-0.8660254,0.5,0,0)" xml:space="preserve"><tspan id="tspan11087" x="622.648" y="-148.761" style="font-size:23.72219086px;font-style:normal;font-variant:normal;font-weight:400;font-stretch:normal;fill:#fff;fill-opacity:1;font-family:Berlin Sans FB;-inkscape-font-specification:Berlin Sans FB">6</tspan></text><text id="text11089" x="574.671" y="177.814" transform="matrix(0.8660254,0.5,-0.5,0.8660254,0,0)" xml:space="preserve" style="font-size:40px;font-style:normal;font-weight:400;fill:#000;fill-opacity:1;stroke:none;font-family:Bitstream Vera Sans"><tspan style="font-size:23.72219086px;font-style:normal;font-variant:normal;font-weight:400;font-stretch:normal;fill:#fff;fill-opacity:1;font-family:Berlin Sans FB;-inkscape-font-specification:Berlin Sans FB" id="tspan11091" x="574.671" y="177.814">3</tspan></text></g><rect id="rect2963" width="299.816" height="285.674" x="230.663" y="368.954" ry="21.082" style="fill:none;stroke:none"/></g></g><g id="foreground" transform="translate(-228.56377,-366.85416)" style="display:inline"><g id="g3875"><path style="fill:none;stroke:#fff;stroke-width:3;stroke-linecap:butt;stroke-linejoin:miter;stroke-miterlimit:4;stroke-opacity:1;stroke-dasharray:none;display:inline" id="path34138-1-7" d="m 380.58469,417.14078 0,21.07143 c 6.45792,10.6389 8.26559,22.59619 8.57143,35.60127 l 39.46429,37.61301 1.16071,14.28571 -41.33929,-22.23214 -1.42857,35.625 15.62501,15.17857 -0.26786,12.14287 -17.5,-10 -3.93249,5.19207 -0.7369,7.2e-4 -3.92858,-5.17856 -17.5,10 -0.26786,-12.14287 15.62501,-15.17857 -1.42857,-35.625 -41.33929,22.23214 1.16071,-14.28571 39.46429,-37.61301 c 0.30584,-13.00508 2.11351,-24.96237 8.57143,-35.60127 l 0,-21.07143"/><rect id="rect3853" width="304.102" height="289.246" x="228.52" y="366.811" ry="21.345" style="fill:none;stroke:none"/></g></g></svg>