<svg xmlns="http://www.w3.org/2000/svg" xmlns:svg="http://www.w3.org/2000/svg" xmlns:xlink="http://www.w3.org/1999/xlink" id="svg10068" width="229.278" height="80.828" version="1.1" style="display:inline"><defs id="defs10070"><marker id="Arrow2Sstart" orient="auto" refX="0" refY="0" style="overflow:visible"><path id="path4640" d="M 8.7185878,4.0337352 -2.2072895,0.01601326 8.7185884,-4.0017078 c -1.7454984,2.3720609 -1.7354408,5.6174519 -6e-7,8.035443 z" transform="matrix(0.3,0,0,0.3,-0.69,0)" style="font-size:12px;fill-rule:evenodd;stroke-width:.625;stroke-linejoin:round"/></marker><linearGradient id="linearGradient5318" x1="-29.837" x2="-29.837" y1="285.06" y2="342.606" gradientTransform="matrix(2.2532936,0,0,2.206809,446.89077,-285.33499)" gradientUnits="userSpaceOnUse" xlink:href="#linearGradient8928"/><linearGradient id="linearGradient8928"><stop style="stop-color:#fff;stop-opacity:.89156628" id="stop8930" offset="0"/><stop style="stop-color:#fff;stop-opacity:0" id="stop8932" offset="1"/></linearGradient><linearGradient id="linearGradient7065"><stop id="stop7067" offset="0" style="stop-color:#000;stop-opacity:1"/><stop style="stop-color:#373737;stop-opacity:1" id="stop7071" offset=".5"/><stop id="stop7075" offset="1" style="stop-color:#000;stop-opacity:1"/></linearGradient><linearGradient id="linearGradient3134"><stop style="stop-color:#000;stop-opacity:1" id="stop3136" offset="0"/><stop id="stop3146" offset=".25" style="stop-color:#464646;stop-opacity:1"/><stop id="stop3142" offset=".5" style="stop-color:#373737;stop-opacity:1"/><stop style="stop-color:#626262;stop-opacity:1" id="stop3144" offset=".75"/><stop style="stop-color:#000;stop-opacity:1" id="stop3138" offset="1"/></linearGradient><linearGradient id="linearGradient3195"><stop id="stop3197" offset="0" style="stop-color:#000;stop-opacity:1"/><stop style="stop-color:#464646;stop-opacity:1" id="stop3199" offset=".25"/><stop style="stop-color:#373737;stop-opacity:1" id="stop3201" offset=".5"/><stop id="stop3203" offset=".75" style="stop-color:#626262;stop-opacity:1"/><stop id="stop3205" offset="1" style="stop-color:#000;stop-opacity:1"/></linearGradient><linearGradient id="linearGradient5100"><stop style="stop-color:#5e422c;stop-opacity:1" id="stop5102" offset="0"/><stop style="stop-color:#d5bba6;stop-opacity:1" id="stop5104" offset="1"/></linearGradient><linearGradient id="linearGradient7087"><stop id="stop7089" offset="0" style="stop-color:#b66100;stop-opacity:1"/><stop style="stop-color:#ffa31b;stop-opacity:1" id="stop7091" offset=".25"/><stop style="stop-color:#a25600;stop-opacity:1" id="stop7093" offset=".5"/><stop id="stop7095" offset=".75" style="stop-color:#ffab49;stop-opacity:1"/><stop id="stop7097" offset="1" style="stop-color:#8d4b00;stop-opacity:1"/></linearGradient><linearGradient id="linearGradient8125"><stop style="stop-color:#777;stop-opacity:1" id="stop8127" offset="0"/><stop id="stop8131" offset=".5" style="stop-color:#e6e6e6;stop-opacity:1"/><stop style="stop-color:#777;stop-opacity:1" id="stop8133" offset=".75"/><stop style="stop-color:#fff;stop-opacity:1" id="stop8129" offset="1"/></linearGradient><linearGradient id="linearGradient8108"><stop id="stop8110" offset="0" style="stop-color:#777;stop-opacity:1"/><stop id="stop8112" offset="1" style="stop-color:#fff;stop-opacity:1"/></linearGradient><linearGradient id="linearGradient10109"><stop style="stop-color:#fff;stop-opacity:0" id="stop10111" offset="0"/><stop style="stop-color:#fff;stop-opacity:1" id="stop10113" offset="1"/></linearGradient><linearGradient id="linearGradient3443" x1="133.81" x2="132.275" y1="42.69" y2="32.27" gradientUnits="userSpaceOnUse" xlink:href="#linearGradient10101"/><linearGradient id="linearGradient10101"><stop id="stop10103" offset="0" style="stop-color:#fff;stop-opacity:1"/><stop id="stop10105" offset="1" style="stop-color:#fff;stop-opacity:0"/></linearGradient></defs><metadata id="metadata10073"/><g style="display:inline" id="g2932" transform="translate(-205.8687,-331.45166)"><g id="background"><rect style="fill:#453e3e;fill-opacity:1;stroke:#000;stroke-width:3.36186838;stroke-miterlimit:10;stroke-opacity:1;stroke-dasharray:none;stroke-dashoffset:0" id="rect2936" width="225.916" height="77.466" x="207.55" y="333.133" ry="5.717"/><rect id="bargraph" width="151.415" height="64.785" x="265.973" y="339.174" ry="4.781" style="fill:#000;fill-opacity:1;stroke:none"/><g style="display:inline" id="g6604" transform="translate(229.23003,365.4229)"><rect id="rect6074" width="13.863" height="9.226" x="44.718" y="25.372" ry="2" style="opacity:.98000003999999996;fill:#fff;fill-opacity:1;stroke:none;stroke-width:1.5;stroke-linecap:butt;stroke-linejoin:miter;stroke-miterlimit:4;stroke-opacity:1;stroke-dasharray:none;stroke-dashoffset:0"/><rect style="opacity:.98000003999999996;fill:#fff;fill-opacity:1;stroke:none;stroke-width:1.5;stroke-linecap:butt;stroke-linejoin:miter;stroke-miterlimit:4;stroke-opacity:1;stroke-dasharray:none;stroke-dashoffset:0" id="rect6076" width="13.542" height="18.905" x="68.879" y="15.532" ry="2"/><rect id="rect6078" width="13.301" height="28.664" x="93" y="5.653" ry="2" style="opacity:.98000003999999996;fill:#fff;fill-opacity:1;stroke:none;stroke-width:1.5;stroke-linecap:butt;stroke-linejoin:miter;stroke-miterlimit:4;stroke-opacity:1;stroke-dasharray:none;stroke-dashoffset:0"/><rect style="opacity:.98000003999999996;fill:#fff;fill-opacity:1;stroke:none;stroke-width:1.5;stroke-linecap:butt;stroke-linejoin:miter;stroke-miterlimit:4;stroke-opacity:1;stroke-dasharray:none;stroke-dashoffset:0" id="rect6080" width="13.101" height="38.464" x="117.1" y="-4.247" ry="2"/><rect id="rect6082" width="12.927" height="48.29" x="143.186" y="-14.16" ry="2" style="opacity:.98000003999999996;fill:#fff;fill-opacity:1;stroke:none;stroke-width:1.5;stroke-linecap:butt;stroke-linejoin:miter;stroke-miterlimit:4;stroke-opacity:1;stroke-dasharray:none;stroke-dashoffset:0"/><rect style="opacity:.98000003999999996;fill:#fff;fill-opacity:1;stroke:none;stroke-width:1.5;stroke-linecap:butt;stroke-linejoin:miter;stroke-miterlimit:4;stroke-opacity:1;stroke-dasharray:none;stroke-dashoffset:0" id="rect6084" width="12.772" height="58.135" x="169.264" y="-24.083" ry="2"/></g><rect style="fill:#000;fill-opacity:1;stroke:none" id="rect3718" width="52.799" height="37.511" x="213.427" y="366.448" ry="2.768"/></g></g><g id="layer5" transform="translate(21.574609,34.282029)" style="display:none"><rect style="fill:#04b629;fill-opacity:1;stroke:none;display:inline" id="green" width="260.539" height="9.254" x="129.935" y="-48.797" ry=".683"/></g><g id="layer4" transform="translate(21.574609,34.282029)" style="display:none"><g id="g3793" transform="translate(-2.5253814,87.378195)"><rect id="rect3773" width="260.539" height="9.254" x="250.302" y="395.165" ry=".683" transform="translate(-227.44331,-365.7337)" style="fill:#f1b907;fill-opacity:1;stroke:none;display:inline"/><rect id="rect3786" width="306.26" height="47.11" x="0" y=".004" style="fill:none;stroke:none"/></g><rect id="yellow" width="260.539" height="9.254" x="106.196" y="51.713" ry=".683" style="fill:#f1b907;fill-opacity:1;stroke:none;display:inline"/></g><g id="layer3" transform="translate(21.574609,34.282029)" style="display:none"><rect style="fill:#cf0e0e;fill-opacity:1;stroke:none;display:inline" id="red" width="260.539" height="9.254" x="45.082" y="92.625" ry=".683"/></g><g id="layer6" transform="translate(21.574609,34.282029)" style="display:none"><rect id="needle" width="148.385" height="61.755" x="40.099" y="-25.748" ry="4.557" style="fill:#070000;fill-opacity:1;stroke:none;display:inline"/></g><g id="foreground" style="display:inline"><path style="fill:#000;fill-opacity:1;stroke:#fff;stroke-width:3;stroke-miterlimit:10;stroke-opacity:1;stroke-dasharray:none;stroke-dashoffset:0" id="rect2924" d="m 7.40625,1.6875 c -3.1670511,0 -5.71875,2.5516989 -5.71875,5.71875 l 0,66.03125 c 0,3.167051 2.5516989,5.71875 5.71875,5.71875 l 214.46875,0 c 3.16705,0 5.71875,-2.551699 5.71875,-5.71875 l 0,-66.03125 c 0,-3.1670511 -2.5517,-5.71875 -5.71875,-5.71875 l -214.46875,0 z m 57.46875,6.03125 141.875,0 c 2.64861,0 4.78125,2.1326364 4.78125,4.78125 l 0,55.21875 c 0,2.648614 -2.13264,4.78125 -4.78125,4.78125 L 14.107143,72.61358 C 10.940092,72.61358 8.59375,68.167051 8.59375,65 l 0,-23.40625 c 0,-3.167051 2.551699,-5.71875 5.71875,-5.71875 l 41.59375,0 c 1.662575,0 4.836719,-0.637161 4.450893,-3.439991 l 0,-19.935009 c 0,-2.6486136 1.869243,-4.78125 4.517857,-4.78125 z"/><g id="g2928" transform="matrix(0.53532208,0,0,0.53532208,-271.81544,-86.17791)"><path id="path2930" d="m 589.99999,195.93361 c 0,11.44018 -9.2741,20.71428 -20.71428,20.71428 -11.44019,0 -20.71429,-9.2741 -20.71429,-20.71428 0,-11.44018 9.2741,-20.71429 20.71429,-20.71429 11.44018,0 20.71428,9.27411 20.71428,20.71429 z" transform="translate(0.08444214,0)" style="fill:#fff;fill-opacity:1;stroke:#fff;stroke-width:2;stroke-miterlimit:4;stroke-opacity:1;stroke-dasharray:none"/><rect id="rect2932" width="4.546" height="45.457" x="590.454" y="173.529" ry="2.273" style="fill:#fff;fill-opacity:1;stroke:#fff;stroke-width:2;stroke-linecap:butt;stroke-linejoin:round;stroke-miterlimit:4;stroke-opacity:1;stroke-dasharray:none;stroke-dashoffset:0"/><rect style="fill:#fff;fill-opacity:1;stroke:#fbfbfb;stroke-width:2;stroke-linecap:butt;stroke-linejoin:round;stroke-miterlimit:4;stroke-opacity:1;stroke-dasharray:none;stroke-dashoffset:0" id="rect2934" width="4.546" height="45.457" x="543.74" y="173.529" ry="2.273"/></g></g><rect style="fill:#ff0606;fill-opacity:1;stroke:none" id="value" width="47.775" height="25.001" x="11.617" y="43.612"/></svg>