<svg xmlns="http://www.w3.org/2000/svg" xmlns:osb="http://www.openswatchbook.org/uri/2009/osb" xmlns:svg="http://www.w3.org/2000/svg" id="svg2" width="620" height="81" version="1.1"><defs id="defs4"><linearGradient id="linearGradient3790" osb:paint="solid"><stop style="stop-color:#0ff;stop-opacity:1" id="stop3792" offset="0"/></linearGradient></defs><metadata id="metadata7"/><g id="background" style="display:inline">transform=&quot;translate(0,0)&quot;<g id="g3045" transform="translate(0,0)"><rect id="bg1" width="633" height="81" x="0" y="0" ry="13" style="fill:#333;stroke:none"/><text id="txTitle" x="13" y="35" transform="scale(1,1)" xml:space="preserve" style="font-size:36px;font-style:normal;font-variant:normal;font-weight:700;font-stretch:normal;text-align:start;line-height:125%;letter-spacing:0;word-spacing:0;writing-mode:lr-tb;text-anchor:start;fill:#fff;fill-opacity:1;stroke:none;font-family:Sans;-inkscape-font-specification:Sans Bold"><tspan id="tspan3042" x="13" y="35">Tx</tspan></text><rect id="tx_bg0" width="54" height="25" x="72" y="10" ry="13" style="fill:#4d4d4d;stroke:none"/><rect id="tx_bg1" width="54" height="25" x="132" y="10" ry="13" style="fill:#4d4d4d;stroke:none"/><rect id="tx_bg2" width="54" height="25" x="192" y="10" ry="13" style="fill:#4d4d4d;stroke:none"/><rect id="tx_bg3" width="54" height="25" x="252" y="10" ry="13" style="fill:#4d4d4d;stroke:none"/><rect id="tx_bg4" width="54" height="25" x="312" y="10" ry="13" style="fill:#4d4d4d;stroke:none"/><rect id="tx_bg5" width="54" height="25" x="372" y="10" ry="13" style="fill:#4d4d4d;stroke:none"/><rect id="tx_bg6" width="54" height="25" x="432" y="10" ry="13" style="fill:#4d4d4d;stroke:none"/><text id="rxTitle" x="13" y="71" transform="scale(1,1)" xml:space="preserve" style="font-size:36px;font-style:normal;font-variant:normal;font-weight:700;font-stretch:normal;text-align:start;line-height:125%;letter-spacing:0;word-spacing:0;writing-mode:lr-tb;text-anchor:start;fill:#fff;fill-opacity:1;stroke:none;font-family:Sans;-inkscape-font-specification:Sans Bold"><tspan id="tspan3046" x="35" y="71">Rx</tspan></text><rect id="rx_bg0" width="54" height="25" x="72" y="46" ry="13" style="fill:#4d4d4d;stroke:none"/><rect id="rx_bg1" width="54" height="25" x="132" y="46" ry="13" style="fill:#4d4d4d;stroke:none"/><rect id="rx_bg2" width="54" height="25" x="192" y="46" ry="13" style="fill:#4d4d4d;stroke:none"/><rect id="rx_bg3" width="54" height="25" x="252" y="46" ry="13" style="fill:#4d4d4d;stroke:none"/><rect id="rx_bg4" width="54" height="25" x="312" y="46" ry="13" style="fill:#4d4d4d;stroke:none"/><rect id="rx_bg5" width="54" height="25" x="372" y="46" ry="13" style="fill:#4d4d4d;stroke:none"/><rect id="rx_bg6" width="54" height="25" x="432" y="46" ry="13" style="fill:#4d4d4d;stroke:none"/></g></g><g id="text" transform="translate(0,0)" style="display:inline"><rect id="txSpeed" width="115" height="25" x="499" y="10" style="fill:#4d4d4d;stroke:none"/>inkscape:label=&quot;txSpeed&quot; /&gt;<rect id="rxSpeed" width="115" height="25" x="499" y="46" style="fill:#4d4d4d;stroke:none"/>inkscape:label=&quot;rxSpeed&quot; /&gt;</g><g id="tx" transform="translate(0,-100)" style="display:inline"><rect id="tx0" width="54" height="25" x="72" y="10" ry="13" style="fill:#00c200;fill-opacity:1;stroke:none;display:inline"/><rect id="tx1" width="54" height="25" x="132" y="10" ry="13" style="fill:#00c200;fill-opacity:1;stroke:none;display:inline"/><rect id="tx2" width="54" height="25" x="192" y="10" ry="13" style="fill:#00c200;fill-opacity:1;stroke:none;display:inline"/><rect id="tx3" width="54" height="25" x="252" y="10" ry="13" style="fill:#00c200;fill-opacity:1;stroke:none;display:inline"/><rect id="tx4" width="54" height="25" x="312" y="10" ry="13" style="fill:#ffd800;fill-opacity:1;stroke:none;display:inline"/><rect id="tx5" width="54" height="25" x="372" y="10" ry="13" style="fill:#ffd800;fill-opacity:1;stroke:none;display:inline"/><rect id="tx6" width="54" height="25" x="432" y="10" ry="13" style="fill:red;fill-opacity:1;stroke:none;display:inline"/></g><g id="rx" transform="translate(0,-100)" style="display:inline"><rect id="rx0" width="54" height="25" x="72" y="46" ry="13" style="fill:#00c200;fill-opacity:1;stroke:none;display:inline"/><rect id="rx1" width="54" height="25" x="132" y="46" ry="13" style="fill:#00c200;fill-opacity:1;stroke:none;display:inline"/><rect id="rx2" width="54" height="25" x="192" y="46" ry="13" style="fill:#00c200;fill-opacity:1;stroke:none;display:inline"/><rect id="rx3" width="54" height="25" x="252" y="46" ry="13" style="fill:#00c200;fill-opacity:1;stroke:none;display:inline"/><rect id="rx4" width="54" height="25" x="312" y="46" ry="13" style="fill:#ffd800;fill-opacity:1;stroke:none;display:inline"/><rect id="rx5" width="54" height="25" x="372" y="46" ry="13" style="fill:#ffd800;fill-opacity:1;stroke:none;display:inline"/><rect id="rx6" width="54" height="25" x="432" y="46" ry="13" style="fill:red;fill-opacity:1;stroke:none;display:inline"/></g></svg>