<svg xmlns="http://www.w3.org/2000/svg" xmlns:svg="http://www.w3.org/2000/svg" xmlns:xlink="http://www.w3.org/1999/xlink" id="svg10068" width="304.015" height="289.873" version="1.1" style="display:inline"><defs id="defs10070"><linearGradient id="linearGradient3774"><stop style="stop-color:#48280a;stop-opacity:1" id="stop3776" offset="0"/><stop style="stop-color:#000;stop-opacity:1" id="stop3778" offset="1"/></linearGradient><linearGradient id="linearGradient3758"><stop style="stop-color:#4c5f8e;stop-opacity:1" id="stop3760" offset="0"/><stop style="stop-color:#7c7c7c;stop-opacity:1" id="stop3762" offset="1"/></linearGradient><marker id="Arrow2Sstart" orient="auto" refX="0" refY="0" style="overflow:visible"><path id="path4640" d="M 8.7185878,4.0337352 -2.2072895,0.01601326 8.7185884,-4.0017078 c -1.7454984,2.3720609 -1.7354408,5.6174519 -6e-7,8.035443 z" transform="matrix(0.3,0,0,0.3,-0.69,0)" style="font-size:12px;fill-rule:evenodd;stroke-width:.625;stroke-linejoin:round"/></marker><linearGradient id="linearGradient5318" x1="-29.837" x2="-29.837" y1="285.06" y2="342.606" gradientTransform="matrix(2.2532936,0,0,2.206809,446.89077,-285.33499)" gradientUnits="userSpaceOnUse" xlink:href="#linearGradient8928"/><linearGradient id="linearGradient8928"><stop style="stop-color:#fff;stop-opacity:.89156628" id="stop8930" offset="0"/><stop style="stop-color:#fff;stop-opacity:0" id="stop8932" offset="1"/></linearGradient><linearGradient id="linearGradient4337" x1="-29.837" x2="-29.837" y1="285.06" y2="342.606" gradientTransform="matrix(2.2300513,0,0,2.206809,217.88644,-653.85766)" gradientUnits="userSpaceOnUse" xlink:href="#linearGradient8928"/><linearGradient id="linearGradient3764" x1="376.342" x2="376.342" y1="404.69" y2="671.562" gradientTransform="translate(1.5e-4,-2.3946118)" gradientUnits="userSpaceOnUse" xlink:href="#linearGradient3758"/><linearGradient id="linearGradient3780" x1="380.383" x2="380.383" y1="512.136" y2="836.392" gradientTransform="translate(1.5e-4,-1.6053882)" gradientUnits="userSpaceOnUse" xlink:href="#linearGradient3774"/><linearGradient id="linearGradient3788" x1="152.6" x2="152.6" y1="38.907" y2="318.994" gradientTransform="matrix(1.0190102,0,0,1,-2.8723168,-4)" gradientUnits="userSpaceOnUse" xlink:href="#linearGradient3758"/><linearGradient id="linearGradient4074" x1="380.383" x2="380.383" y1="512.136" y2="836.392" gradientTransform="translate(1.5e-4,-1.6053882)" gradientUnits="userSpaceOnUse" xlink:href="#linearGradient3774"/><linearGradient id="linearGradient4076" x1="376.342" x2="376.342" y1="404.69" y2="671.562" gradientTransform="translate(1.5e-4,-2.3946118)" gradientUnits="userSpaceOnUse" xlink:href="#linearGradient3758"/></defs><metadata id="metadata10073"/><g id="layer3" style="display:inline"><g id="background" transform="translate(-228.56377,-366.85416)" style="display:inline"><g style="display:inline" id="g3957"><path style="fill:#453e3e;fill-opacity:1;stroke:#000;stroke-width:4.19884777;stroke-miterlimit:10;stroke-opacity:1;stroke-dasharray:none;stroke-dashoffset:0" id="path3959" d="m 23.1875,2.09375 c -11.679256,0 -21.09375,9.414494 -21.09375,21.09375 l 0,243.5 c 0,11.67926 9.414494,21.09375 21.09375,21.09375 l 257.65625,0 c 11.67926,0 21.0625,-9.41449 21.0625,-21.09375 l 0,-243.5 c 0,-11.679256 -9.38324,-21.09375 -21.0625,-21.09375 l -257.65625,0 z M 152,7.5625 c 75.87329,0 137.375,61.501705 137.375,137.375 0,75.87329 -61.50171,137.375 -137.375,137.375 -75.873295,0 -137.375,-61.50171 -137.375,-137.375 C 14.625,69.064205 76.126705,7.5625 152,7.5625 z" transform="translate(228.56377,366.85416)"/></g></g></g><g id="layer5" transform="translate(-228.56377,-366.85416)" style="display:inline"><g id="needle"><g id="g4047" transform="translate(0,8)"><g id="g3220" transform="matrix(1,0,0,1.0277808,0,-22.27844)" style="display:inline"><rect id="rect3724" width="305.714" height="291.891" x="227.85" y="510.047" ry="0" style="fill:url(#linearGradient4074);fill-opacity:1;stroke:none"/><rect style="fill:url(#linearGradient4076);fill-opacity:1;stroke:none" id="rect2942" width="305.714" height="291.891" x="227.85" y="218.156" ry="0"/></g><path id="path3808" d="m 227.84948,501.93786 305,0" style="fill:none;stroke:#e4e4e4;stroke-width:2;stroke-linecap:butt;stroke-linejoin:miter;stroke-miterlimit:4;stroke-opacity:1;stroke-dasharray:none;display:inline"/><g id="g3224" transform="translate(0,-12.031883)"><path style="fill:none;stroke:#fff5f5;stroke-width:4;stroke-linecap:butt;stroke-linejoin:miter;stroke-miterlimit:4;stroke-opacity:1;stroke-dasharray:none;display:inline" id="path3777" d="m 361.86289,477.62765 35.35535,0"/><path id="path3867" d="m 350.32821,441.22037 58.42471,0" style="fill:none;stroke:#fff5f5;stroke-width:4.50125933;stroke-linecap:butt;stroke-linejoin:miter;stroke-miterlimit:4;stroke-opacity:1;stroke-dasharray:none;display:inline"/><path id="path3869" d="m 361.86289,550.4422 35.35535,0" style="fill:none;stroke:#fff5f5;stroke-width:4;stroke-linecap:butt;stroke-linejoin:miter;stroke-miterlimit:4;stroke-opacity:1;stroke-dasharray:none;display:inline"/><path style="fill:none;stroke:#fff5f5;stroke-width:4.2405138;stroke-linecap:butt;stroke-linejoin:miter;stroke-miterlimit:4;stroke-opacity:1;stroke-dasharray:none;display:inline" id="path3871" d="m 349.15122,586.84948 60.77869,0"/><path id="path2897" d="m 365.65167,459.424 27.77779,0" style="fill:none;stroke:#fff5f5;stroke-width:2.50706863;stroke-linecap:butt;stroke-linejoin:miter;stroke-miterlimit:4;stroke-opacity:1;stroke-dasharray:none;display:inline"/><path style="fill:none;stroke:#fff5f5;stroke-width:2.64286137;stroke-linecap:butt;stroke-linejoin:miter;stroke-miterlimit:4;stroke-opacity:1;stroke-dasharray:none;display:inline" id="path2899" d="m 366.06514,532.23856 26.95085,0"/><path style="fill:none;stroke:#fff5f5;stroke-width:2.50706863;stroke-linecap:butt;stroke-linejoin:miter;stroke-miterlimit:4;stroke-opacity:1;stroke-dasharray:none;display:inline" id="path3174" d="m 365.65167,495.83128 27.77779,0"/><path id="path3176" d="m 366.06514,568.64584 26.95085,0" style="fill:none;stroke:#fff5f5;stroke-width:2.64286137;stroke-linecap:butt;stroke-linejoin:miter;stroke-miterlimit:4;stroke-opacity:1;stroke-dasharray:none;display:inline"/></g><g id="text3235" transform="translate(217.93242,361.4652)" style="font-size:40px;font-style:normal;font-weight:400;fill:#fff;fill-opacity:1;stroke:none;font-family:Bitstream Vera Sans"><path id="path4022" d="m 187.72784,99.30941 0,8.73633 -2.41406,0 0,-5.72461 c -0.39063,0.29688 -0.76856,0.53711 -1.13379,0.7207 -0.36523,0.1836 -0.82324,0.35938 -1.37402,0.52735 l 0,-1.95704 c 0.8125,-0.26171 1.44336,-0.57616 1.89258,-0.94335 0.44921,-0.36718 0.80077,-0.820309 1.05468,-1.35938 z" style="font-size:12px;fill:#fff;fill-opacity:1;font-family:Arial Black;-inkscape-font-specification:Arial Black"/><path id="path4024" d="m 190.33527,103.71566 c 0,-1.63281 0.29394,-2.77538 0.88183,-3.42773 0.58789,-0.65234 1.4834,-0.978511 2.68653,-0.97852 0.57812,9e-6 1.05272,0.0713 1.42382,0.213867 0.37109,0.142587 0.67383,0.328133 0.90821,0.556643 0.23437,0.22852 0.41894,0.46876 0.55371,0.7207 0.13476,0.25196 0.24315,0.54591 0.32519,0.88184 0.16015,0.64063 0.24023,1.3086 0.24024,2.0039 -1e-5,1.5586 -0.26368,2.69922 -0.79102,3.42188 -0.52735,0.72265 -1.43555,1.08398 -2.72461,1.08398 -0.72266,0 -1.30664,-0.11523 -1.75195,-0.3457 -0.44532,-0.23047 -0.81055,-0.56836 -1.0957,-1.01367 -0.20704,-0.31641 -0.36817,-0.74902 -0.4834,-1.29785 -0.11524,-0.54883 -0.17285,-1.15527 -0.17285,-1.81934 z m 2.36718,0.006 c 0,1.09375 0.0967,1.84082 0.29004,2.24121 0.19336,0.40039 0.47363,0.60059 0.84082,0.60059 0.24219,0 0.45215,-0.085 0.62989,-0.25489 0.17773,-0.16992 0.30858,-0.43847 0.39257,-0.80566 0.084,-0.36719 0.12598,-0.93945 0.12598,-1.7168 0,-1.14062 -0.0967,-1.90722 -0.29004,-2.2998 -0.19336,-0.39257 -0.4834,-0.58886 -0.87012,-0.58887 -0.39453,1e-5 -0.67969,0.2002 -0.85546,0.60059 -0.17579,0.40039 -0.26368,1.1416 -0.26368,2.22363 z" style="font-size:12px;fill:#fff;fill-opacity:1;font-family:Arial Black;-inkscape-font-specification:Arial Black"/></g><g id="text4017" transform="translate(2,-10)" style="font-size:40px;font-style:normal;font-weight:400;opacity:.98000004;fill:#fff;fill-opacity:1;stroke:none;font-family:Bitstream Vera Sans"><path id="path4027" d="m 417.8678,442.8999 -7.16016,0 c 0.082,-0.70703 0.33106,-1.37207 0.74707,-1.99511 0.41602,-0.62305 1.19629,-1.3584 2.34082,-2.20606 0.69922,-0.51953 1.14648,-0.91406 1.3418,-1.18359 0.19531,-0.26953 0.29296,-0.52539 0.29297,-0.76758 -10e-6,-0.26171 -0.0967,-0.48535 -0.29004,-0.6709 -0.19337,-0.18554 -0.43653,-0.27831 -0.72949,-0.27832 -0.30469,1e-5 -0.55372,0.0957 -0.74707,0.28711 -0.19337,0.19141 -0.32325,0.5293 -0.38965,1.01367 l -2.39063,-0.19336 c 0.0937,-0.67187 0.26563,-1.19628 0.51563,-1.57324 0.25,-0.37695 0.60254,-0.66601 1.05762,-0.86719 0.45507,-0.20116 1.08495,-0.30175 1.88964,-0.30176 0.83984,1e-5 1.49316,0.0957 1.95996,0.28711 0.46679,0.19142 0.83398,0.48536 1.10157,0.88184 0.26757,0.39649 0.40136,0.84083 0.40136,1.33301 0,0.52344 -0.15332,1.02344 -0.45996,1.5 -0.30664,0.47656 -0.86426,1 -1.67285,1.57031 -0.48047,0.33203 -0.80176,0.56446 -0.96387,0.69727 -0.16211,0.13281 -0.35254,0.30664 -0.57128,0.52148 l 3.72656,0 z" style="font-size:12px;fill:#fff;fill-opacity:1;font-family:Arial Black;-inkscape-font-specification:Arial Black"/><path id="path4029" d="m 418.89905,438.56982 c 0,-1.6328 0.29394,-2.77538 0.88183,-3.42773 0.58789,-0.65234 1.4834,-0.97851 2.68653,-0.97852 0.57812,1e-5 1.05273,0.0713 1.42383,0.21387 0.37108,0.14259 0.67382,0.32813 0.9082,0.55664 0.23437,0.22853 0.41894,0.46876 0.55371,0.72071 0.13476,0.25196 0.24316,0.5459 0.32519,0.88183 0.16015,0.64063 0.24023,1.3086 0.24024,2.00391 -1e-5,1.55859 -0.26368,2.69922 -0.79102,3.42187 -0.52735,0.72266 -1.43555,1.08399 -2.72461,1.08399 -0.72266,0 -1.30664,-0.11524 -1.75195,-0.34571 -0.44531,-0.23046 -0.81055,-0.56836 -1.0957,-1.01367 -0.20703,-0.3164 -0.36817,-0.74902 -0.4834,-1.29785 -0.11524,-0.54882 -0.17285,-1.15527 -0.17285,-1.81934 z m 2.36719,0.006 c -10e-6,1.09376 0.0967,1.84083 0.29003,2.24121 0.19336,0.4004 0.47363,0.60059 0.84082,0.60059 0.24219,0 0.45215,-0.085 0.62989,-0.25488 0.17773,-0.16992 0.30859,-0.43848 0.39258,-0.80567 0.084,-0.36718 0.12597,-0.93945 0.12597,-1.71679 0,-1.14062 -0.0967,-1.90722 -0.29004,-2.29981 -0.19336,-0.39257 -0.4834,-0.58886 -0.87011,-0.58887 -0.39454,1e-5 -0.67969,0.20021 -0.85547,0.60059 -0.17579,0.4004 -0.26368,1.14161 -0.26367,2.22363 z" style="font-size:12px;fill:#fff;fill-opacity:1;font-family:Arial Black;-inkscape-font-specification:Arial Black"/></g><g style="font-size:40px;font-style:normal;font-weight:400;opacity:.98000004;fill:#fff;fill-opacity:1;stroke:none;font-family:Bitstream Vera Sans" id="g4031" transform="translate(2,136)"><path style="font-size:12px;fill:#fff;fill-opacity:1;font-family:Arial Black;-inkscape-font-specification:Arial Black" id="path4033" d="m 417.8678,442.8999 -7.16016,0 c 0.082,-0.70703 0.33106,-1.37207 0.74707,-1.99511 0.41602,-0.62305 1.19629,-1.3584 2.34082,-2.20606 0.69922,-0.51953 1.14648,-0.91406 1.3418,-1.18359 0.19531,-0.26953 0.29296,-0.52539 0.29297,-0.76758 -10e-6,-0.26171 -0.0967,-0.48535 -0.29004,-0.6709 -0.19337,-0.18554 -0.43653,-0.27831 -0.72949,-0.27832 -0.30469,1e-5 -0.55372,0.0957 -0.74707,0.28711 -0.19337,0.19141 -0.32325,0.5293 -0.38965,1.01367 l -2.39063,-0.19336 c 0.0937,-0.67187 0.26563,-1.19628 0.51563,-1.57324 0.25,-0.37695 0.60254,-0.66601 1.05762,-0.86719 0.45507,-0.20116 1.08495,-0.30175 1.88964,-0.30176 0.83984,1e-5 1.49316,0.0957 1.95996,0.28711 0.46679,0.19142 0.83398,0.48536 1.10157,0.88184 0.26757,0.39649 0.40136,0.84083 0.40136,1.33301 0,0.52344 -0.15332,1.02344 -0.45996,1.5 -0.30664,0.47656 -0.86426,1 -1.67285,1.57031 -0.48047,0.33203 -0.80176,0.56446 -0.96387,0.69727 -0.16211,0.13281 -0.35254,0.30664 -0.57128,0.52148 l 3.72656,0 z"/><path style="font-size:12px;fill:#fff;fill-opacity:1;font-family:Arial Black;-inkscape-font-specification:Arial Black" id="path4035" d="m 418.89905,438.56982 c 0,-1.6328 0.29394,-2.77538 0.88183,-3.42773 0.58789,-0.65234 1.4834,-0.97851 2.68653,-0.97852 0.57812,1e-5 1.05273,0.0713 1.42383,0.21387 0.37108,0.14259 0.67382,0.32813 0.9082,0.55664 0.23437,0.22853 0.41894,0.46876 0.55371,0.72071 0.13476,0.25196 0.24316,0.5459 0.32519,0.88183 0.16015,0.64063 0.24023,1.3086 0.24024,2.00391 -1e-5,1.55859 -0.26368,2.69922 -0.79102,3.42187 -0.52735,0.72266 -1.43555,1.08399 -2.72461,1.08399 -0.72266,0 -1.30664,-0.11524 -1.75195,-0.34571 -0.44531,-0.23046 -0.81055,-0.56836 -1.0957,-1.01367 -0.20703,-0.3164 -0.36817,-0.74902 -0.4834,-1.29785 -0.11524,-0.54882 -0.17285,-1.15527 -0.17285,-1.81934 z m 2.36719,0.006 c -10e-6,1.09376 0.0967,1.84083 0.29003,2.24121 0.19336,0.4004 0.47363,0.60059 0.84082,0.60059 0.24219,0 0.45215,-0.085 0.62989,-0.25488 0.17773,-0.16992 0.30859,-0.43848 0.39258,-0.80567 0.084,-0.36718 0.12597,-0.93945 0.12597,-1.71679 0,-1.14062 -0.0967,-1.90722 -0.29004,-2.29981 -0.19336,-0.39257 -0.4834,-0.58886 -0.87011,-0.58887 -0.39454,1e-5 -0.67969,0.20021 -0.85547,0.60059 -0.17579,0.4004 -0.26368,1.14161 -0.26367,2.22363 z"/></g><g style="font-size:40px;font-style:normal;font-weight:400;fill:#fff;fill-opacity:1;stroke:none;font-family:Bitstream Vera Sans" id="g4037" transform="translate(217.93242,433.4652)"><path style="font-size:12px;fill:#fff;fill-opacity:1;font-family:Arial Black;-inkscape-font-specification:Arial Black" id="path4039" d="m 187.72784,99.30941 0,8.73633 -2.41406,0 0,-5.72461 c -0.39063,0.29688 -0.76856,0.53711 -1.13379,0.7207 -0.36523,0.1836 -0.82324,0.35938 -1.37402,0.52735 l 0,-1.95704 c 0.8125,-0.26171 1.44336,-0.57616 1.89258,-0.94335 0.44921,-0.36718 0.80077,-0.820309 1.05468,-1.35938 z"/><path style="font-size:12px;fill:#fff;fill-opacity:1;font-family:Arial Black;-inkscape-font-specification:Arial Black" id="path4041" d="m 190.33527,103.71566 c 0,-1.63281 0.29394,-2.77538 0.88183,-3.42773 0.58789,-0.65234 1.4834,-0.978511 2.68653,-0.97852 0.57812,9e-6 1.05272,0.0713 1.42382,0.213867 0.37109,0.142587 0.67383,0.328133 0.90821,0.556643 0.23437,0.22852 0.41894,0.46876 0.55371,0.7207 0.13476,0.25196 0.24315,0.54591 0.32519,0.88184 0.16015,0.64063 0.24023,1.3086 0.24024,2.0039 -1e-5,1.5586 -0.26368,2.69922 -0.79102,3.42188 -0.52735,0.72265 -1.43555,1.08398 -2.72461,1.08398 -0.72266,0 -1.30664,-0.11523 -1.75195,-0.3457 -0.44532,-0.23047 -0.81055,-0.56836 -1.0957,-1.01367 -0.20704,-0.31641 -0.36817,-0.74902 -0.4834,-1.29785 -0.11524,-0.54883 -0.17285,-1.15527 -0.17285,-1.81934 z m 2.36718,0.006 c 0,1.09375 0.0967,1.84082 0.29004,2.24121 0.19336,0.40039 0.47363,0.60059 0.84082,0.60059 0.24219,0 0.45215,-0.085 0.62989,-0.25489 0.17773,-0.16992 0.30858,-0.43847 0.39257,-0.80566 0.084,-0.36719 0.12598,-0.93945 0.12598,-1.7168 0,-1.14062 -0.0967,-1.90722 -0.29004,-2.2998 -0.19336,-0.39257 -0.4834,-0.58886 -0.87012,-0.58887 -0.39453,1e-5 -0.67969,0.2002 -0.85546,0.60059 -0.17579,0.40039 -0.26368,1.1416 -0.26368,2.22363 z"/></g></g></g></g><g id="layer2" style="display:inline"><g id="needle3"><path id="path3746" d="M 151.09375,10.732143 C 76.336339,10.73214 17.153193,67.355977 17.15319,140.71875 l 16.913611,0 C 44.690715,77.691255 87.191347,31.139433 151.42105,31.139436 c 64.24037,3e-6 110.28318,46.063547 116.34409,109.105484 0.003,0.0341 -1.04555,0.56458 -1.04558,0.59878 l 19.74332,0 c 3e-5,-0.0399 0,-0.0851 0,-0.125 0,-73.362773 -60.61171,-132.843747 -135.36913,-132.84375 l 0,2.857193 z" style="fill:url(#linearGradient3788);fill-opacity:1;stroke:none"/><rect id="rect3805" width="307.086" height="289.914" x="-1.01" y="-.041" style="fill:none;stroke:none"/><g id="g3762" transform="translate(-228.56377,-366.85416)" style="display:inline"><path id="path3736" d="m 380.57142,378.25504 0,17.67857" style="fill:none;stroke:#fff;stroke-width:12;stroke-linecap:butt;stroke-linejoin:miter;stroke-miterlimit:4;stroke-opacity:1;stroke-dasharray:none;display:inline"/><path style="fill:none;stroke:#fff;stroke-width:6;stroke-linecap:butt;stroke-linejoin:miter;stroke-miterlimit:4;stroke-opacity:1;stroke-dasharray:none;display:inline" id="path3756" d="m 403.77761,380.28532 -3.06985,17.40999"/><path id="path3758" d="m 426.27869,386.31447 -6.04643,16.61241" style="fill:none;stroke:#fff;stroke-width:6;stroke-linecap:butt;stroke-linejoin:miter;stroke-miterlimit:4;stroke-opacity:1;stroke-dasharray:none;display:inline"/><path style="fill:none;stroke:#fff;stroke-width:12;stroke-linecap:butt;stroke-linejoin:miter;stroke-miterlimit:4;stroke-opacity:1;stroke-dasharray:none;display:inline" id="path3760" d="m 447.39098,396.15929 -8.83929,15.31008"/><path style="fill:none;stroke:#fff;stroke-width:6;stroke-linecap:butt;stroke-linejoin:miter;stroke-miterlimit:4;stroke-opacity:1;stroke-dasharray:none;display:inline" id="path3762" d="m 357.36523,380.28532 3.06985,17.40999"/><path id="path3764" d="m 334.86415,386.31447 6.04643,16.61241" style="fill:none;stroke:#fff;stroke-width:6;stroke-linecap:butt;stroke-linejoin:miter;stroke-miterlimit:4;stroke-opacity:1;stroke-dasharray:none;display:inline"/><path style="fill:none;stroke:#fff;stroke-width:12;stroke-linecap:butt;stroke-linejoin:miter;stroke-miterlimit:4;stroke-opacity:1;stroke-dasharray:none;display:inline" id="path3766" d="m 313.75187,396.15929 8.83928,15.31008"/><path style="fill:none;stroke:#fff;stroke-width:12;stroke-linecap:butt;stroke-linejoin:miter;stroke-miterlimit:4;stroke-opacity:1;stroke-dasharray:none;display:inline" id="path3788" d="m 264.83656,445.07459 15.31009,8.83929"/><path style="fill:none;stroke:#fff;stroke-width:12;stroke-linecap:butt;stroke-linejoin:miter;stroke-miterlimit:4;stroke-opacity:1;stroke-dasharray:none;display:inline" id="path3790" d="m 496.30628,445.07459 -15.31009,8.83929"/></g></g></g><g id="layer6" transform="translate(-228.56377,-366.85416)" style="display:inline"><g style="display:inline" id="foreground"><rect style="fill:#fff;fill-opacity:1;stroke:none" id="rect3810" width="27.365" height="25.296" x="228.429" y="366.848"/><rect id="rect3812" width="27.9" height="26.724" x="504.63" y="366.848" style="fill:#fff;fill-opacity:1;stroke:none"/><rect style="fill:#fff;fill-opacity:1;stroke:none" id="rect3814" width="27.9" height="26.724" x="504.63" y="630.01"/><rect id="rect3816" width="27.9" height="26.724" x="228.519" y="630.01" style="fill:#fff;fill-opacity:1;stroke:none"/><g id="g4687" transform="translate(-0.0388462,0)" style="display:inline"><path id="rect2936" d="m 23.1875,2.09375 c -11.679256,0 -21.09375,9.414494 -21.09375,21.09375 l 0,243.5 c 0,11.67926 9.414494,21.09375 21.09375,21.09375 l 257.65625,0 c 11.67926,0 21.0625,-9.41449 21.0625,-21.09375 l 0,-243.5 c 0,-11.679256 -9.38324,-21.09375 -21.0625,-21.09375 l -257.65625,0 z M 152,7.5625 c 75.87329,0 137.375,61.501705 137.375,137.375 0,75.87329 -61.50171,137.375 -137.375,137.375 -75.873295,0 -137.375,-61.50171 -137.375,-137.375 C 14.625,69.064205 76.126705,7.5625 152,7.5625 z" transform="translate(228.56377,366.85416)" style="fill:#000;fill-opacity:1;stroke:#fff;stroke-width:4.1988477700000004;stroke-miterlimit:10;stroke-opacity:1;stroke-dasharray:none;stroke-dashoffset:0"/></g><g id="g3876"><path style="fill:none;stroke:#fff;stroke-width:7;stroke-linecap:round;stroke-linejoin:miter;stroke-miterlimit:5;stroke-opacity:1;stroke-dasharray:none" id="path3775" d="m 298.72122,511.59023 61.11423,0 9.12157,9.12158 13.46461,-7.77379"/><path style="fill:#f60;fill-opacity:1;stroke:#fff;stroke-width:5;stroke-linecap:round;stroke-miterlimit:5;stroke-opacity:1;stroke-dasharray:none;stroke-dashoffset:0" id="path3781" d="m 350.52292,461.42294 c 0,1.67368 -1.35678,3.03046 -3.03046,3.03046 -1.67367,0 -3.03046,-1.35678 -3.03046,-3.03046 0,-1.67367 1.35679,-3.03045 3.03046,-3.03045 1.67368,0 3.03046,1.35678 3.03046,3.03045 z" transform="translate(33.07896,50.167284)"/><path id="path3723" d="m 462.42163,511.59023 -61.11423,0 -9.12158,9.12158 -13.46461,-7.77379" style="fill:none;stroke:#fff;stroke-width:7;stroke-linecap:round;stroke-linejoin:miter;stroke-miterlimit:5;stroke-opacity:1;stroke-dasharray:none"/></g><path id="path3779" d="m 370.42474,377.15541 20.29336,0.0329 -10.36931,19.46879 -9.92405,-19.50168 z" style="fill:#000;fill-opacity:1;stroke:#fff;stroke-width:1px;stroke-linecap:butt;stroke-linejoin:miter;stroke-opacity:1;display:inline"/></g></g></svg>