<svg xmlns="http://www.w3.org/2000/svg" xmlns:svg="http://www.w3.org/2000/svg" xmlns:xlink="http://www.w3.org/1999/xlink" id="svg10068" width="306.256" height="47.114" version="1.1" style="display:inline"><defs id="defs10070"><marker id="Arrow2Sstart" orient="auto" refX="0" refY="0" style="overflow:visible"><path id="path4640" d="M 8.7185878,4.0337352 -2.2072895,0.01601326 8.7185884,-4.0017078 c -1.7454984,2.3720609 -1.7354408,5.6174519 -6e-7,8.035443 z" transform="matrix(0.3,0,0,0.3,-0.69,0)" style="font-size:12px;fill-rule:evenodd;stroke-width:.625;stroke-linejoin:round"/></marker><linearGradient id="linearGradient5318" x1="-29.837" x2="-29.837" y1="285.06" y2="342.606" gradientTransform="matrix(2.2532936,0,0,2.206809,446.89077,-285.33499)" gradientUnits="userSpaceOnUse" xlink:href="#linearGradient8928"/><linearGradient id="linearGradient8928"><stop style="stop-color:#fff;stop-opacity:.89156628" id="stop8930" offset="0"/><stop style="stop-color:#fff;stop-opacity:0" id="stop8932" offset="1"/></linearGradient></defs><metadata id="metadata10073"/><g style="display:inline" id="g2932" transform="translate(-227.44331,-365.7337)"><g id="background"><rect style="fill:#000;fill-opacity:1;stroke:#000;stroke-width:4;stroke-miterlimit:10;stroke-opacity:1;stroke-dasharray:none;stroke-dashoffset:0" id="rect2936" width="302.256" height="43.114" x="229.443" y="367.734" ry="3.182"/><rect id="bargraph-outer" width="260.539" height="9.254" x="250.302" y="395.165" ry=".683" style="fill:#332d2d;fill-opacity:1;stroke:#000;stroke-width:2;stroke-miterlimit:10;stroke-opacity:1;stroke-dasharray:none;stroke-dashoffset:0"/><rect style="fill:#332d2d;fill-opacity:1;stroke:none" id="bargraph" width="260.539" height="9.254" x="250.302" y="395.165" ry=".683"/></g></g><g id="layer5" style="display:inline"><rect style="fill:#04b629;fill-opacity:1;stroke:none;display:inline" id="green" width="260.539" height="9.254" x="22.859" y="29.432" ry=".683"/></g><g id="layer4" style="display:inline"><g id="g3793"><rect id="rect3773" width="260.539" height="9.254" x="250.302" y="395.165" ry=".683" transform="translate(-227.44331,-365.7337)" style="fill:#f1b907;fill-opacity:1;stroke:none;display:inline"/><rect id="rect3786" width="306.26" height="47.11" x="0" y=".004" style="fill:none;stroke:none"/></g><rect id="yellow" width="260.539" height="9.254" x="22.859" y="29.432" ry=".683" style="fill:#f1b907;fill-opacity:1;stroke:none;display:inline"/></g><g id="layer3" style="display:inline"><rect style="fill:#cf0e0e;fill-opacity:1;stroke:none;display:inline" id="red" width="260.539" height="9.254" x="22.859" y="29.432" ry=".683"/></g><g id="layer6" style="display:inline"><path style="fill:#fff;fill-opacity:1;stroke:#fff;stroke-width:1px;stroke-linecap:butt;stroke-linejoin:miter;stroke-opacity:1" id="needle" d="m 29.39406,23.75432 -14.268403,0 7.134202,12 7.134201,-12 z"/></g><g id="layer1" style="display:inline"><rect style="fill:#fff;fill-opacity:1;stroke:none" id="field" width="51.429" height="15.357" x="25.357" y="5.471"/><rect id="value" width="51.429" height="15.357" x="201.357" y="5.828" style="fill:#fff;fill-opacity:1;stroke:none"/></g></svg>