<svg xmlns="http://www.w3.org/2000/svg" xmlns:svg="http://www.w3.org/2000/svg" xmlns:xlink="http://www.w3.org/1999/xlink" id="svg2" width="601.031" height="399.859" version="1.1" style="display:inline"><defs id="defs4"><linearGradient id="linearGradient3781"><stop style="stop-color:#f5f5f5;stop-opacity:1" id="stop3783" offset="0"/><stop id="stop3789" offset=".5" style="stop-color:#a7a4a4;stop-opacity:1"/><stop style="stop-color:#f5f5f5;stop-opacity:1" id="stop3785" offset="1"/></linearGradient><linearGradient id="linearGradient3712"><stop style="stop-color:#a3a3a3;stop-opacity:1" id="stop3714" offset="0"/><stop style="stop-color:#555252;stop-opacity:1" id="stop3716" offset="1"/></linearGradient><linearGradient id="linearGradient3645"><stop style="stop-color:#000;stop-opacity:1" id="stop3647" offset="0"/><stop style="stop-color:#000;stop-opacity:0" id="stop3649" offset="1"/></linearGradient><linearGradient id="linearGradient3651" x1="393.654" x2="429.627" y1="200.317" y2="200.317" gradientUnits="userSpaceOnUse" xlink:href="#linearGradient3645"/><linearGradient id="linearGradient3723" x1="274.068" x2="272.802" y1="231.148" y2="343.995" gradientUnits="userSpaceOnUse" xlink:href="#linearGradient3712"/><linearGradient id="linearGradient3757" x1="411.637" x2="411.637" y1="471.721" y2="570.649" gradientUnits="userSpaceOnUse" xlink:href="#linearGradient3712"/><linearGradient id="linearGradient3787" x1="391.454" x2="431.818" y1="294.84" y2="294.84" gradientUnits="userSpaceOnUse" xlink:href="#linearGradient3781"/><linearGradient id="linearGradient3793" x1="274.068" x2="272.802" y1="231.148" y2="343.995" gradientTransform="matrix(-1,0,0,1,822.90625,0)" gradientUnits="userSpaceOnUse" xlink:href="#linearGradient3712"/></defs><metadata id="metadata7"/><g id="layer2" transform="translate(-110.9375,-116.83717)"><path style="fill:url(#linearGradient3787);fill-opacity:1;stroke:#000;stroke-width:1px;stroke-linecap:butt;stroke-linejoin:miter;stroke-opacity:1" id="path2837" d="m 410.53125,117.34375 c -22.49559,-0.88852 -19.17369,88.5247 -17.0625,113.5 8.92732,6.13002 4.01095,59.35167 6.03125,89.65625 l 3.5625,151.84375 8.5625,-0.5625 8.59375,0.5625 L 423.75,320.5 c 2.0203,-30.30458 -2.86482,-83.52623 6.0625,-89.65625 2.1447,-25.37173 5.50373,-117.22948 -18.1875,-113.375 -0.37018,-0.0602 -0.73668,-0.1109 -1.09375,-0.125 z"/><path style="fill:url(#linearGradient3651);fill-opacity:1;stroke:#000;stroke-width:1px;stroke-linecap:butt;stroke-linejoin:miter;stroke-opacity:1" id="path2868" d="m 394.21875,203.34375 c -0.85638,18.72175 6.88616,23.23475 17.40625,23.21875 10.52009,0.016 18.29388,-4.497 17.4375,-23.21875 -0.92268,-14.56633 0.33444,-31.34543 -17.4375,-29.0625 -17.15346,-2.43001 -16.78983,17.12439 -17.40625,29.0625 z"/><path style="fill:url(#linearGradient3723);fill-opacity:1;stroke:#000;stroke-width:1px;stroke-linecap:butt;stroke-linejoin:miter;stroke-opacity:1" id="path2831" d="M 393.40625,231.65625 C 274.58425,240.94988 113.0725,210.12161 111.4375,329.5 c 2.51212,2.56535 10.33597,-4.15152 16.53125,-8.15625 5.6138,-3.62885 13.77013,-4.31906 24.875,-3.96875 l 246.625,3.90625 C 397.46031,291.15464 402.2768,238.39143 393.5625,231.75 l 0,-0.0937 c -0.0413,0.003 -0.0837,-0.003 -0.125,0 -0.0103,8.1e-4 -0.0209,-8.1e-4 -0.0312,0 z"/><path style="fill:url(#linearGradient3757);fill-opacity:1;stroke:#000;stroke-width:1px;stroke-linecap:butt;stroke-linejoin:miter;stroke-opacity:1" id="path2862" d="m 411.625,471.53125 c -34.79952,6.09565 -103.28275,-15.25037 -115.15625,43.9375 -0.35371,2.85486 10.20479,-3.58376 24.75,-4.03125 37.44094,2.43795 61.9834,2.64814 90.40625,3.53125 28.42285,-0.88311 52.96531,-1.0933 90.40625,-3.53125 14.54521,0.44749 25.10371,6.88611 24.75,4.03125 -11.8735,-59.18787 -80.35673,-37.84185 -115.15625,-43.9375 z"/><g id="g3795"><path id="path3653" d="m 411.63716,310.91022 c -0.35468,-2.92832 -2.5149,-4.0511 -5.55584,-4.29315 -3.64851,1.69909 -1.62701,13.60421 -2.27284,20.70813" style="fill:none;stroke:#000;stroke-width:1px;stroke-linecap:butt;stroke-linejoin:miter;stroke-opacity:1"/><path id="path3655" d="m 420.98106,328.71414 c 0,1.74341 -3.90075,3.15673 -8.71257,3.15673 -4.81181,0 -8.71256,-1.41332 -8.71256,-3.15673 0,-1.74341 3.90075,-3.15672 8.71256,-3.15672 4.81182,0 8.71257,1.41331 8.71257,3.15672 z" transform="matrix(0.92753757,0,0,1,29.242643,0)" style="fill:none;stroke:#060000;stroke-width:1;stroke-linejoin:round;stroke-miterlimit:4;stroke-opacity:1;stroke-dasharray:none"/><path style="fill:none;stroke:#000;stroke-width:1px;stroke-linecap:butt;stroke-linejoin:miter;stroke-opacity:1" id="path3657" d="m 411.80848,310.91022 c 0.35468,-2.92832 2.5149,-4.0511 5.55584,-4.29315 3.64851,1.69909 1.62701,13.60421 2.27284,20.70813"/></g><g id="g3675" transform="translate(42.559661,-12.374369)"><path style="fill:#474545;fill-opacity:1;stroke:#060000;stroke-width:.07486456;stroke-linejoin:round;stroke-miterlimit:4;stroke-opacity:1;stroke-dasharray:none" id="path3698" d="m 369.146,348.51815 c -0.24926,-0.10174 -0.56604,-0.46675 -0.78999,-0.91039 -0.23696,-0.46942 -0.40657,-1.08646 -0.74187,-2.69885 -0.12546,-0.60334 -0.31333,-1.39109 -0.4175,-1.75053 -0.10412,-0.35945 -0.17538,-0.66754 -0.15826,-0.68466 0.0171,-0.0171 0.39726,-0.1136 0.84477,-0.21444 0.44751,-0.10079 0.9653,-0.2376 1.15062,-0.30393 0.32473,-0.11621 0.36012,-0.11372 0.97324,0.0694 0.34996,0.10447 0.83841,0.22836 1.08546,0.27528 0.75114,0.14264 0.716,0.11739 0.60437,0.43418 -0.10103,0.28678 -0.33088,1.25878 -0.7134,3.01707 -0.34956,1.60681 -0.66442,2.30955 -1.19503,2.66713 -0.26636,0.17949 -0.39721,0.19981 -0.64241,0.0998 z"/><g id="g3671" style="fill:#474545;fill-opacity:1"><path style="fill:#474545;fill-opacity:1;stroke:#060000;stroke-width:1;stroke-linejoin:round;stroke-miterlimit:4;stroke-opacity:1;stroke-dasharray:none" id="path3659" d="m 369.71584,341.08853 c 0,1.04605 -8.64949,1.89404 -19.31917,1.89404 -10.66968,0 -19.31917,-0.84799 -19.31917,-1.89404 0,-1.04605 8.64949,-1.89403 19.31917,-1.89403 10.66968,0 19.31917,0.84798 19.31917,1.89403 z"/><path id="path3661" d="m 369.71584,341.08853 c 0,1.04605 -8.64949,1.89404 -19.31917,1.89404 -10.66968,0 -19.31917,-0.84799 -19.31917,-1.89404 0,-1.04605 8.64949,-1.89403 19.31917,-1.89403 10.66968,0 19.31917,0.84798 19.31917,1.89403 z" transform="translate(38,0)" style="fill:#474545;fill-opacity:1;stroke:#060000;stroke-width:1;stroke-linejoin:round;stroke-miterlimit:4;stroke-opacity:1;stroke-dasharray:none"/></g></g><g id="g3800"><path id="path2866" d="m 411.63716,442.48258 c -2.23642,-3.36826 0,46.29866 0,69.44799" style="fill:none;stroke:#000;stroke-width:1px;stroke-linecap:butt;stroke-linejoin:miter;stroke-opacity:1"/><path style="fill:none;stroke:#000;stroke-width:1px;stroke-linecap:butt;stroke-linejoin:miter;stroke-opacity:1" id="path3696" d="m 411.63716,442.48258 c 2.23642,-3.36826 0,46.29866 0,69.44799"/></g><path id="path3791" d="m 429.5,231.65625 c 118.822,9.29363 280.33375,-21.53464 281.96875,97.84375 -2.51212,2.56535 -10.33597,-4.15152 -16.53125,-8.15625 -5.6138,-3.62885 -13.77013,-4.31906 -24.875,-3.96875 l -246.625,3.90625 c 2.00844,-30.12661 -2.80805,-82.88982 5.90625,-89.53125 l 0,-0.0937 c 0.0413,0.003 0.0837,-0.003 0.125,0 0.0103,8.1e-4 0.0209,-8.1e-4 0.0312,0 z" style="fill:url(#linearGradient3793);fill-opacity:1;stroke:#000;stroke-width:1px;stroke-linecap:butt;stroke-linejoin:miter;stroke-opacity:1"/></g></svg>