<svg xmlns="http://www.w3.org/2000/svg" xmlns:svg="http://www.w3.org/2000/svg" xmlns:xlink="http://www.w3.org/1999/xlink" id="svg2250" width="211.399" height="204.361" enable-background="new" version="1.0" style="display:inline"><defs id="defs2252"><linearGradient id="linearGradient5696"><stop style="stop-color:navy;stop-opacity:1" id="stop5698" offset="0"/><stop style="stop-color:navy;stop-opacity:1" id="stop5700" offset="1"/></linearGradient><linearGradient id="linearGradient5688"><stop style="stop-color:#f60;stop-opacity:1" id="stop5690" offset="0"/><stop style="stop-color:#1d1796;stop-opacity:1" id="stop5692" offset="1"/></linearGradient><linearGradient id="linearGradient5680"><stop style="stop-color:navy;stop-opacity:1" id="stop5682" offset="0"/><stop style="stop-color:navy;stop-opacity:0" id="stop5684" offset="1"/></linearGradient><linearGradient id="linearGradient5595"><stop style="stop-color:red;stop-opacity:1" id="stop5597" offset="0"/><stop style="stop-color:red;stop-opacity:0" id="stop5599" offset="1"/></linearGradient><linearGradient id="linearGradient4101"><stop style="stop-color:red;stop-opacity:1" id="stop4103" offset="0"/><stop style="stop-color:red;stop-opacity:1" id="stop4105" offset="1"/></linearGradient><linearGradient id="linearGradient3026"><stop style="stop-color:#0000a4;stop-opacity:1" id="stop3028" offset="0"/><stop style="stop-color:#32e6ff;stop-opacity:1" id="stop3030" offset="1"/></linearGradient><radialGradient id="radialGradient3855-3" cx="-402.06" cy="544.29" r="100.413" fx="-402.06" fy="544.29" gradientTransform="matrix(1,0,0,0.985514,0,7.884629)" gradientUnits="userSpaceOnUse" xlink:href="#linearGradient3026-8"/><linearGradient id="linearGradient3026-8"><stop style="stop-color:#000070;stop-opacity:1" id="stop3028-3" offset="0"/><stop style="stop-color:#32e6ff;stop-opacity:1" id="stop3030-2" offset="1"/></linearGradient><radialGradient id="radialGradient3910-6" cx="-402.06" cy="544.29" r="100.413" fx="-402.06" fy="544.29" gradientTransform="matrix(1,0,0,0.985514,0,7.884629)" gradientUnits="userSpaceOnUse" xlink:href="#linearGradient3026-6"/><linearGradient id="linearGradient3026-6"><stop style="stop-color:#a80000;stop-opacity:1" id="stop3028-9" offset="0"/><stop style="stop-color:#f90;stop-opacity:1" id="stop3030-3" offset="1"/></linearGradient></defs><metadata id="metadata2255"/><g id="layer1" transform="translate(-111.44342,-235.89595)" style="display:inline"><path style="fill:#f60;fill-opacity:1;stroke:none" id="path5756" d="m 60,59.360931 a 10,10 0 1 1 -20,0 10,10 0 1 1 20,0 z" transform="translate(166.44342,275.89595)"/><rect style="fill:#d40000;fill-opacity:1;stroke:none" id="rect5758" width="10" height="60" x="211.443" y="260.257"/><rect style="fill:#1d86d9;fill-opacity:1;stroke:none;display:inline" id="rect5758-7" width="10" height="60" x="330.257" y="-291.443" transform="matrix(0,1,-1,0,0,0)"/><rect style="fill:#1d86d9;fill-opacity:1;stroke:none;display:inline" id="rect5758-8" width="10" height="60" x="211.443" y="350.257"/><rect style="fill:#1d86d9;fill-opacity:1;stroke:none;display:inline" id="rect5758-7-0" width="10" height="60" x="330.257" y="-201.443" transform="matrix(0,1,-1,0,0,0)"/><path style="fill:#b3b3b3;fill-opacity:.57671958;stroke:none" id="path5810" d="m 60,21.860931 a 17.5,17.5 0 1 1 -35,0 17.5,17.5 0 1 1 35,0 z" transform="matrix(1.1428571,0,0,1.1428571,167.87199,235.27296)"/><path style="fill:#b3b3b3;fill-opacity:.57671958;stroke:none;display:inline" id="path5810-7" d="m 60,21.860931 a 17.5,17.5 0 1 1 -35,0 17.5,17.5 0 1 1 35,0 z" transform="matrix(1.1428571,0,0,1.1428571,167.87199,385.27296)"/><path style="fill:#b3b3b3;fill-opacity:.57671958;stroke:none;display:inline" id="path5810-7-6" d="m 60,21.860931 a 17.5,17.5 0 1 1 -35,0 17.5,17.5 0 1 1 35,0 z" transform="matrix(1.1428571,0,0,1.1428571,92.871993,310.27296)"/><path style="fill:#b3b3b3;fill-opacity:.57671958;stroke:none;display:inline" id="path5810-7-6-0" d="m 60,21.860931 a 17.5,17.5 0 1 1 -35,0 17.5,17.5 0 1 1 35,0 z" transform="matrix(1.1428571,0,0,1.1428571,242.87199,310.27296)"/></g></svg>